<svg xmlns="http://www.w3.org/2000/svg" width="217" height="93" fill="none"><path fill="url(#a)" fill-opacity=".45" d="M0 93h217V0H0z"/><g filter="url(#b)"><path fill="#BABABA" d="M38.21 24.05c4.649-5.297 18.583-7.222 22.16-5.36s14.587 16.048 12.52 19.53c-3.456 5.822-9.343 10.094-10.43 10.94-1.254-2.022-9.116 1.409-7.32 5.06.137 1.534-7.653 5.245-11.2 5.552-.3.075-.579.078-.83-.002-4.62-.572-12.887-10.14-13.88-14.02-1.775-6.936 7.266-19.747 8.98-21.7"/><path stroke="rgba(107, 107, 107, 0.78)" d="M38.207 24.052c4.649-5.297 18.589-7.22 22.166-5.359 3.577 1.862 14.58 16.046 12.514 19.528m-34.68-14.169c-1.715 1.953-10.751 14.757-8.976 21.693.993 3.88 9.255 13.456 13.875 14.029m-4.9-35.722C46.72 39.94 55.912 45.356 55.144 46.431m17.744-8.21c-3.457 5.822-9.342 10.09-10.43 10.936-1.253-2.022-9.11 1.412-7.314 5.063.149 1.668-9.092 5.919-12.037 5.554m29.78-21.553-17.743 8.21M43.106 59.774c3.296 1.05 11.268-12.268 12.037-13.343"/><path fill="#D1A656" stroke="rgba(122, 85, 15, 1)" d="M55.156 54.2c-1.495-3.793 5.88-7.01 7.307-5.062l16.529 17.93c-1.035-1.885-10.767 3.7-8.845 7.011z"/><path fill="#B87E44" stroke="rgba(122, 85, 15, 1)" d="M69.764 73.3c.595 3.588 11.42-2.424 9.23-6.231-.284-1.976-9.548 2.982-9.23 6.23Z"/><path fill="#89A5E8" stroke="rgba(69, 106, 191, 1)" d="M45.949 27.119c-1.03-3.114 13.25-5.348 13.269-4.099 1.732.288 9.138 11.37 8.117 11.202.048 2.04-9.467 6.302-11.359 5.477-1.083 0-8.128-6.836-10.027-12.58Z"/><path stroke="rgba(255, 255, 255, 1)" stroke-linecap="round" d="m59.655 33.215.078.271.03.09.018.05.015.035.018.045a1 1 0 0 0 .05.112l.027.05.028.048.065.108.066.11.047.069a1 1 0 0 1 .048.077l.027.045a1 1 0 0 1 .06.112l.032.07.037.083a5 5 0 0 0 .113.238l.062.144a1 1 0 0 0 .057.114l.03.058.031.06.03.065.031.064.029.058.028.056.027.056.029.053a1 1 0 0 1 .061.113l.032.062.033.065.049.095.05.096a3 3 0 0 0 .078.14l.01.02.007.013.007.011.008.013.007.016.008.016.016.037.007.022.006.017.008.02q.005.01.021.055l.027.08m-3.385-2.648.604-.372.09-.05.092-.048.27-.143a4 4 0 0 1 .173-.09l.08-.04.087-.044a7 7 0 0 0 .341-.181l.164-.085a3 3 0 0 1 .241-.11l.085-.036.086-.036.087-.033.086-.032.141-.055.06-.026a2 2 0 0 1 .165-.063l.044-.018.06-.02.034-.012.04-.02.153-.078m2.808-.922a9 9 0 0 0-.316-.15.5.5 0 0 0-.119-.034.5.5 0 0 0-.105-.012h-.146a.7.7 0 0 0-.304.106q-.05.028-.09.058a1 1 0 0 0-.08.066 2 2 0 0 0-.13.144q-.035.045-.071.1l-.068.106a2 2 0 0 0-.113.207 1.3 1.3 0 0 0-.088.314 2 2 0 0 0-.023.253 6 6 0 0 0-.005.258q0 .06.012.124a.94.94 0 0 0 .185.41 2 2 0 0 0 .088.113.4.4 0 0 0 .062.055.4.4 0 0 0 .08.037 1 1 0 0 0 .117.029l.052.005.063.002a1 1 0 0 0 .172-.016 1.5 1.5 0 0 0 .295-.101 7 7 0 0 1 .246-.114 2.3 2.3 0 0 1 .383-.138 4 4 0 0 1 .248-.045l.115-.018a2 2 0 0 1 .313-.028l.062-.001h.078l.018-.001q.006 0 .025.008a1 1 0 0 1 .104.05l.073.044a.4.4 0 0 1 .045.039l.023.02a.1.1 0 0 1 .019.024l.02.038.025.051.029.06a.5.5 0 0 1 .04.142 1 1 0 0 1 .009.148l.001.08a1 1 0 0 1-.026.179 2.3 2.3 0 0 1-.157.418 1.4 1.4 0 0 1-.154.234 1.2 1.2 0 0 1-.165.172 1 1 0 0 1-.196.141q-.063.038-.113.065a1 1 0 0 1-.235.092 3 3 0 0 1-.333.072l-.221.022-.094.008-.078.006-.073.004-.166.009a2 2 0 0 1-.177.005h-.075l-.053-.002-.043-.003a.3.3 0 0 1-.066-.018l-.075-.029"/><path fill="#FCD056" stroke="rgba(184, 151, 61, 1)" d="M42.012 38.133c.91-1.002 4.171 2.983 3.505 4.17-1.061 1.89-4.152 4.54-4.152 5.33s1.55 1.277 1.55 2.74c0 .774-6.167.068-6.155-.394-.482-.358-1.415-4.969-1.234-7.345.181-2.377 2.503 2.154 2.875 1.558 2.215-3.553 2.701-5.058 3.61-6.06Z"/></g><path stroke="rgba(166, 166, 166, 0.49)" stroke-width=".4" d="M93.04 22.8v46.8"/><g filter="url(#c)"><path fill="url(#d)" d="M110.36 42.2q-.096 0-.096-.12V28.4h-3.12q-.12 0-.12-.12l.024-2.688q0-.096.096-.096h9.12q.12 0 .12.096v2.688q0 .12-.096.12h-3.144l.024 13.68q0 .12-.096.12zm11.28.24q-1.296 0-2.364-.66t-1.704-1.752-.636-2.412v-1.104q0-.12.12-.12h2.688q.096 0 .096.12v1.104q0 .792.528 1.356t1.272.564 1.272-.576.528-1.344q0-.888-1.152-1.536l-1.2-.672q-.816-.456-1.536-.864-1.32-.768-1.956-1.932t-.636-2.628q0-1.344.648-2.412t1.716-1.692 2.316-.624q1.272 0 2.34.636t1.704 1.704.636 2.388v1.968q0 .096-.096.096h-2.688q-.096 0-.096-.096l-.024-1.968q0-.84-.528-1.368t-1.248-.528q-.744 0-1.272.564t-.528 1.332q0 .792.336 1.32t1.224 1.008q.12.072.468.252t.756.408.732.396.396.216q1.2.672 1.896 1.644t.696 2.388q0 1.368-.636 2.46t-1.704 1.728-2.364.636m6.504-.24q-.12 0-.12-.12l.048-16.488q0-.096.096-.096l4.488-.024q1.32-.024 2.412.624t1.74 1.74.648 2.412v6.888q0 1.392-.672 2.532t-1.8 1.812-2.544.696zm2.808-2.952h1.488q.888 0 1.5-.624t.612-1.488v-6.912q0-.768-.564-1.332t-1.332-.54l-1.68.024zm12.84 3.192q-1.296 0-2.364-.66t-1.716-1.752-.648-2.412l.024-7.608q0-1.32.636-2.4t1.716-1.728 2.352-.648q1.296 0 2.352.648t1.692 1.728.636 2.4l.024 7.608q0 1.32-.636 2.412t-1.704 1.752-2.364.66m0-2.904q.72 0 1.26-.588t.54-1.332l-.024-7.608q0-.792-.504-1.344t-1.272-.552q-.744 0-1.272.54t-.528 1.356v7.608q0 .792.528 1.356t1.272.564m8.736 2.664q-.096 0-.12-.12l-2.832-16.488q-.024-.096.072-.096h2.688q.096 0 .12.096l1.536 10.848 1.584-10.848q.024-.096.144-.096h2.16q.096 0 .12.096l1.56 10.848 1.56-10.848q.024-.096.12-.096h2.664q.12 0 .096.096l-2.856 16.488q-.024.048-.072.084l-.048.036h-2.904q-.072 0-.12-.12l-1.224-8.616-1.224 8.616q-.024.12-.12.12zm13.104 0q-.192 0-.192-.168l-.024-16.344q0-.192.192-.192h2.16l4.056 9.456-.12-9.264q0-.192.216-.192h2.376q.144 0 .144.192l.024 16.368q0 .144-.12.144h-2.112l-4.152-8.832.168 8.64q0 .192-.216.192z"/><path fill="rgba(163, 89, 3, 1)" fill-rule="evenodd" d="M138.852 40.538a5.6 5.6 0 0 1-.649-1.631q-.2.663-.558 1.269a6.05 6.05 0 0 1-2.149 2.163q-1.357.809-3.039.837l-4.307.024h-.006q-.474 0-.797-.323a1.08 1.08 0 0 1-.323-.797l.007-2.506a5.5 5.5 0 0 1-.459 1.005 5.75 5.75 0 0 1-2.056 2.084 5.5 5.5 0 0 1-2.876.777 5.4 5.4 0 0 1-2.89-.81 5.95 5.95 0 0 1-2.042-2.099 5.7 5.7 0 0 1-.772-2.915v-1.104q0-.474.323-.797t.797-.323h1.965q-1.543-.91-2.303-2.3-.758-1.389-.758-3.108 0-.297.027-.584h-1.841l.022 12.678q0 .413-.243.717-.324.405-.853.405h-2.712q-.53 0-.853-.405a1.1 1.1 0 0 1-.243-.715V29.4h-2.12q-.474 0-.797-.323a1.08 1.08 0 0 1-.323-.797l.024-2.697q0-.453.317-.77a1.06 1.06 0 0 1 .779-.317h9.12q.41 0 .715.243.405.324.405.853v.6q.615-.696 1.436-1.175a5.5 5.5 0 0 1 2.82-.761q1.547 0 2.852.777a5.8 5.8 0 0 1 2.051 2.051q.33.557.521 1.165l.008-2.66q0-.46.317-.776a1.06 1.06 0 0 1 .779-.317l4.483-.024a5.43 5.43 0 0 1 2.927.764 5.88 5.88 0 0 1 2.662 3.415 5.5 5.5 0 0 1 .622-1.55 5.85 5.85 0 0 1 2.064-2.079 5.47 5.47 0 0 1 2.866-.79 5.4 5.4 0 0 1 2.875.796 5.9 5.9 0 0 1 2.21 2.401l-.282-1.642q-.102-.482.187-.867.317-.424.866-.424h2.688q.399 0 .703.243a1.1 1.1 0 0 1 .407.713l.561 3.963.58-3.967a1.09 1.09 0 0 1 .482-.76q.288-.192.651-.192h2.16q.399 0 .703.243a1.1 1.1 0 0 1 .407.71l.57 3.966.57-3.965a1.13 1.13 0 0 1 .407-.71q.304-.244.703-.244h2.664a1.07 1.07 0 0 1 .833.361l.02-.02q.34-.34.851-.341h2.16a1 1 0 0 1 .919.606l2.072 4.83-.055-4.231q0-.558.39-.904.337-.3.826-.301h2.376q.572 0 .908.448.236.315.236.744l.024 16.367q0 .435-.262.75-.33.395-.858.395h-2.112a1 1 0 0 1-.905-.574l-2.156-4.587.077 3.95q0 .565-.39.91-.337.3-.826.301h-2.4q-.472 0-.803-.29a1.11 1.11 0 0 1-.389-.878l-.019-13.01-2.292 13.229a1 1 0 0 1-.091.276 1.2 1.2 0 0 1-.366.437l-.048.036a1 1 0 0 1-.6.2h-2.904q-.45 0-.773-.323a1.25 1.25 0 0 1-.275-.426 1 1 0 0 1-.062-.23l-.234-1.647-.234 1.647-.009.055a1.15 1.15 0 0 1-.316.601 1.07 1.07 0 0 1-.785.323h-2.904q-.462 0-.785-.323a1.15 1.15 0 0 1-.316-.6l-.005-.028-1.947-11.339.021 6.703a5.7 5.7 0 0 1-.772 2.918 5.95 5.95 0 0 1-2.042 2.1q-1.31.81-2.89.809a5.4 5.4 0 0 1-2.89-.81 6.05 6.05 0 0 1-2.05-2.092m-11.81-4.78.009-3.078-.048.051a1.06 1.06 0 0 1-.779.317h-1.435a6.4 6.4 0 0 1 1.672 1.598q.367.512.581 1.112m-4.605-4.025-.021-1.737q0-.438-.235-.673a.74.74 0 0 0-.541-.235.72.72 0 0 0-.542.247.92.92 0 0 0-.258.649q0 .501.18.783.195.31.856.665l.038.022a10 10 0 0 0 .523.279m1.315 1.851a6 6 0 0 0-.396-.216q-.324-.168-.732-.396a27 27 0 0 0-.756-.408q-.348-.18-.468-.252-.888-.48-1.224-1.008t-.336-1.32q0-.768.528-1.332a1.68 1.68 0 0 1 1.272-.564q.72 0 1.248.528t.528 1.368l.024 1.968q0 .096.096.096h2.688q.096 0 .096-.096v-1.968q0-1.32-.636-2.388a4.8 4.8 0 0 0-1.704-1.704 4.5 4.5 0 0 0-2.34-.636q-1.248 0-2.316.624a4.83 4.83 0 0 0-1.94 2.11 4.4 4.4 0 0 0-.351 1.123q-.073.42-.073.871 0 1.464.636 2.628t1.956 1.932q.72.408 1.536.864l1.2.672q1.152.648 1.152 1.536 0 .768-.528 1.344t-1.272.576a1.68 1.68 0 0 1-1.272-.564 1.9 1.9 0 0 1-.528-1.356v-1.104q0-.12-.096-.12h-2.688q-.12 0-.12.12v1.104q0 1.32.636 2.412a5 5 0 0 0 1.704 1.752q1.068.66 2.364.66t2.364-.636a4.77 4.77 0 0 0 1.704-1.728q.636-1.092.636-2.46 0-1.416-.696-2.388t-1.896-1.644m-2.916 2.83q.004.048.004.098v1.104q0 .397.258.673a.72.72 0 0 0 .542.247.7.7 0 0 0 .535-.252.96.96 0 0 0 .265-.668q0-.303-.642-.664zm-4.667-8.014h.119q.096 0 .096-.12v-2.688q0-.096-.12-.096h-9.12q-.096 0-.096.096l-.024 2.688q0 .12.12.12h3.12v13.68q0 .12.096.12h2.712q.096 0 .096-.12l-.022-12.68-.002-1zm33.407-2.808.155.9v.004l2.677 15.584q.024.12.12.12h2.904q.096 0 .12-.12l.719-5.061.505-3.555.505 3.555.719 5.061q.048.12.12.12h2.904l.048-.036a.24.24 0 0 0 .072-.084l2.699-15.584.001-.002.156-.902q.01-.04-.005-.064-.022-.032-.091-.032h-2.664q-.096 0-.12.096l-1.055 7.335-.505 3.513-.505-3.513L158 25.592q-.024-.096-.12-.096h-2.16q-.12 0-.144.096l-1.071 7.336-.513 3.512-.498-3.514-1.038-7.334q-.024-.096-.12-.096h-2.688q-.047 0-.065.023-.02.024-.007.073m13.433-.136.006-.035zm8.781 6.88.034 2.616-1.031-2.404-3.025-7.052h-2.16q-.192 0-.192.192l.024 16.344q0 .168.192.168h2.4q.216 0 .216-.192l-.12-6.188-.048-2.452 1.043 2.22 3.109 6.612h2.112q.12 0 .12-.144l-.024-16.368q0-.192-.144-.192h-2.376q-.216 0-.216.192zm-30.362 9.444q1.068.66 2.364.66t2.364-.66a5 5 0 0 0 1.704-1.752 4.7 4.7 0 0 0 .636-2.412l-.024-7.608q0-1.32-.636-2.4a4.9 4.9 0 0 0-1.692-1.728 4.4 4.4 0 0 0-2.352-.648q-1.272 0-2.352.648a4.86 4.86 0 0 0-1.716 1.728 4.64 4.64 0 0 0-.636 2.4l-.024 7.608q0 1.32.648 2.412a5.1 5.1 0 0 0 1.716 1.752m-13.404.3q0 .12.12.12l4.296-.024q1.416-.024 2.544-.696a5.1 5.1 0 0 0 1.8-1.812q.672-1.14.672-2.532v-6.888q0-1.32-.648-2.412a4.9 4.9 0 0 0-1.74-1.74 4.47 4.47 0 0 0-2.412-.624l-4.488.024q-.096 0-.096.096zm17.028-3.132q-.54.588-1.26.588a1.68 1.68 0 0 1-1.272-.564 1.9 1.9 0 0 1-.528-1.356v-7.608q0-.816.528-1.356t1.272-.54q.768 0 1.272.552t.504 1.344l.024 7.608q0 .744-.54 1.332m-13.1.3h-1l.002-1 .022-9.872 1.68-.024q.768-.024 1.332.54t.564 1.332v6.912q0 .864-.612 1.488a2.02 2.02 0 0 1-1.5.624zm.002-1h.486q.468 0 .786-.324.326-.332.326-.788v-6.912a.86.86 0 0 0-.271-.625.78.78 0 0 0-.594-.247l-.713.01zm12.638-.632-.024-7.605a.96.96 0 0 0-.242-.673.69.69 0 0 0-.534-.226.75.75 0 0 0-.557.24q-.243.248-.243.656v7.608q0 .397.258.673a.72.72 0 0 0 .542.247q.281 0 .523-.264.277-.302.277-.656"/></g><g filter="url(#e)"><path fill="#8C8C8C" d="m106.858 56.76.992-5.496q.008-.032.04-.032h1.16q.032 0 .04.032l.952 5.496q.008.04-.032.04h-.888q-.032 0-.04-.04l-.088-.584h-1.088l-.088.584q-.008.04-.04.04h-.888q-.032 0-.032-.04m1.208-1.44h.768l-.328-2.248-.048-.296-.032.296zm2.552 1.48q-.064 0-.064-.056l-.008-5.448q0-.064.064-.064h.72l1.352 3.152-.04-3.088q0-.064.072-.064h.792q.048 0 .048.064l.008 5.456q0 .048-.04.048h-.704l-1.384-2.944.056 2.88q0 .064-.072.064zm5.652 0q-.032 0-.032-.04l.008-5.496q0-.032.032-.032h2.568q.032 0 .032.04v.896q0 .032-.032.032h-1.64v1.248h1.64q.032 0 .032.032l.008.904q0 .032-.032.032h-1.648v1.4h1.648q.032 0 .032.04v.912q0 .032-.032.032zm4.224 0q-.032 0-.04-.04l-1.104-5.496q-.008-.032.032-.032h.904q.032 0 .04.032l.656 3.664.64-3.664q.008-.032.04-.032h.896q.04 0 .032.032l-1.088 5.496q-.008.04-.04.04zm2.6 0q-.032 0-.032-.04l.008-5.496q0-.032.032-.032h2.568q.032 0 .032.04v.896q0 .032-.032.032h-1.64v1.248h1.64q.032 0 .032.032l.008.904q0 .032-.032.032h-1.648v1.4h1.648q.032 0 .032.04v.912q0 .032-.032.032zm3.4 0q-.064 0-.064-.056l-.008-5.448q0-.064.064-.064h.72l1.352 3.152-.04-3.088q0-.064.072-.064h.792q.048 0 .048.064l.008 5.456q0 .048-.04.048h-.704l-1.384-2.944.056 2.88q0 .064-.072.064zm5.66 0q-.04 0-.04-.04l.016-5.496q0-.032.032-.032h2.56q.04 0 .04.032v.904q0 .032-.032.032h-1.64v1.24h1.64q.032 0 .032.04l.008.904q0 .032-.04.032h-1.64v2.344q0 .04-.04.04zm3.056-.04.992-5.496q.008-.032.04-.032h1.16q.032 0 .04.032l.952 5.496q.008.04-.032.04h-.888q-.032 0-.04-.04l-.088-.584h-1.088l-.088.584q-.008.04-.04.04h-.888q-.032 0-.032-.04m1.208-1.44h.768l-.328-2.248-.048-.296-.032.296zm3.84 1.56q-.432 0-.788-.22t-.568-.584-.212-.804v-.368q0-.04.04-.04h.896q.032 0 .032.04v.368q0 .264.176.452t.424.188.424-.192.176-.448q0-.296-.384-.512l-.4-.224-.512-.288q-.44-.256-.652-.644t-.212-.876q0-.448.216-.804t.572-.564.772-.208q.424 0 .78.212t.568.568.212.796v.656q0 .032-.032.032h-.896q-.032 0-.032-.032l-.008-.656q0-.28-.176-.456t-.416-.176q-.248 0-.424.188t-.176.444q0 .264.112.44t.408.336q.04.024.156.084t.252.136.244.132.132.072q.4.224.632.548t.232.796q0 .456-.212.82t-.568.576-.788.212m2.928-.08q-.032 0-.032-.04V52.2h-1.04q-.04 0-.04-.04l.008-.896q0-.032.032-.032h3.04q.04 0 .04.032v.896q0 .04-.032.04h-1.048l.008 4.56q0 .04-.032.04zm2.432 0q-.032 0-.032-.04l.008-5.496q0-.032.032-.032h2.568q.032 0 .032.04v.896q0 .032-.032.032h-1.64v1.248h1.64q.032 0 .032.032l.008.904q0 .032-.032.032h-1.648v1.4h1.648q.032 0 .032.04v.912q0 .032-.032.032zm3.36 0q-.032 0-.032-.04l.016-5.496q0-.032.032-.032h1.616q.432 0 .796.212t.58.568.216.804q0 .296-.088.532t-.208.4-.216.244q.432.48.432 1.128l.008 1.64q0 .04-.04.04h-.904q-.032 0-.032-.024V55.12q0-.288-.204-.5t-.5-.212h-.528l-.008 2.352q0 .04-.032.04zm.944-3.352h.688q.248 0 .44-.184t.192-.448q0-.256-.188-.44t-.444-.184h-.688zm4.893 3.352q-.032 0-.032-.04l.016-5.496q0-.032.032-.032h1.536q.456 0 .816.22t.568.58.208.784q0 .344-.156.64t-.372.48q.232.232.36.536t.128.64q0 .464-.224.848t-.604.612-.844.228zm.944-3.36h.608q.28 0 .452-.196t.172-.428q0-.256-.184-.444t-.44-.188h-.608zm-.008 2.384h.496q.288 0 .496-.212t.208-.5-.208-.496-.496-.208h-.488zm4.216 1.056q-.424 0-.784-.22t-.572-.588-.212-.808l.016-4q0-.032.032-.032h.896q.032 0 .032.032v4q0 .272.172.46t.42.188q.256 0 .428-.188t.172-.46v-4q0-.032.032-.032h.896q.032 0 .032.032l.016 4q0 .448-.212.816t-.568.584-.796.216m2.28-.08q-.064 0-.064-.056l-.008-5.448q0-.064.064-.064h.72l1.352 3.152-.04-3.088q0-.064.072-.064h.792q.048 0 .048.064l.008 5.456q0 .048-.04.048h-.704l-1.384-2.944.056 2.88q0 .064-.072.064zm3.68 0q-.04 0-.04-.04l.016-5.496q0-.032.032-.032l1.496-.008q.44-.008.804.208t.58.58.216.804v2.296q0 .464-.224.844t-.6.604-.848.232zm.936-.984h.496q.296 0 .5-.208t.204-.496v-2.304q0-.256-.188-.444t-.444-.18l-.56.008zm2.832.984q-.032 0-.032-.04l.008-5.488q0-.04.04-.04h.888q.04 0 .04.04l-.008 4.544h1.648q.04 0 .04.04v.904q0 .04-.04.04zm3.176 0q-.032 0-.032-.04l.008-5.496q0-.032.032-.032h2.568q.032 0 .032.04v.896q0 .032-.032.032h-1.64v1.248h1.64q.032 0 .032.032l.008.904q0 .032-.032.032h-1.648v1.4h1.648q.032 0 .032.04v.912q0 .032-.032.032zm3.36 0q-.032 0-.032-.04l.016-5.496q0-.032.032-.032h1.616q.432 0 .796.212t.58.568.216.804q0 .296-.088.532t-.208.4-.216.244q.432.48.432 1.128l.008 1.64q0 .04-.04.04h-.904q-.032 0-.032-.024V55.12q0-.288-.204-.5t-.5-.212h-.528l-.008 2.352q0 .04-.032.04zm.944-3.352h.688q.248 0 .44-.184t.192-.448q0-.256-.188-.44t-.444-.184h-.688zM107.17 66.8q-.04 0-.04-.04l.016-5.496q0-.032.032-.032h1.536q.736 0 1.164.448t.428 1.216q0 .568-.224.984t-.584.64-.784.224h-.608v2.016q0 .04-.04.04zm.936-3.024h.608q.256 0 .444-.244t.188-.636q0-.312-.168-.512t-.464-.2l-.608.008zm4.224 3.104q-.432 0-.788-.22t-.572-.584-.216-.804l.008-2.536q0-.44.212-.8t.572-.576.784-.216q.432 0 .784.216t.564.576.212.8l.008 2.536q0 .44-.212.804t-.568.584-.788.22m0-.968q.24 0 .42-.196t.18-.444l-.008-2.536q0-.264-.168-.448t-.424-.184q-.248 0-.424.18t-.176.452v2.536q0 .264.176.452t.424.188m2.912.888q-.032 0-.04-.04l-.944-5.496q-.008-.032.024-.032h.896q.032 0 .04.032l.512 3.616.528-3.616q.008-.032.048-.032h.72q.032 0 .04.032l.52 3.616.52-3.616q.008-.032.04-.032h.888q.04 0 .032.032l-.952 5.496q-.008.016-.024.028l-.016.012h-.968q-.024 0-.04-.04l-.408-2.872-.408 2.872q-.008.04-.04.04zm4.328 0q-.032 0-.032-.04l.008-5.496q0-.032.032-.032h2.568q.032 0 .032.04v.896q0 .032-.032.032h-1.64v1.248h1.64q.032 0 .032.032l.008.904q0 .032-.032.032h-1.648v1.4h1.648q.032 0 .032.04v.912q0 .032-.032.032zm3.36 0q-.032 0-.032-.04l.016-5.496q0-.032.032-.032h1.616q.432 0 .796.212t.58.568.216.804q0 .296-.088.532t-.208.4-.216.244q.432.48.432 1.128l.008 1.64q0 .04-.04.04h-.904q-.032 0-.032-.024V65.12q0-.288-.204-.5t-.5-.212h-.528l-.008 2.352q0 .04-.032.04zm.944-3.352h.688q.248 0 .44-.184t.192-.448q0-.256-.188-.44t-.444-.184h-.688zm2.912 3.352q-.032 0-.032-.04l.008-5.496q0-.032.032-.032h2.568q.032 0 .032.04v.896q0 .032-.032.032h-1.64v1.248h1.64q.032 0 .032.032l.008.904q0 .032-.032.032h-1.648v1.4h1.648q.032 0 .032.04v.912q0 .032-.032.032zm3.368 0q-.04 0-.04-.04l.016-5.496q0-.032.032-.032l1.496-.008q.44-.008.804.208t.58.58.216.804v2.296q0 .464-.224.844t-.6.604-.848.232zm.936-.984h.496q.296 0 .5-.208t.204-.496v-2.304q0-.256-.188-.444t-.444-.18l-.56.008zm4.812.984q-.032 0-.032-.04l.016-5.496q0-.032.032-.032h1.536q.456 0 .816.22t.568.58.208.784q0 .344-.156.64t-.372.48q.232.232.36.536t.128.64q0 .464-.224.848t-.604.612-.844.228zm.944-3.36h.608q.28 0 .452-.196t.172-.428q0-.256-.184-.444t-.44-.188h-.608zm-.008 2.384h.496q.288 0 .496-.212t.208-.5-.208-.496-.496-.208h-.488zm3.488.976q-.024 0-.024-.032l.008-2.272-1.072-3.232q-.008-.032.024-.032h.888q.04 0 .048.032l.592 2.152.6-2.152q.008-.032.04-.032h.896q.032 0 .024.032l-1.08 3.2.008 2.304q0 .032-.032.032z"/></g><path fill="#F0A04A" d="M145.352 66.6q-.032 0-.032-.04l.016-5.496q0-.032.032-.032h1.616q.432 0 .796.212t.58.568.216.804q0 .296-.088.532t-.208.4-.216.244q.432.48.432 1.128l.008 1.64q0 .04-.04.04h-.904q-.032 0-.032-.024V64.92q0-.288-.204-.5t-.5-.212h-.528l-.008 2.352q0 .04-.032.04zm.944-3.352h.688q.248 0 .44-.184t.192-.448q0-.256-.188-.44t-.444-.184h-.688zm4.36 3.432q-.432 0-.788-.22t-.572-.584-.216-.804l.008-2.536q0-.44.212-.8t.572-.576.784-.216q.432 0 .784.216t.564.576.212.8l.008 2.536q0 .44-.212.804t-.568.584-.788.22m0-.968q.24 0 .42-.196t.18-.444l-.008-2.536q0-.264-.168-.448t-.424-.184q-.248 0-.424.18t-.176.452v2.536q0 .264.176.452t.424.188m2.208.888q-.032 0-.032-.04l.008-5.488q0-.04.04-.04h.888q.04 0 .04.04l-.008 4.544h1.648q.04 0 .04.04v.904q0 .04-.04.04zm3.176 0q-.032 0-.032-.04l.008-5.488q0-.04.04-.04h.888q.04 0 .04.04l-.008 4.544h1.648q.04 0 .04.04v.904q0 .04-.04.04zm3.184 0q-.04 0-.04-.04l.016-5.496q0-.032.032-.032l1.496-.008q.44-.008.804.208t.58.58.216.804v2.296q0 .464-.224.844t-.6.604-.848.232zm.936-.984h.496q.296 0 .5-.208t.204-.496v-2.304q0-.256-.188-.444t-.444-.18l-.56.008zm4.28 1.064q-.432 0-.788-.22t-.572-.584-.216-.804l.008-2.536q0-.44.212-.8t.572-.576.784-.216q.432 0 .784.216t.564.576.212.8l.008 2.536q0 .44-.212.804t-.568.584-.788.22m0-.968q.24 0 .42-.196t.18-.444l-.008-2.536q0-.264-.168-.448t-.424-.184q-.248 0-.424.18t-.176.452v2.536q0 .264.176.452t.424.188m2.912.888q-.032 0-.04-.04l-.944-5.496q-.008-.032.024-.032h.896q.032 0 .04.032l.512 3.616.528-3.616q.008-.032.048-.032h.72q.032 0 .04.032l.52 3.616.52-3.616q.008-.032.04-.032h.888q.04 0 .032.032l-.952 5.496q-.008.016-.024.028l-.016.012h-.968q-.024 0-.04-.04l-.408-2.872-.408 2.872q-.008.04-.04.04zm4.368 0q-.064 0-.064-.056l-.008-5.448q0-.064.064-.064h.72l1.352 3.152-.04-3.088q0-.064.072-.064h.792q.048 0 .048.064l.008 5.456q0 .048-.04.048h-.704l-1.384-2.944.056 2.88q0 .064-.072.064z"/><path fill="rgba(184, 78, 2, 1)" fill-rule="evenodd" d="M149.125 66.674a.64.64 0 0 1-.186.361.65.65 0 0 1-.475.195h-.904a.65.65 0 0 1-.402-.132.6.6 0 0 1-.251-.407.66.66 0 0 1-.135.293.63.63 0 0 1-.516.246h-.904a.63.63 0 0 1-.516-.246.66.66 0 0 1-.146-.424l.016-5.498q0-.275.193-.467a.64.64 0 0 1 .469-.193h1.616q.601 0 1.113.298.427.248.707.64.285-.445.744-.72.51-.306 1.108-.306.61 0 1.114.309.248.152.445.356a.64.64 0 0 1 .19-.382.65.65 0 0 1 .475-.195h.888q.281 0 .475.195.195.195.195.475l-.007 3.914h.949l.006-3.915q0-.28.195-.474a.65.65 0 0 1 .475-.195h.888q.281 0 .475.195.195.195.195.475l-.007 3.914h.952l.011-3.924q0-.275.193-.468a.64.64 0 0 1 .469-.192l1.493-.008q.611-.011 1.129.296.437.26.719.674a2.24 2.24 0 0 1 .759-.744q.51-.306 1.108-.306.61 0 1.113.309.125.076.237.166a.7.7 0 0 1 .076-.127.62.62 0 0 1 .526-.26h.896a.65.65 0 0 1 .56.299.67.67 0 0 1 .568-.299h.72a.65.65 0 0 1 .56.299.65.65 0 0 1 .56-.299h.888q.154 0 .281.057a.7.7 0 0 1 .287-.057h1.135l.27.63a.69.69 0 0 1 .699-.63h.792a.64.64 0 0 1 .54.268.7.7 0 0 1 .138.426l.008 5.455a.67.67 0 0 1-.156.44.64.64 0 0 1-.514.239h-1.104l-.301-.64a.69.69 0 0 1-.699.64h-.8a.68.68 0 0 1-.463-.17.66.66 0 0 1-.231-.516l-.001-.915-.196 1.13-.041.083q-.075.15-.21.25l-.184.138h-1.178a.63.63 0 0 1-.453-.168.64.64 0 0 1-.443.168h-.968a.676.676 0 0 1-.658-.546l-.001-.009-.158-.919a2.27 2.27 0 0 1-.976 1.24q-.508.314-1.119.314-.61 0-1.119-.314a2.3 2.3 0 0 1-.768-.774 2.3 2.3 0 0 1-1.886 1l-1.439.008h-.004a.7.7 0 0 1-.3-.067.7.7 0 0 1-.3.067h-2.584a.66.66 0 0 1-.296-.065.7.7 0 0 1-.296.065h-2.584a.63.63 0 0 1-.516-.246.65.65 0 0 1-.14-.332q-.193.195-.433.344-.508.314-1.119.314-.61 0-1.119-.314a2.3 2.3 0 0 1-.412-.322m-.626-1.126-.003-.628q0-.207-.044-.398a1.6 1.6 0 0 0-.388-.73l.04-.036a1.55 1.55 0 0 0 .352-.527l.032-.081q.088-.236.088-.532a1.6 1.6 0 0 0-.079-.508 1.5 1.5 0 0 0-.137-.296 1.6 1.6 0 0 0-.58-.568 1.55 1.55 0 0 0-.796-.212h-1.616q-.032 0-.032.032l-.016 5.496q0 .04.032.04h.904q.032 0 .032-.04l.008-2.352h.528a1 1 0 0 1 .102.007q.23.03.398.205a.7.7 0 0 1 .204.5v1.656q0 .024.032.024h.904q.04 0 .04-.04zm.586-2.2-.003 1.104-.002.62q0 .21.049.4.054.213.167.404.216.364.572.584t.788.22q.431 0 .788-.22.356-.22.568-.584a1.53 1.53 0 0 0 .212-.804l-.008-2.536q0-.085-.008-.167a1.5 1.5 0 0 0-.204-.633 1.64 1.64 0 0 0-.564-.576 1.47 1.47 0 0 0-.784-.216q-.424 0-.784.216a1.62 1.62 0 0 0-.725.933q-.06.21-.059.443zm3.753-1.008-.004 3.043-.002 1.177q0 .04.032.04h2.584q.04 0 .04-.04v-.904q0-.04-.04-.04H153.8l.001-.63.007-3.914q0-.04-.04-.04h-.888q-.04 0-.04.04zm3.172 2.945-.002 1.275q0 .04.032.04h2.584q.04 0 .04-.04v-.904q0-.04-.04-.04h-1.648l.001-.63.007-3.914q0-.04-.04-.04h-.888q-.04 0-.04.04zm3.178.003-.004 1.272q0 .04.04.04h.069l1.363-.008a1.68 1.68 0 0 0 1.602-1.186q.07-.233.07-.494v-2.296q0-.23-.059-.44a1.63 1.63 0 0 0-.737-.945 1.5 1.5 0 0 0-.804-.207l-1.496.008q-.032 0-.032.032zm3.726-3.126q-.042.18-.042.374l-.008 2.536q0 .186.038.358.053.236.178.446.216.364.572.584t.788.22.788-.22.568-.584.212-.804L166 62.645v-.109a1.6 1.6 0 0 0-.212-.8 1.64 1.64 0 0 0-.564-.576 1.47 1.47 0 0 0-.784-.216q-.424 0-.784.216t-.572.576a1.5 1.5 0 0 0-.17.426m3.568-.436.148.864.682 3.97q.008.04.04.04h.968q.032 0 .04-.04l.09-.632.318-2.24.318 2.24.09.632q.016.04.04.04h.968l.016-.012a.1.1 0 0 0 .024-.028l.795-4.591.053-.307.001-.004.103-.594q.003-.014-.002-.021-.008-.01-.03-.011h-.888q-.032 0-.04.032l-.202 1.403-.318 2.213-.318-2.213-.202-1.403q-.008-.032-.04-.032h-.72q-.04 0-.048.032l-.205 1.404-.323 2.212-.313-2.214-.199-1.402q-.008-.032-.04-.032h-.896q-.015 0-.022.008t-.002.024l.102.594.001.004zm.51-.75-.005-.03zm3.558.01.008-.043zm1.098.16v.036l.001.84.007 4.522q0 .056.064.056h.8q.072 0 .072-.064l-.026-1.335-.03-1.545.657 1.398.727 1.546h.704q.04 0 .04-.048l-.008-5.456q0-.064-.048-.064h-.792q-.072 0-.072.064l.019 1.44.021 1.648-.65-1.515-.702-1.637h-.72q-.064 0-.064.064zm-20.572 4.37a.56.56 0 0 1-.844.008.64.64 0 0 1-.176-.452v-2.536a.62.62 0 0 1 .176-.452.57.57 0 0 1 .424-.18.55.55 0 0 1 .424.184.64.64 0 0 1 .168.448l.008 2.536q0 .248-.18.444m13.784 0a.56.56 0 0 1-.844.008.64.64 0 0 1-.176-.452v-2.536a.62.62 0 0 1 .176-.452.57.57 0 0 1 .424-.18.55.55 0 0 1 .424.184.64.64 0 0 1 .168.448l.008 2.536q0 .248-.18.444m-4.204.1h-.496l.001-.63.007-2.994.56-.008a.58.58 0 0 1 .444.18.6.6 0 0 1 .188.444v2.304a.68.68 0 0 1-.204.496.67.67 0 0 1-.5.208m-13.73-3.624h.058q.256 0 .444.184.188.185.188.44a.6.6 0 0 1-.192.448.62.62 0 0 1-.44.184h-.688v-1.256zm.06.621.002-.004z"/><defs><filter id="b" width="69.806" height="72.483" x="14.097" y="8.498" color-interpolation-filters="sRGB" filterUnits="userSpaceOnUse"><feFlood flood-opacity="0" result="feFloodId_5_4"/><feColorMatrix in="SourceAlpha" result="hardAlpha_5_4" values="0 0 0 0 0 0 0 0 0 0 0 0 0 0 0 0 0 0 127 0"/><feOffset dy="2"/><feGaussianBlur stdDeviation="2"/><feComposite in2="hardAlpha_5_4" operator="out"/><feColorMatrix values="0 0 0 0 0 0 0 0 0 0 0 0 0 0 0 0 0 0 0.25 0"/><feBlend in2="feFloodId_5_4" result="dropShadow_1_5_4"/><feColorMatrix in="SourceAlpha" result="hardAlpha_5_4" values="0 0 0 0 0 0 0 0 0 0 0 0 0 0 0 0 0 0 127 0"/><feOffset dx="-4" dy="1"/><feGaussianBlur stdDeviation="5"/><feComposite in2="hardAlpha_5_4" operator="out"/><feColorMatrix values="0 0 0 0 0 0 0 0 0 0 0 0 0 0 0 0 0 0 0.05 0"/><feBlend in2="feFloodId_5_4" result="dropShadow_1_5_4"/><feBlend in="SourceGraphic" in2="dropShadow_1_5_4" result="shape_5_4"/></filter><filter id="c" width="77.44" height="27.208" x="102.024" y="22.232" color-interpolation-filters="sRGB" filterUnits="userSpaceOnUse"><feFlood flood-opacity="0" result="feFloodId_5_19"/><feColorMatrix in="SourceAlpha" result="hardAlpha_5_19" values="0 0 0 0 0 0 0 0 0 0 0 0 0 0 0 0 0 0 127 0"/><feOffset dy="2"/><feGaussianBlur stdDeviation="2"/><feComposite in2="hardAlpha_5_19" operator="out"/><feColorMatrix values="0 0 0 0 0 0 0 0 0 0 0 0 0 0 0 0 0 0 0.25 0"/><feBlend in2="feFloodId_5_19" result="dropShadow_1_5_19"/><feBlend in="SourceGraphic" in2="dropShadow_1_5_19" result="shape_5_19"/></filter><filter id="e" width="72.597" height="15.728" x="106.857" y="51.152" color-interpolation-filters="sRGB" filterUnits="userSpaceOnUse"><feFlood flood-opacity="0" result="feFloodId_5_21"/><feBlend in="SourceGraphic" in2="feFloodId_5_21" result="shape_5_21"/><feColorMatrix in="SourceAlpha" result="hardAlpha_5_21" values="0 0 0 0 0 0 0 0 0 0 0 0 0 0 0 0 0 0 127 0"/><feOffset dy="2"/><feGaussianBlur stdDeviation="2"/><feComposite in2="hardAlpha_5_21" k2="-1" k3="1" operator="arithmetic"/><feColorMatrix values="0 0 0 0 0 0 0 0 0 0 0 0 0 0 0 0 0 0 0.1 0"/><feBlend in2="shape_5_21" result="innerShadow_0_5_21"/></filter><linearGradient id="a" x1="14.617" x2="217" y1="-87.743" y2="194.178" gradientUnits="userSpaceOnUse"><stop offset="0" stop-color="#FFF" stop-opacity=".67"/><stop offset=".186" stop-color="#5BB6BD" stop-opacity=".7"/><stop offset=".737" stop-color="#F5AD73" stop-opacity=".7"/><stop offset="1" stop-color="#FFF"/></linearGradient><linearGradient id="d" x1="107" x2="176" y1="23.888" y2="45.422" gradientUnits="userSpaceOnUse"><stop offset="0" stop-color="#46AFFA"/><stop offset=".685" stop-color="#FFCB6B"/><stop offset="1" stop-color="#FFA600"/></linearGradient></defs></svg>