<svg xmlns="http://www.w3.org/2000/svg" width="1200" height="630" fill="none"><path fill="url(#a)" fill-opacity=".45" d="M0 630h1200V0H0z"/><g filter="url(#b)"><path fill="#BABABA" d="M202.367 182.731c27.444-31.212 109.7-42.555 130.815-31.583 21.116 10.971 86.111 94.562 73.909 115.08-20.402 34.306-55.154 59.478-61.571 64.463-7.403-11.914-53.814 8.303-43.211 29.816.808 9.039-45.178 30.906-66.117 32.715-1.771.442-3.418.46-4.899-.012-27.273-3.37-76.075-59.749-81.937-82.612-10.478-40.87 42.893-116.359 53.011-127.867"/><path stroke="#6B6B6B" stroke-opacity=".78" stroke-width="4" d="M202.349 182.743c27.444-31.212 109.735-42.543 130.851-31.578 21.116 10.972 86.069 94.551 73.873 115.069m-204.724-83.491c-10.124 11.508-63.465 86.955-52.987 127.826 5.862 22.862 54.634 79.289 81.907 82.665m-28.92-210.491c50.26 93.62 104.517 125.533 99.983 131.868m104.741-48.377c-20.407 34.306-55.142 59.455-61.565 64.44-7.396-11.915-53.778 8.32-43.176 29.833.88 9.829-53.678 34.878-71.063 32.727m175.804-127-104.741 48.377m-71.063 78.623c19.457 6.187 66.524-72.289 71.063-78.623"/><path fill="#D1A656" stroke="#7A550F" stroke-width="4" d="M302.403 360.389c-8.825-22.35 34.711-41.306 43.135-29.827l97.574 105.652c-6.11-11.108-63.56 21.802-52.214 41.312z"/><path fill="#B87E44" stroke="#7A550F" stroke-width="4" d="M388.637 472.936c3.513 21.142 67.415-14.284 54.487-36.716-1.676-11.644-56.364 17.577-54.487 36.716Z"/><path fill="#89A5E8" stroke="#456ABF" stroke-width="4" d="M248.052 200.815c-6.08-18.349 78.218-31.513 78.33-24.153 10.224 1.697 53.944 66.997 47.916 66.007.284 12.021-55.885 37.135-67.054 32.274-6.394 0-47.982-40.281-59.192-74.128Z"/><path stroke="#fff" stroke-linecap="round" stroke-width="6" d="m328.962 236.736.46 1.597.177.53.106.295.089.206.106.265q.128.339.295.66l.16.295.165.282q.182.325.384.637l.389.648.278.406q.152.221.283.454l.16.265q.198.32.354.66l.189.413.218.489q.316.71.667 1.402l.366.849q.147.347.337.672l.177.341.183.354.177.383.183.377.171.342.165.33.16.33.171.312q.201.321.36.666l.189.365.195.383.289.56.295.566q.22.418.461.825l.059.117.041.077.041.065.047.076.042.095.047.094.094.218.042.13.035.1.047.118q.03.058.124.324l.16.471m-19.983-15.603 3.566-2.192.531-.295.543-.283 1.594-.842a24 24 0 0 1 1.021-.53l.473-.236.513-.259a41 41 0 0 0 2.013-1.067l.968-.501q.698-.355 1.423-.648l.502-.212.508-.212q.248-.1.513-.195l.508-.188.832-.324.354-.154q.479-.207.974-.371l.26-.106q.175-.064.354-.118l.201-.07.236-.118.903-.46m16.577-5.433a55 55 0 0 0-1.866-.884 3 3 0 0 0-.702-.2 3 3 0 0 0-.62-.071h-.862a4.2 4.2 0 0 0-1.795.625 5 5 0 0 0-.531.342 6 6 0 0 0-.472.389q-.405.405-.768.848a9 9 0 0 0-.419.589l-.401.625q-.37.59-.667 1.22a7.7 7.7 0 0 0-.52 1.85q-.116.741-.135 1.491a35 35 0 0 0-.03 1.52q0 .353.071.731c.163.881.537 1.71 1.092 2.416q.248.342.519.665.167.181.366.325.225.132.473.218.34.105.69.17l.307.03.372.012a6 6 0 0 0 1.016-.095 9 9 0 0 0 1.741-.595q.72-.35 1.452-.671a13.6 13.6 0 0 1 2.261-.814q.728-.155 1.464-.265l.679-.106a12 12 0 0 1 1.848-.165l.366-.006h.46l.106-.006q.036 0 .148.047.315.13.614.295l.431.259q.141.105.266.23l.135.118a.6.6 0 0 1 .113.141l.118.224.147.301q.089.171.171.353c.12.266.2.548.236.837q.06.434.054.872l.006.472a5 5 0 0 1-.154 1.054 13.5 13.5 0 0 1-.927 2.463q-.385.735-.909 1.379-.436.556-.974 1.014a6 6 0 0 1-1.157.831q-.372.224-.667.383c-.438.238-.904.42-1.387.542q-.971.268-1.966.424l-1.305.13-.555.047-.46.035-.431.024-.98.053q-.522.038-1.045.029h-.442l-.313-.012-.254-.017a1.8 1.8 0 0 1-.39-.106l-.443-.171"/><path fill="#FCD056" stroke="#B8973D" stroke-width="4" d="M224.811 265.715c5.372-5.904 24.622 17.577 20.691 24.572-6.264 11.136-24.51 26.751-24.51 31.406s9.15 7.525 9.15 16.146c0 4.561-36.406.4-36.335-2.322-2.845-2.109-8.353-29.28-7.284-43.28 1.068-14.006 14.775 12.692 16.971 9.18 13.076-20.936 15.945-29.804 21.311-35.708z"/></g><path stroke="#A6A6A6" stroke-opacity=".49" stroke-width="2" d="M536.848 175.358v275.768"/><g filter="url(#c)"><path fill="url(#d)" d="M654.447 288.02q-.567 0-.567-.707v-80.609h-18.418q-.71 0-.709-.707l.142-15.839q0-.566.567-.566h53.837q.709 0 .709.566v15.839q0 .708-.567.707h-18.56l.142 80.609q0 .707-.567.707zm66.588 1.415q-7.65 0-13.955-3.889-6.304-3.89-10.059-10.324-3.755-6.435-3.755-14.213v-6.505q0-.707.709-.707h15.867q.567 0 .567.707v6.505q0 4.667 3.117 7.99t7.509 3.324 7.509-3.394 3.117-7.92q0-5.232-6.801-9.051l-7.084-3.959a1905 1905 0 0 1-9.067-5.091q-7.793-4.526-11.547-11.385-3.754-6.858-3.754-15.485 0-7.92 3.825-14.213t10.13-9.97q6.304-3.677 13.672-3.677 7.509 0 13.813 3.748 6.306 3.747 10.06 10.041 3.754 6.293 3.754 14.071v11.596q0 .566-.567.566h-15.868q-.566 0-.566-.566l-.142-11.596q0-4.95-3.117-8.061t-7.367-3.111q-4.392 0-7.509 3.323t-3.117 7.849q0 4.667 1.984 7.778t7.225 5.94q.708.423 2.763 1.484a161 161 0 0 1 4.463 2.405q2.408 1.343 4.321 2.333t2.338 1.273q7.083 3.96 11.192 9.687 4.109 5.728 4.109 14.071 0 8.061-3.755 14.496-3.755 6.434-10.059 10.182-6.305 3.748-13.955 3.748m38.394-1.415q-.708 0-.708-.707l.283-97.155q0-.566.567-.566l26.494-.141q7.793-.141 14.238 3.677 6.447 3.818 10.272 10.253 3.825 6.434 3.825 14.213v40.587q0 8.202-3.967 14.92-3.966 6.717-10.625 10.677-6.66 3.96-15.018 4.101zm16.577-17.394h8.784q5.241 0 8.855-3.677 3.612-3.677 3.612-8.768v-40.729q0-4.525-3.329-7.849t-7.863-3.182l-9.918.142zm75.797 18.809q-7.65 0-13.955-3.889-6.305-3.89-10.13-10.324-3.825-6.435-3.825-14.213l.141-44.83q0-7.778 3.755-14.142t10.13-10.182 13.884-3.818q7.651 0 13.885 3.818 6.233 3.819 9.988 10.182t3.754 14.142l.142 44.83q0 7.779-3.754 14.213-3.754 6.435-10.06 10.324-6.304 3.889-13.955 3.889m0-17.112q4.25 0 7.438-3.465t3.188-7.849l-.142-44.83q0-4.667-2.975-7.919-2.974-3.253-7.509-3.253-4.392 0-7.509 3.182t-3.117 7.99v44.83q0 4.667 3.117 7.99t7.509 3.324m51.571 15.697q-.567 0-.709-.707l-16.718-97.155q-.14-.566.425-.566h15.868q.567 0 .709.566l9.067 63.922 9.351-63.922q.141-.566.85-.566h12.751q.567 0 .708.566l9.209 63.922 9.209-63.922q.142-.566.709-.566h15.726q.708 0 .567.566l-16.86 97.155a1.4 1.4 0 0 1-.425.495l-.283.212h-17.143q-.426 0-.709-.707l-7.225-50.769-7.226 50.769q-.141.707-.708.707zm77.356 0q-1.134 0-1.134-.99l-.141-96.306q0-1.132 1.133-1.132h12.751l23.941 55.72-.71-54.588c0-.754.43-1.132 1.28-1.132h14.03c.56 0 .85.378.85 1.132l.14 96.448c0 .566-.24.848-.71.848h-12.47l-24.509-52.042.991 50.911q0 1.131-1.275 1.131z"/><path fill="#A35903" fill-rule="evenodd" d="M822.641 278.227a33 33 0 0 1-3.831-9.611 34 34 0 0 1-3.294 7.478 35.7 35.7 0 0 1-12.686 12.745q-8.01 4.767-17.94 4.932l-25.425.142h-.036q-2.798 0-4.704-1.903a6.37 6.37 0 0 1-1.907-4.697l.041-14.766a32.5 32.5 0 0 1-2.709 5.922 33.9 33.9 0 0 1-12.137 12.28 32.5 32.5 0 0 1-16.978 4.578 31.9 31.9 0 0 1-17.06-4.773 35.1 35.1 0 0 1-12.055-12.368 33.55 33.55 0 0 1-4.557-17.177v-6.505q0-2.793 1.907-4.696 1.906-1.904 4.705-1.904h11.599q-9.108-5.362-13.595-13.552-4.474-8.185-4.474-18.314 0-1.75.159-3.441h-10.868l.13 74.704q0 2.434-1.434 4.225-1.913 2.387-5.036 2.387h-16.009q-3.13 0-5.036-2.387a6.47 6.47 0 0 1-1.434-4.213v-74.716h-12.515q-2.799 0-4.705-1.904a6.35 6.35 0 0 1-1.907-4.696l.142-15.892q0-2.669 1.871-4.537a6.25 6.25 0 0 1 4.599-1.868h53.837q2.421 0 4.221 1.432 2.391 1.91 2.391 5.026v3.536q3.63-4.101 8.477-6.924a32.5 32.5 0 0 1 16.647-4.484q9.132 0 16.836 4.578a34.2 34.2 0 0 1 12.107 12.086 32.6 32.6 0 0 1 3.076 6.864l.047-15.674q0-2.71 1.872-4.572a6.25 6.25 0 0 1 4.598-1.868l26.464-.141a32.1 32.1 0 0 1 17.279 4.501 34.67 34.67 0 0 1 15.715 20.123 32.4 32.4 0 0 1 3.671-9.133 34.5 34.5 0 0 1 12.185-12.251 32.33 32.33 0 0 1 16.918-4.655 31.93 31.93 0 0 1 16.972 4.691 34.8 34.8 0 0 1 13.046 14.148l-1.665-9.676q-.601-2.84 1.104-5.109 1.872-2.498 5.112-2.498h15.868q2.356 0 4.15 1.432a6.48 6.48 0 0 1 2.403 4.201l3.312 23.352 3.424-23.375a6.4 6.4 0 0 1 .935-2.548 6.4 6.4 0 0 1 1.91-1.931q1.7-1.131 3.843-1.131h12.751q2.355 0 4.15 1.432a6.48 6.48 0 0 1 2.402 4.184l3.365 23.369 3.365-23.364a6.65 6.65 0 0 1 2.403-4.183q1.794-1.438 4.15-1.438h15.726a6.311 6.311 0 0 1 4.917 2.127l.118-.118q2.007-2.003 5.024-2.009h12.751a5.897 5.897 0 0 1 5.425 3.571l12.236 28.46-.33-24.931c0-2.192.77-3.967 2.3-5.326 1.33-1.179 2.95-1.77 4.88-1.774h14.03c2.25 0 4.03.88 5.36 2.64.92 1.237 1.39 2.699 1.39 4.384l.14 96.442c0 1.709-.52 3.182-1.55 4.419-1.3 1.552-2.98 2.328-5.06 2.328h-12.47c-1.12 0-2.22-.318-3.16-.917a5.9 5.9 0 0 1-2.18-2.465l-12.73-27.029.46 23.275q0 3.33-2.307 5.362-1.989 1.768-4.876 1.774H980.73q-2.787 0-4.741-1.709a6.55 6.55 0 0 1-2.296-5.174l-.112-76.661-13.53 77.952a5.9 5.9 0 0 1-.538 1.626 7.06 7.06 0 0 1-2.16 2.575l-.284.212a5.9 5.9 0 0 1-3.541 1.179h-17.143q-2.656 0-4.564-1.903a7.4 7.4 0 0 1-1.623-2.511 5.8 5.8 0 0 1-.366-1.355l-1.381-9.705-1.382 9.705-.053.324a6.78 6.78 0 0 1-1.865 3.542 6.33 6.33 0 0 1-4.634 1.903h-17.143q-2.727 0-4.634-1.903a6.78 6.78 0 0 1-1.866-3.536l-.029-.165-11.494-66.815.124 39.498a33.54 33.54 0 0 1-4.557 17.194 35.1 35.1 0 0 1-12.054 12.374q-7.734 4.773-17.061 4.767a31.93 31.93 0 0 1-17.06-4.773 35.7 35.7 0 0 1-12.102-12.327m-69.717-28.166.053-18.137-.283.301a6.26 6.26 0 0 1-4.599 1.867h-8.471a37.8 37.8 0 0 1 9.87 9.417 26.4 26.4 0 0 1 3.43 6.552m-27.184-23.717-.124-10.235q0-2.582-1.387-3.966a4.37 4.37 0 0 0-3.194-1.385 4.26 4.26 0 0 0-3.2 1.456 5.42 5.42 0 0 0-1.523 3.824q0 2.952 1.063 4.614 1.151 1.826 5.053 3.918l.224.13a60 60 0 0 0 3.088 1.644m7.763 10.907a35 35 0 0 0-2.338-1.273 160 160 0 0 1-4.321-2.333 161 161 0 0 0-4.463-2.405q-2.055-1.06-2.763-1.484-5.242-2.829-7.225-5.94-1.984-3.111-1.984-7.778 0-4.525 3.117-7.849a9.928 9.928 0 0 1 7.509-3.323q4.25 0 7.367 3.111t3.117 8.061l.142 11.596q0 .566.566.566h15.868q.567 0 .567-.566v-11.596q0-7.778-3.754-14.071a28.3 28.3 0 0 0-10.06-10.041 26.6 26.6 0 0 0-13.813-3.748q-7.368 0-13.672 3.677a28.5 28.5 0 0 0-11.452 12.433 25.9 25.9 0 0 0-2.072 6.618 30 30 0 0 0-.431 5.132q0 8.627 3.754 15.485 3.755 6.86 11.547 11.385 4.25 2.403 9.067 5.091l7.084 3.959q6.801 3.819 6.801 9.051 0 4.525-3.117 7.92t-7.509 3.394a9.911 9.911 0 0 1-7.509-3.324 11.24 11.24 0 0 1-3.117-7.99v-6.505q0-.707-.567-.707h-15.867q-.71 0-.709.707v6.505q0 7.779 3.755 14.213a29.3 29.3 0 0 0 10.059 10.324q6.305 3.889 13.955 3.889t13.955-3.748a28.1 28.1 0 0 0 10.059-10.182q3.755-6.435 3.755-14.496 0-8.344-4.109-14.071t-11.192-9.687m-17.214 16.676q.023.282.023.577v6.505q0 2.34 1.523 3.966a4.26 4.26 0 0 0 3.2 1.455 4.13 4.13 0 0 0 3.158-1.485 5.66 5.66 0 0 0 1.565-3.936q0-1.785-3.79-3.912zm-27.551-47.223h.703q.567 0 .567-.707v-15.839q0-.566-.709-.566h-53.837q-.567 0-.567.566l-.142 15.839q0 .708.709.707h18.418v80.609q0 .707.567.707h16.009q.567 0 .567-.707l-.13-74.716-.012-5.893zm197.209-16.546.915 5.303v.024l15.803 91.828q.142.707.709.707h17.143q.567 0 .708-.707l4.245-29.822 2.981-20.947 2.981 20.947 4.244 29.822q.283.707.709.707h17.143l.283-.212a1.4 1.4 0 0 0 .425-.495l15.933-91.828.006-.012.921-5.315q.058-.236-.03-.377-.13-.189-.537-.189h-15.726q-.567 0-.709.566l-6.228 43.221-2.981 20.701-2.981-20.701-6.228-43.221q-.141-.566-.708-.566h-12.751q-.709 0-.85.566l-6.323 43.227-3.028 20.695-2.94-20.706-6.127-43.216q-.142-.566-.709-.566h-15.868q-.277 0-.383.136-.118.142-.042.43m131.133 39.739.2 15.415-6.08-14.166-17.861-41.554h-12.751q-1.133 0-1.133 1.132l.141 96.306q0 .99 1.134.99h14.167q1.276 0 1.276-1.131l-.709-36.463-.283-14.448 6.159 13.081 18.35 38.961h12.47c.47 0 .71-.282.71-.848l-.14-96.448c0-.754-.29-1.132-.85-1.132h-14.03c-.85 0-1.28.378-1.28 1.132zm-179.232 55.649q6.305 3.889 13.955 3.889t13.955-3.889a29.3 29.3 0 0 0 10.06-10.324 27.66 27.66 0 0 0 3.754-14.213l-.142-44.83q0-7.778-3.754-14.142a28.9 28.9 0 0 0-9.988-10.182 26 26 0 0 0-13.885-3.818q-7.509 0-13.884 3.818a28.66 28.66 0 0 0-10.13 10.182 27.3 27.3 0 0 0-3.755 14.142l-.141 44.83q0 7.779 3.825 14.213a30.1 30.1 0 0 0 10.13 10.324m-79.127 1.767q0 .707.708.707l25.361-.141q8.358-.141 15.018-4.101a30.1 30.1 0 0 0 10.625-10.677q3.967-6.718 3.967-14.92v-40.587q0-7.779-3.825-14.213a28.9 28.9 0 0 0-10.272-10.253 26.4 26.4 0 0 0-14.238-3.677l-26.494.141q-.567 0-.567.566zm100.52-18.455q-3.187 3.465-7.438 3.465a9.921 9.921 0 0 1-7.509-3.324 11.24 11.24 0 0 1-3.117-7.99v-44.83q0-4.808 3.117-7.99t7.509-3.182q4.535 0 7.509 3.253 2.975 3.252 2.975 7.919l.142 44.83q0 4.384-3.188 7.849m-77.332 1.768h-5.903l.012-5.893.129-58.17 9.918-.142q4.533-.14 7.863 3.182 3.33 3.324 3.329 7.849v40.729q0 5.091-3.612 8.768a11.94 11.94 0 0 1-8.855 3.677zm.012-5.893h2.869q2.763 0 4.64-1.909 1.924-1.956 1.924-4.643v-40.729a5.05 5.05 0 0 0-1.6-3.683 4.6 4.6 0 0 0-3.506-1.455l-4.209.059zm74.605-3.724-.142-44.812a5.65 5.65 0 0 0-1.428-3.966 4.08 4.08 0 0 0-3.153-1.331 4.44 4.44 0 0 0-3.288 1.414q-1.434 1.462-1.434 3.865v44.83q0 2.34 1.523 3.966a4.25 4.25 0 0 0 3.199 1.455q1.659 0 3.088-1.555 1.635-1.78 1.635-3.866" clip-rule="evenodd"/></g><path fill="url(#e)" d="M648.288 363.849v3.492h-15.804v-24.48h15.084v3.492H637.38v6.3h8.748v3.492h-8.748v7.704zm5.032-25.308h4.752v28.8h-4.752zm19.464 25.848q1.728 0 3.168-.684 1.476-.684 3.024-1.98l1.44 2.988q-1.728 1.584-3.564 2.376-1.8.792-4.104.792-3.312 0-5.544-1.368-2.232-1.404-3.348-3.744-1.08-2.376-1.08-5.328 0-3.024 1.116-5.364a8.58 8.58 0 0 1 3.348-3.744q2.232-1.368 5.508-1.368 3.708 0 5.796 2.088 2.124 2.052 2.16 5.796 0 1.188-.396 2.664h-12.852q.036 3.312 1.332 5.112 1.296 1.764 3.996 1.764m-.252-14.184q-1.908 0-3.096 1.116-1.188 1.08-1.656 2.988h8.28v-.432q0-1.764-1.008-2.7-.972-.972-2.52-.972m30.922.756-3.816-.432q.756 1.332.756 2.988 0 1.8-.9 3.312-.864 1.512-2.664 2.448-1.764.9-4.284.9a10 10 0 0 1-2.16-.216q-1.368 1.26-1.368 2.16 0 .684.468 1.008.504.288 1.584.288h5.76q2.952 0 4.608 1.332 1.692 1.296 1.692 3.528 0 2.196-1.512 3.996-1.512 1.836-4.14 2.88-2.628 1.08-5.832 1.08-4.356 0-6.336-1.548-1.944-1.548-1.944-3.744 0-1.368.756-2.484t2.268-2.232q-1.044-.504-1.548-1.296a3.46 3.46 0 0 1-.468-1.728q0-1.08.756-2.124t2.376-2.232q-1.368-.9-2.088-2.268a6.46 6.46 0 0 1-.72-2.988q0-1.8.864-3.276.9-1.512 2.664-2.412 1.764-.936 4.32-.936 1.98 0 3.42.54h7.488zm-10.908 5.976q1.476 0 2.34-.9.9-.936.9-2.484t-.864-2.448-2.376-.9-2.412.9q-.864.9-.864 2.448t.9 2.484q.9.9 2.376.9m6.084 12.024q0-1.98-2.808-1.98h-5.94q-2.016 1.836-2.016 3.636 0 2.124 3.78 2.124 1.944 0 3.528-.576 1.62-.54 2.52-1.44.936-.864.936-1.764m25.766-1.764q-1.584.468-3.276.504-1.584 0-2.664-.54-1.044-.54-1.476-1.836-1.584 1.188-3.096 1.8a8.5 8.5 0 0 1-3.204.612q-2.376 0-3.888-1.368-1.512-1.404-1.512-3.456t1.08-3.348 2.988-2.088q1.944-.792 5.472-1.8l1.872-.54v-.792q0-1.836-.792-2.808-.756-1.008-2.34-1.008a8.4 8.4 0 0 0-3.276.684q-1.584.684-3.636 2.412l-1.26-3.132q4.5-3.528 9.504-3.528 3.276 0 4.896 1.764 1.656 1.728 1.656 5.868v8.136q0 .792.288 1.152.288.324.972.324t1.44-.288zm-14.364-4.824q0 1.872 2.088 1.872 1.044 0 2.124-.468t2.448-1.404v-4.464l-1.296.432q-3.06 1.008-4.212 1.872t-1.152 2.16m28.798-15.408q3.6 0 4.932 1.908 1.368 1.872 1.368 5.436v13.032h-4.716v-12.492q0-2.376-.684-3.348-.648-.972-2.34-.972-2.268 0-4.716 1.836v14.976h-4.752v-19.836h3.564l.576 1.836q3.456-2.376 6.768-2.376m24.676 19.332a8.4 8.4 0 0 1-2.304 1.044q-1.224.36-2.448.36-3.42 0-5.112-1.656-1.692-1.692-1.692-4.824v-10.296h-3.06v-2.016l3.564-1.224 1.368-5.076h2.88v4.896h5.76v3.42h-5.76v9.288q0 2.124.648 3.06.684.9 2.088.9 1.512 0 3.312-.9zm29.45-2.448v3.492h-15.804v-24.48h4.896v20.988zm6.285-20.7a2.7 2.7 0 0 1-1.98-.828 2.7 2.7 0 0 1-.828-1.98q0-1.152.828-1.98a2.7 2.7 0 0 1 1.98-.828q1.188 0 2.016.828t.828 1.98-.828 1.98a2.74 2.74 0 0 1-2.016.828m-2.34 4.356h4.752v19.836h-4.752zm20.971-.54q2.592 0 4.572 1.188 2.016 1.152 3.132 3.456t1.116 5.58q0 3.564-1.296 5.976-1.296 2.376-3.492 3.528-2.16 1.152-4.86 1.152-2.808 0-5.184-1.692l-.54 1.188h-3.312v-28.8h4.752v9.972q2.34-1.548 5.112-1.548m-1.332 17.388q5.328 0 5.328-7.164 0-3.6-1.296-5.148-1.26-1.584-3.168-1.584-1.368 0-2.448.36-1.044.324-2.196 1.116v11.376a7.3 7.3 0 0 0 3.78 1.044m26.33-12.852a13.8 13.8 0 0 0-3.348.396q-1.548.36-3.384 1.44v14.004h-4.752v-19.836h3.564l.792 2.448q1.8-1.62 3.528-2.268a9.7 9.7 0 0 1 3.6-.684zm21.799 15.696q-1.584.468-3.276.504-1.584 0-2.664-.54-1.044-.54-1.476-1.836-1.584 1.188-3.096 1.8a8.5 8.5 0 0 1-3.204.612q-2.376 0-3.888-1.368-1.512-1.404-1.512-3.456t1.08-3.348 2.988-2.088q1.944-.792 5.472-1.8l1.872-.54v-.792q0-1.836-.792-2.808-.756-1.008-2.34-1.008a8.4 8.4 0 0 0-3.276.684q-1.584.684-3.636 2.412l-1.26-3.132q4.5-3.528 9.504-3.528 3.276 0 4.896 1.764 1.656 1.728 1.656 5.868v8.136q0 .792.288 1.152.288.324.972.324t1.44-.288zm-14.364-4.824q0 1.872 2.088 1.872 1.044 0 2.124-.468t2.448-1.404v-4.464l-1.296.432q-3.06 1.008-4.212 1.872t-1.152 2.16m29.374-10.872a13.8 13.8 0 0 0-3.348.396q-1.548.36-3.384 1.44v14.004h-4.752v-19.836h3.564l.792 2.448q1.8-1.62 3.528-2.268a9.7 9.7 0 0 1 3.6-.684zm21.907-3.996-8.496 22.5q-1.224 3.384-3.276 4.86-2.016 1.512-4.932 1.512-2.088 0-3.6-.576l.396-3.564q1.584.504 2.736.504 1.8 0 3.024-.972 1.26-.972 2.268-3.312l-8.1-20.952h4.86l5.256 15.048 5.076-15.048zm26.096 6.912q2.7.54 4.104 2.196 1.44 1.656 1.44 4.032 0 3.204-2.484 4.968-2.448 1.728-7.164 1.728h-9v-24.48h9q4.212 0 6.372 1.548 2.196 1.548 2.196 4.572 0 1.944-1.152 3.42-1.152 1.44-3.312 2.016m-8.208-8.064v6.336h4.104q1.764 0 2.7-.792.972-.828.972-2.412 0-1.656-.936-2.376-.936-.756-2.736-.756zm4.104 17.496q2.304 0 3.528-.972t1.224-2.88q0-3.816-4.752-3.816h-4.104v7.668zm31.396-16.344v19.836h-3.564l-.576-1.836q-3.456 2.376-6.768 2.376-3.6 0-4.968-1.872-1.368-1.908-1.368-5.472v-13.032h4.752v12.492q0 2.376.648 3.348t2.376.972q2.232 0 4.716-1.872v-14.94zm17.153-.54q3.6 0 4.932 1.908 1.368 1.872 1.368 5.436v13.032h-4.716v-12.492q0-2.376-.684-3.348-.648-.972-2.34-.972-2.268 0-4.716 1.836v14.976h-4.752v-19.836h3.564l.576 1.836q3.456-2.376 6.768-2.376m29.503-8.424v28.8h-3.567l-.504-1.512q-2.52 2.052-5.76 2.052-2.592 0-4.608-1.188-1.98-1.188-3.096-3.492t-1.116-5.58q0-5.472 2.952-8.064t7.848-2.592q1.728 0 3.096.396v-8.82zm-13.827 19.08q0 3.6 1.26 5.184 1.26 1.548 3.204 1.548 1.368 0 2.412-.36 1.08-.36 2.196-1.116v-12.024q-1.26-.396-2.844-.396-3.168 0-4.716 1.872-1.512 1.836-1.512 5.292m20.107-19.08h4.75v28.8h-4.75zm19.46 25.848c1.15 0 2.21-.228 3.17-.684.98-.456 1.99-1.116 3.02-1.98l1.44 2.988c-1.15 1.056-2.34 1.848-3.56 2.376q-1.8.792-4.11.792c-2.2 0-4.05-.456-5.54-1.368a8.9 8.9 0 0 1-3.35-3.744q-1.08-2.376-1.08-5.328c0-2.016.37-3.804 1.12-5.364a8.54 8.54 0 0 1 3.35-3.744c1.48-.912 3.32-1.368 5.5-1.368 2.48 0 4.41.696 5.8 2.088q2.13 2.052 2.16 5.796c0 .792-.13 1.68-.4 2.664h-12.85c.03 2.208.47 3.912 1.33 5.112.87 1.176 2.2 1.764 4 1.764m-.25-14.184c-1.27 0-2.31.372-3.1 1.116q-1.185 1.08-1.65 2.988h8.28v-.432c0-1.176-.34-2.076-1.01-2.7q-.975-.972-2.52-.972m24.37 1.296c-1.18 0-2.29.132-3.35.396-1.03.24-2.16.72-3.38 1.44v14.004H1040v-19.836h3.57l.79 2.448c1.2-1.08 2.38-1.836 3.53-2.268a9.7 9.7 0 0 1 3.6-.684z"/><path fill="url(#f)" d="M641.7 395.861q9.432 0 9.432 7.632 0 3.816-2.304 5.76-2.304 1.908-7.128 1.908h-4.32v9.18h-4.896v-24.48zm0 11.808q2.304 0 3.42-1.008t1.116-3.132q0-4.176-4.536-4.176h-4.32v8.316zm22.119 13.212q-3.24 0-5.508-1.368-2.268-1.404-3.384-3.744-1.116-2.376-1.116-5.328 0-3.024 1.116-5.364a8.58 8.58 0 0 1 3.348-3.744q2.268-1.368 5.544-1.368 3.24 0 5.472 1.44 2.268 1.404 3.384 3.78 1.152 2.376 1.152 5.184 0 2.844-1.152 5.256-1.116 2.376-3.384 3.816-2.232 1.44-5.472 1.44m-.036-3.492q2.628 0 3.888-1.8 1.296-1.836 1.296-5.184 0-3.312-1.296-5.112-1.296-1.836-3.888-1.836t-3.888 1.836q-1.296 1.8-1.296 5.112 0 3.348 1.26 5.184 1.296 1.8 3.924 1.8m41.781-16.884-6.264 20.052h-4.536l-4.032-14.976-4.068 14.976h-4.536l-6.264-20.052h4.86l3.636 14.94 4.14-14.94h4.464l4.104 14.976 3.708-14.976zm12.044 16.884q1.728 0 3.168-.684 1.476-.684 3.024-1.98l1.44 2.988q-1.728 1.584-3.564 2.376-1.8.792-4.104.792-3.312 0-5.544-1.368-2.232-1.404-3.348-3.744-1.08-2.376-1.08-5.328 0-3.024 1.116-5.364a8.58 8.58 0 0 1 3.348-3.744q2.232-1.368 5.508-1.368 3.708 0 5.796 2.088 2.124 2.052 2.16 5.796 0 1.188-.396 2.664H712.28q.036 3.312 1.332 5.112 1.296 1.764 3.996 1.764m-.252-14.184q-1.908 0-3.096 1.116-1.188 1.08-1.656 2.988h8.28v-.432q0-1.764-1.008-2.7-.972-.972-2.52-.972m24.37 1.296a13.8 13.8 0 0 0-3.348.396q-1.548.36-3.384 1.44v14.004h-4.752v-19.836h3.564l.792 2.448q1.8-1.62 3.528-2.268a9.7 9.7 0 0 1 3.6-.684zm12.691 12.888q1.728 0 3.168-.684 1.476-.684 3.024-1.98l1.44 2.988q-1.728 1.584-3.564 2.376-1.8.792-4.104.792-3.312 0-5.544-1.368-2.232-1.404-3.348-3.744-1.08-2.376-1.08-5.328 0-3.024 1.116-5.364a8.58 8.58 0 0 1 3.348-3.744q2.232-1.368 5.508-1.368 3.708 0 5.796 2.088 2.124 2.052 2.16 5.796 0 1.188-.396 2.664h-12.852q.036 3.312 1.332 5.112 1.296 1.764 3.996 1.764m-.252-14.184q-1.908 0-3.096 1.116-1.188 1.08-1.656 2.988h8.28v-.432q0-1.764-1.008-2.7-.972-.972-2.52-.972m29.986-11.664v28.8h-3.564l-.504-1.512q-2.52 2.052-5.76 2.052-2.592 0-4.608-1.188-1.98-1.188-3.096-3.492t-1.116-5.58q0-5.472 2.952-8.064t7.848-2.592q1.728 0 3.096.396v-8.82zm-13.824 19.08q0 3.6 1.26 5.184 1.26 1.548 3.204 1.548 1.368 0 2.412-.36 1.08-.36 2.196-1.116v-12.024q-1.26-.396-2.844-.396-3.168 0-4.716 1.872-1.512 1.836-1.512 5.292m38.966-10.656q2.592 0 4.572 1.188 2.016 1.152 3.132 3.456t1.116 5.58q0 3.564-1.296 5.976-1.296 2.376-3.492 3.528-2.16 1.152-4.86 1.152-2.808 0-5.184-1.692l-.54 1.188h-3.312v-28.8h4.752v9.972q2.34-1.548 5.112-1.548m-1.332 17.388q5.328 0 5.328-7.164 0-3.6-1.296-5.148-1.26-1.584-3.168-1.584-1.368 0-2.448.36-1.044.324-2.196 1.116v11.376a7.3 7.3 0 0 0 3.78 1.044m32.523-16.848-8.496 22.5q-1.224 3.384-3.276 4.86-2.016 1.512-4.932 1.512-2.088 0-3.6-.576l.396-3.564q1.584.504 2.736.504 1.8 0 3.024-.972 1.26-.972 2.268-3.312l-8.1-20.952h4.86l5.256 15.048 5.076-15.048z"/><path fill="#F0A04A" d="M858.757 422.183q-.189 0-.189-.236l.094-32.385q0-.188.189-.188h9.54q2.55 0 4.699 1.249a9.57 9.57 0 0 1 3.423 3.347q1.276 2.097 1.276 4.737 0 1.745-.52 3.135t-1.228 2.357q-.708.966-1.275 1.438 2.55 2.829 2.55 6.647l.048 9.663q0 .236-.237.236h-5.336q-.189 0-.189-.141v-9.758q0-1.698-1.204-2.947-1.205-1.249-2.952-1.249h-3.117l-.047 13.859q0 .236-.189.236zm5.572-19.752h4.062q1.463 0 2.597-1.084t1.133-2.64q0-1.508-1.109-2.592-1.11-1.085-2.621-1.085h-4.062zm25.738 20.223q-2.55 0-4.652-1.296a9.96 9.96 0 0 1-3.376-3.441q-1.275-2.145-1.275-4.738l.047-14.943q0-2.592 1.252-4.714a9.55 9.55 0 0 1 3.376-3.394 8.84 8.84 0 0 1 4.628-1.273q2.55 0 4.628 1.273a9.7 9.7 0 0 1 3.33 3.394q1.251 2.122 1.251 4.714l.048 14.943q0 2.593-1.252 4.738a9.76 9.76 0 0 1-3.353 3.441q-2.102 1.296-4.652 1.296m0-5.704q1.417 0 2.48-1.154 1.062-1.155 1.062-2.617l-.047-14.943q0-1.555-.992-2.64-.991-1.084-2.503-1.084-1.464 0-2.503 1.061-1.038 1.06-1.039 2.663v14.943q0 1.555 1.039 2.664 1.04 1.107 2.503 1.107m13.035 5.233q-.189 0-.189-.236l.047-32.338q0-.235.236-.235h5.242q.236 0 .236.235l-.047 26.776h9.729q.236 0 .236.235v5.327q0 .236-.236.236zm18.748 0q-.189 0-.189-.236l.048-32.338q0-.235.236-.235h5.242q.236 0 .236.235l-.047 26.776h9.728q.236 0 .236.235v5.327q0 .236-.236.236zm18.796 0q-.236 0-.236-.236l.094-32.385q0-.188.189-.188l8.832-.047q2.596-.048 4.746 1.225a9.64 9.64 0 0 1 3.424 3.418q1.275 2.145 1.275 4.737v13.53q0 2.733-1.323 4.973a10 10 0 0 1-3.542 3.559q-2.219 1.32-5.005 1.367zm5.526-5.798h2.928q1.746 0 2.951-1.226 1.204-1.226 1.204-2.922V398.66q0-1.507-1.109-2.616-1.11-1.108-2.621-1.061l-3.306.047zm25.265 6.269q-2.55 0-4.651-1.296a9.96 9.96 0 0 1-3.377-3.441q-1.275-2.145-1.275-4.738l.047-14.943q0-2.592 1.252-4.714a9.55 9.55 0 0 1 3.376-3.394 8.84 8.84 0 0 1 4.628-1.273q2.55 0 4.628 1.273a9.7 9.7 0 0 1 3.33 3.394q1.251 2.122 1.251 4.714l.048 14.943q0 2.593-1.252 4.738a9.76 9.76 0 0 1-3.353 3.441q-2.102 1.296-4.652 1.296m0-5.704q1.417 0 2.48-1.154 1.062-1.155 1.062-2.617l-.047-14.943q0-1.555-.992-2.64-.991-1.084-2.503-1.084-1.464 0-2.503 1.061t-1.039 2.663v14.943q0 1.555 1.039 2.664 1.04 1.107 2.503 1.107m17.191 5.233q-.189 0-.237-.236l-5.572-32.385q-.048-.188.141-.188h5.29q.188 0 .236.188l3.022 21.307 3.117-21.307q.047-.188.284-.188h4.25q.188 0 .236.188l3.065 21.307 3.07-21.307c.04-.125.11-.188.24-.188h5.24c.16 0 .22.063.19.188l-5.62 32.385a.5.5 0 0 1-.14.165l-.09.071h-5.719q-.141 0-.236-.236l-2.408-16.923-2.409 16.923q-.048.236-.236.236zm25.782 0c-.25 0-.37-.11-.37-.33l-.05-32.102c0-.252.12-.377.38-.377h4.25l7.98 18.573-.24-18.196c0-.252.14-.377.43-.377h4.67c.19 0 .28.125.28.377l.05 32.149c0 .189-.08.283-.23.283h-4.16l-8.17-17.347.33 16.97q0 .377-.42.377z"/><path fill="#B84E02" fill-rule="evenodd" d="M881.029 422.619a3.76 3.76 0 0 1-1.098 2.127 3.83 3.83 0 0 1-2.804 1.149h-5.336a3.84 3.84 0 0 1-2.373-.778 3.53 3.53 0 0 1-1.482-2.398 3.9 3.9 0 0 1-.797 1.727 3.71 3.71 0 0 1-3.046 1.449h-5.336a3.73 3.73 0 0 1-3.046-1.449 3.88 3.88 0 0 1-.862-2.499l.094-32.397q0-1.62 1.139-2.751a3.78 3.78 0 0 1 2.769-1.138h9.54q3.548 0 6.57 1.756a13.2 13.2 0 0 1 4.174 3.772 13.16 13.16 0 0 1 4.392-4.243 12.5 12.5 0 0 1 6.54-1.803q3.601 0 6.577 1.821a13.3 13.3 0 0 1 2.626 2.097 3.77 3.77 0 0 1 1.122-2.251 3.84 3.84 0 0 1 2.804-1.149h5.242q1.66 0 2.804 1.149 1.151 1.149 1.151 2.799l-.041 23.064h5.602l.036-23.07q0-1.648 1.151-2.793a3.848 3.848 0 0 1 2.804-1.149h5.242q1.659 0 2.804 1.149 1.15 1.149 1.151 2.799l-.041 23.064h5.62l.065-23.123q0-1.62 1.139-2.757a3.785 3.785 0 0 1 2.768-1.132l8.814-.047q3.607-.065 6.665 1.744a13.3 13.3 0 0 1 4.244 3.972 13.2 13.2 0 0 1 4.481-4.384 12.5 12.5 0 0 1 6.54-1.803q3.601 0 6.571 1.821.738.447 1.399.978.184-.399.448-.749a3.66 3.66 0 0 1 3.105-1.532h5.29a3.85 3.85 0 0 1 3.306 1.762 3.95 3.95 0 0 1 3.353-1.762h4.25a3.84 3.84 0 0 1 1.881.451c.58.309 1.07.76 1.42 1.311.36-.549.85-1 1.43-1.308a3.86 3.86 0 0 1 1.88-.454h5.24c.61 0 1.16.112 1.66.336.54-.23 1.11-.344 1.7-.336h6.7l1.59 3.713a4.06 4.06 0 0 1 1.33-2.671 4.05 4.05 0 0 1 2.8-1.042h4.67a3.76 3.76 0 0 1 1.79.392c.56.275 1.04.683 1.4 1.188.54.725.82 1.607.81 2.51l.05 32.143c.02.947-.31 1.867-.92 2.593-.36.451-.83.813-1.35 1.058-.53.244-1.1.364-1.68.35h-6.52l-1.78-3.771a4.03 4.03 0 0 1-1.31 2.708 4.05 4.05 0 0 1-2.81 1.063h-4.73c-1 .02-1.98-.338-2.73-1.002a3.8 3.8 0 0 1-1.02-1.367 3.7 3.7 0 0 1-.34-1.673l-.01-5.392-1.16 6.659-.24.489c-.29.589-.71 1.08-1.24 1.473l-1.08.813h-6.959a3.72 3.72 0 0 1-2.674-.99 3.78 3.78 0 0 1-2.615.99h-5.714a3.99 3.99 0 0 1-3.885-3.217l-.006-.053-.932-5.415a13.4 13.4 0 0 1-5.762 7.306q-2.999 1.851-6.606 1.851-3.6 0-6.605-1.851a13.55 13.55 0 0 1-4.534-4.56 13.6 13.6 0 0 1-4.84 4.313 13.6 13.6 0 0 1-6.293 1.579l-8.495.047h-.024a4.14 4.14 0 0 1-1.771-.395 4.1 4.1 0 0 1-1.771.395H921.85a3.9 3.9 0 0 1-1.747-.383 4.1 4.1 0 0 1-1.747.383h-15.254a3.73 3.73 0 0 1-3.046-1.449 3.83 3.83 0 0 1-.827-1.957 13.8 13.8 0 0 1-2.556 2.027q-2.998 1.851-6.606 1.851-3.6 0-6.605-1.851a13.5 13.5 0 0 1-2.433-1.897m-3.695-6.635-.018-3.7q0-1.22-.259-2.346a9.4 9.4 0 0 0-2.291-4.301l.236-.212a9.1 9.1 0 0 0 2.078-3.106l.189-.477q.52-1.39.52-3.135a9.4 9.4 0 0 0-.467-2.993 8.8 8.8 0 0 0-.808-1.744 9.45 9.45 0 0 0-3.424-3.347 9.16 9.16 0 0 0-4.699-1.249h-9.54q-.189 0-.189.188l-.094 32.385q0 .236.189.236h5.336q.189 0 .189-.236l.047-13.859h3.117q.302.006.602.041 1.358.177 2.35 1.208a4.13 4.13 0 0 1 1.204 2.947v9.758q0 .141.189.141h5.336q.237 0 .237-.236zm3.459-12.963-.017 6.505-.012 3.653q0 1.238.289 2.357.319 1.256.986 2.381a9.96 9.96 0 0 0 3.377 3.441q2.101 1.296 4.651 1.296 2.545 0 4.652-1.296a9.76 9.76 0 0 0 3.353-3.441 9 9 0 0 0 1.252-4.738l-.048-14.943q0-.501-.047-.984a8.8 8.8 0 0 0-1.204-3.73 9.7 9.7 0 0 0-3.33-3.394 8.7 8.7 0 0 0-4.628-1.273 8.84 8.84 0 0 0-4.628 1.273 9.55 9.55 0 0 0-4.28 5.498 9.3 9.3 0 0 0-.348 2.61zm22.155-5.94-.023 17.931-.012 6.935q0 .236.189.236h15.254q.236 0 .236-.236v-5.327q0-.235-.236-.235h-9.729l.006-3.712.041-23.064q0-.235-.236-.235h-5.242q-.236 0-.236.235zm18.725 17.353-.012 7.513q0 .236.189.236h15.254q.236 0 .236-.236v-5.327q0-.235-.236-.235h-9.728l.006-3.712.041-23.064q0-.235-.236-.235h-5.242q-.237 0-.236.235zm18.761.018-.024 7.495q0 .236.236.236h.407l8.047-.047a9.91 9.91 0 0 0 9.457-6.989 10 10 0 0 0 .413-2.911v-13.529q0-1.355-.349-2.592a9.62 9.62 0 0 0-4.35-5.569 8.86 8.86 0 0 0-4.746-1.219l-8.832.047q-.189 0-.189.188zm21.995-18.42a9.7 9.7 0 0 0-.248 2.204l-.047 14.943q0 1.096.224 2.11a9 9 0 0 0 1.051 2.628 9.96 9.96 0 0 0 3.377 3.441q2.101 1.296 4.651 1.296 2.551 0 4.652-1.296a9.76 9.76 0 0 0 3.353-3.441q1.252-2.145 1.252-4.738l-.048-14.301v-.642a9.4 9.4 0 0 0-1.251-4.714 9.7 9.7 0 0 0-3.329-3.394 8.7 8.7 0 0 0-4.629-1.273 8.84 8.84 0 0 0-4.628 1.273 9.56 9.56 0 0 0-3.376 3.394c-.462.78-.8 1.627-1.004 2.51m21.063-2.569.873 5.091 4.026 23.393q.048.236.237.236h5.714q.19 0 .236-.236l.531-3.724 1.878-13.199 1.877 13.199.531 3.724q.095.236.236.236h5.719l.09-.071a.46.46 0 0 0 .14-.165l4.69-27.052.32-1.809v-.024l.61-3.5c.01-.055.01-.096-.01-.124q-.045-.058-.18-.064h-5.24c-.13 0-.2.063-.24.188l-1.19 8.267-1.88 13.04-1.87-13.04-1.195-8.267q-.047-.188-.236-.188h-4.25q-.237 0-.284.188l-1.21 8.273-1.907 13.034-1.847-13.046-1.175-8.261q-.048-.188-.236-.188h-5.29q-.088 0-.129.047-.042.046-.012.141l.602 3.5.006.024zm30.498-3.418v5.162l.05 26.646c0 .22.12.33.37.33h4.73q.42 0 .42-.377l-.15-7.867-.18-9.103 3.88 8.237 4.29 9.11h4.16c.15 0 .23-.094.23-.283l-.05-32.149c0-.252-.09-.377-.28-.377h-4.67c-.29 0-.43.125-.43.377l.11 8.485.13 9.711-3.84-8.927-4.14-9.646h-4.25c-.26 0-.38.125-.38.377zm-121.443 25.751a3.3 3.3 0 0 1-2.481 1.154 3.32 3.32 0 0 1-2.502-1.107 3.77 3.77 0 0 1-1.039-2.664v-14.943a3.65 3.65 0 0 1 1.039-2.663 3.36 3.36 0 0 1 2.503-1.061 3.26 3.26 0 0 1 2.503 1.084 3.77 3.77 0 0 1 .992 2.64l.047 14.943q0 1.462-1.062 2.617m81.37 0a3.3 3.3 0 0 1-2.481 1.154 3.32 3.32 0 0 1-2.502-1.107 3.77 3.77 0 0 1-1.039-2.664v-14.943a3.65 3.65 0 0 1 1.039-2.663 3.36 3.36 0 0 1 2.503-1.061 3.24 3.24 0 0 1 2.503 1.084 3.77 3.77 0 0 1 .992 2.64l.047 14.943q0 1.462-1.062 2.617m-24.817.589h-2.928l.005-3.712.042-17.643 3.306-.047a3.44 3.44 0 0 1 2.621 1.061 3.54 3.54 0 0 1 1.109 2.616v13.576a3.995 3.995 0 0 1-1.204 2.923 3.95 3.95 0 0 1-2.951 1.226m-81.052-21.355h.343q1.51 0 2.621 1.085 1.11 1.09 1.11 2.592c.006.495-.091.986-.287 1.44a3.5 3.5 0 0 1-.847 1.2 3.655 3.655 0 0 1-2.597 1.084h-4.062v-7.401z" clip-rule="evenodd"/><defs><linearGradient id="a" x1="80.831" x2="1515.95" y1="-594.388" y2="1037.56" gradientUnits="userSpaceOnUse"><stop stop-color="#fff" stop-opacity=".67"/><stop offset=".186" stop-color="#5BB6BD" stop-opacity=".7"/><stop offset=".737" stop-color="#F5AD73" stop-opacity=".7"/><stop offset="1" stop-color="#fff"/></linearGradient><linearGradient id="d" x1="634.612" x2="1041.8" y1="180.117" y2="307.428" gradientUnits="userSpaceOnUse"><stop stop-color="#46AFFA"/><stop offset=".685" stop-color="#FFCB6B"/><stop offset="1" stop-color="#FFA600"/></linearGradient><linearGradient id="e" x1="628.848" x2="1052.85" y1="358.341" y2="358.341" gradientUnits="userSpaceOnUse"><stop stop-color="#6698BE"/><stop offset="1" stop-color="#B7783A"/></linearGradient><linearGradient id="f" x1="628.848" x2="840.848" y1="411.341" y2="411.341" gradientUnits="userSpaceOnUse"><stop stop-color="#6698BE"/><stop offset="1" stop-color="#B7783A"/></linearGradient><filter id="b" width="320.847" height="356.335" x="132.005" y="136.084" color-interpolation-filters="sRGB" filterUnits="userSpaceOnUse"><feFlood flood-opacity="0" result="BackgroundImageFix"/><feColorMatrix in="SourceAlpha" result="hardAlpha" values="0 0 0 0 0 0 0 0 0 0 0 0 0 0 0 0 0 0 127 0"/><feOffset dx="-4" dy="1"/><feGaussianBlur stdDeviation="5"/><feComposite in2="hardAlpha" operator="out"/><feColorMatrix values="0 0 0 0 0 0 0 0 0 0 0 0 0 0 0 0 0 0 0.05 0"/><feBlend in2="BackgroundImageFix" result="effect1_dropShadow_2_55"/><feBlend in="SourceGraphic" in2="effect1_dropShadow_2_55" result="shape"/></filter><filter id="c" width="417.922" height="121.186" x="624.848" y="180.143" color-interpolation-filters="sRGB" filterUnits="userSpaceOnUse"><feFlood flood-opacity="0" result="BackgroundImageFix"/><feColorMatrix in="SourceAlpha" result="hardAlpha" values="0 0 0 0 0 0 0 0 0 0 0 0 0 0 0 0 0 0 127 0"/><feOffset dy="2"/><feGaussianBlur stdDeviation="2"/><feComposite in2="hardAlpha" operator="out"/><feColorMatrix values="0 0 0 0 0 0 0 0 0 0 0 0 0 0 0 0 0 0 0.25 0"/><feBlend in2="BackgroundImageFix" result="effect1_dropShadow_2_55"/><feBlend in="SourceGraphic" in2="effect1_dropShadow_2_55" result="shape"/></filter></defs></svg>