<svg xmlns="http://www.w3.org/2000/svg" xmlns:xlink="http://www.w3.org/1999/xlink" width="217" height="93"
  viewBox="0 0 217 93" fill="none">
  <path fill="url(#linear_fill_5_1_0)" fill-opacity="0.45" d="M0 93L217 93L217 0L0 0L0 93Z">
  </path>
  <g filter="url(#filter_5_4)">
    <path fill="#BABABA"
      d="M38.21 24.0501C42.859 18.7528 56.793 16.8279 60.37 18.6901C63.947 20.5522 74.9569 34.7384 72.89 38.2201C69.4337 44.0422 63.5475 48.3142 62.46 49.1601C61.2062 47.1384 53.3443 50.569 55.14 54.2201C55.2767 55.7536 47.4871 59.4652 43.9394 59.772C43.6393 59.8469 43.3611 59.8502 43.11 59.7701C38.4896 59.1976 30.2231 49.6304 29.23 45.7501C27.4548 38.8136 36.496 26.0031 38.21 24.0501Z">
    </path>
    <path stroke="rgba(107, 107, 107, 0.78)" stroke-width="1"
      d="M38.2065 24.0523C42.8556 18.755 56.796 16.8312 60.373 18.6933C63.95 20.5554 74.9537 34.7392 72.8868 38.2208M38.2065 24.0523C36.4925 26.0053 27.4556 38.8087 29.2307 45.7452C30.2238 49.6255 38.4856 59.201 43.1059 59.7735M38.2065 24.0523C46.7197 39.939 55.9116 45.3557 55.1429 46.4306M72.8868 38.2208C69.4305 44.043 63.5448 48.311 62.4574 49.1569C61.2036 47.1352 53.3472 50.5687 55.1429 54.2198C55.2916 55.8882 46.0513 60.1385 43.1059 59.7735M72.8868 38.2208L55.1429 46.4306M43.1059 59.7735C46.4023 60.8249 54.3742 47.5056 55.1429 46.4306">
    </path>
    <path
      d="M55.1562 54.2009C53.6608 50.4072 61.0357 47.1891 62.4629 49.138L78.9916 67.0687C77.9571 65.1829 68.225 70.7675 70.1466 74.079L55.1562 54.2009Z"
      stroke="rgba(122, 85, 15, 1)" stroke-width="1" fill="#D1A656">
    </path>
    <path
      d="M69.7641 73.2999C70.3589 76.8877 81.1832 70.8762 78.9937 67.0685C78.7101 65.0934 69.4464 70.0508 69.7641 73.2999Z"
      stroke="rgba(122, 85, 15, 1)" stroke-width="1" fill="#B87E44">
    </path>
    <path
      d="M45.9488 27.1189C44.9192 24.0053 59.1997 21.7709 59.2179 23.0203C60.9496 23.308 68.3565 34.3904 67.3352 34.2216C67.3834 36.2625 57.8681 40.524 55.9764 39.6991C54.8928 39.6991 47.8482 32.8632 45.9488 27.1189Z"
      stroke="rgba(69, 106, 191, 1)" stroke-width="1" fill="#89A5E8">
    </path>
    <path stroke="rgba(255, 255, 255, 1)" stroke-width="1" stroke-linecap="round"
      d="M59.655 33.2148C59.6956 33.3571 59.7217 33.4475 59.7333 33.4861C59.745 33.5246 59.7548 33.5545 59.7626 33.5757C59.7703 33.5969 59.7764 33.6134 59.7806 33.6252C59.7849 33.637 59.7899 33.649 59.7956 33.6611C59.8012 33.6733 59.8074 33.6884 59.814 33.7065C59.8206 33.7247 59.8285 33.7435 59.8375 33.7629C59.8467 33.7823 59.8557 33.8008 59.8645 33.8182C59.8734 33.8357 59.8822 33.8522 59.891 33.8678C59.8998 33.8833 59.9091 33.8995 59.9188 33.9164C59.9286 33.9333 59.9387 33.9501 59.9491 33.9668C59.9595 33.9835 59.9711 34.0024 59.9841 34.0236C59.997 34.0448 60.0088 34.0647 60.0194 34.0832C60.0301 34.1017 60.0402 34.1186 60.0498 34.1336C60.0594 34.1486 60.0682 34.1618 60.0761 34.173C60.0838 34.1842 60.0908 34.1941 60.097 34.2026C60.1031 34.2111 60.1107 34.2226 60.1198 34.237C60.129 34.2514 60.1375 34.2659 60.1455 34.2804C60.1536 34.295 60.1623 34.3099 60.1718 34.3254C60.1813 34.3409 60.1913 34.3583 60.2016 34.3776C60.2118 34.3968 60.2218 34.4165 60.2315 34.4367C60.2413 34.4568 60.2521 34.4804 60.2641 34.5073C60.2761 34.5342 60.2886 34.5618 60.3014 34.5901C60.3143 34.6185 60.3273 34.6465 60.3405 34.6742C60.3536 34.7018 60.3668 34.7286 60.3798 34.7544C60.3928 34.7803 60.4042 34.8047 60.4141 34.8279C60.4239 34.8509 60.4342 34.8751 60.445 34.9006C60.4557 34.926 60.4659 34.9499 60.4757 34.9723C60.4855 34.9946 60.4949 35.0146 60.5041 35.0325C60.5133 35.0503 60.5228 35.0681 60.5328 35.0861C60.5427 35.1041 60.553 35.1234 60.5635 35.144C60.5741 35.1647 60.5842 35.1847 60.594 35.2041C60.6038 35.2235 60.6141 35.2451 60.6248 35.2688C60.6354 35.2925 60.6457 35.314 60.6553 35.3334C60.665 35.3528 60.6744 35.3718 60.6837 35.3905C60.6931 35.4093 60.7024 35.4281 60.7117 35.4469C60.721 35.4656 60.7302 35.4843 60.7394 35.5028C60.7485 35.5213 60.758 35.5392 60.768 35.5563C60.778 35.5735 60.7883 35.592 60.7988 35.6121C60.8093 35.6321 60.8194 35.6512 60.829 35.6692C60.8387 35.6872 60.8494 35.7077 60.861 35.7307C60.8726 35.7537 60.8835 35.7753 60.8936 35.7957C60.9036 35.816 60.9123 35.8329 60.9194 35.8465C60.9266 35.8602 60.9343 35.875 60.9425 35.8912C60.9507 35.9074 60.9592 35.9237 60.9679 35.9401C60.9766 35.9565 60.9848 35.9722 60.9925 35.9871C61.0001 36.0021 61.0081 36.0173 61.0163 36.0328C61.0246 36.0483 61.0319 36.0617 61.0383 36.0733C61.0447 36.0849 61.0507 36.0949 61.0562 36.1036C61.0616 36.1122 61.0665 36.1202 61.0707 36.1276C61.0749 36.135 61.0783 36.1413 61.081 36.1463C61.0837 36.1514 61.0862 36.1558 61.0882 36.1598C61.0903 36.1638 61.0926 36.1676 61.0953 36.1711C61.098 36.1746 61.1004 36.179 61.1025 36.1842C61.1045 36.1894 61.107 36.1945 61.1097 36.1995C61.1124 36.2046 61.1153 36.21 61.1183 36.2159C61.1213 36.2217 61.1239 36.2273 61.1262 36.2327C61.1284 36.238 61.1308 36.2447 61.1337 36.2529C61.1365 36.2611 61.1391 36.2682 61.1412 36.2745C61.1433 36.2808 61.1453 36.2867 61.1471 36.2921C61.1489 36.2977 61.1516 36.304 61.1551 36.3111C61.1587 36.3182 61.1657 36.337 61.1761 36.3673C61.1865 36.3977 61.1955 36.4241 61.2032 36.4465">
    </path>
    <path stroke="rgba(255, 255, 255, 1)" stroke-width="1" stroke-linecap="round"
      d="M57.8176 33.7987C57.9443 33.7209 58.0263 33.6705 58.0636 33.6474C58.1009 33.6242 58.134 33.6032 58.163 33.5841C58.192 33.5651 58.2223 33.5462 58.254 33.5273C58.2857 33.5085 58.3141 33.4913 58.3392 33.4756C58.3643 33.46 58.392 33.4437 58.4222 33.4267C58.4525 33.4098 58.4823 33.3934 58.5119 33.3777C58.5415 33.362 58.5723 33.3456 58.6043 33.3286C58.6363 33.3117 58.6666 33.2956 58.6953 33.2803C58.7239 33.265 58.7535 33.2494 58.7842 33.2336C58.8149 33.2178 58.845 33.2019 58.8743 33.1861C58.9036 33.1703 58.9332 33.1548 58.963 33.1398C58.9928 33.1246 59.0209 33.1101 59.0474 33.0964C59.0739 33.0825 59.1006 33.0689 59.1277 33.0554C59.1547 33.0419 59.1835 33.0276 59.2139 33.0122C59.2444 32.9969 59.2722 32.9827 59.2974 32.9696C59.3225 32.9565 59.3503 32.9415 59.3807 32.9246C59.411 32.9077 59.4413 32.891 59.4716 32.8746C59.502 32.8582 59.5299 32.8434 59.5553 32.8305C59.5806 32.8176 59.6074 32.8037 59.6356 32.7889C59.6639 32.7741 59.6915 32.7599 59.7188 32.7464C59.7459 32.7328 59.7726 32.7198 59.7988 32.7075C59.8249 32.6951 59.8514 32.6833 59.8781 32.6722C59.9048 32.661 59.9323 32.6492 59.9604 32.6368C59.9884 32.6243 60.0168 32.6121 60.0454 32.6C60.074 32.588 60.1025 32.576 60.131 32.5644C60.1594 32.5527 60.1884 32.5414 60.2179 32.5306C60.2473 32.5197 60.2762 32.5091 60.3043 32.4985C60.3325 32.488 60.3575 32.4786 60.3796 32.4702C60.4017 32.4617 60.4236 32.4529 60.4454 32.4438C60.4671 32.4347 60.4873 32.4262 60.5058 32.4185C60.5242 32.4108 60.5427 32.4033 60.5613 32.3961C60.5798 32.389 60.5984 32.3819 60.617 32.3749C60.6357 32.368 60.6533 32.3612 60.67 32.3546C60.6867 32.3479 60.7016 32.3421 60.7144 32.337C60.7273 32.3319 60.7381 32.328 60.747 32.3252C60.7557 32.3223 60.7648 32.3195 60.7742 32.317C60.7836 32.3144 60.7948 32.3104 60.8077 32.3047C60.8206 32.299 60.8339 32.2927 60.8477 32.2857C60.8615 32.2787 60.8845 32.2669 60.9168 32.2501C60.949 32.2335 60.9771 32.219 61.0009 32.2066">
    </path>
    <path stroke="rgba(255, 255, 255, 1)" stroke-width="1" stroke-linecap="round"
      d="M63.8085 31.2853C63.7107 31.2364 63.6474 31.2053 63.6187 31.192C63.5899 31.1786 63.5659 31.1675 63.5466 31.1587C63.5273 31.15 63.5094 31.1422 63.4929 31.1353C63.4765 31.1285 63.457 31.1219 63.4346 31.1156C63.4122 31.1093 63.3921 31.1043 63.3743 31.1006C63.3566 31.0969 63.3392 31.0943 63.3225 31.0927C63.3056 31.0912 63.2878 31.0901 63.2689 31.0894C63.2501 31.0887 63.2275 31.0882 63.2012 31.0879C63.175 31.0877 63.149 31.088 63.1233 31.089C63.0976 31.09 63.0657 31.0955 63.0278 31.1054C62.9899 31.1153 62.954 31.1278 62.92 31.1428C62.886 31.1579 62.8524 31.1751 62.8192 31.1946C62.7859 31.214 62.7556 31.2335 62.7281 31.253C62.7006 31.2725 62.6742 31.2943 62.649 31.3185C62.6239 31.3425 62.6015 31.3653 62.582 31.3866C62.5624 31.408 62.5413 31.4334 62.5186 31.463C62.4959 31.4927 62.4724 31.5262 62.448 31.5636C62.4236 31.6011 62.4009 31.6361 62.3799 31.6687C62.3589 31.7014 62.3387 31.7353 62.3192 31.7704C62.2998 31.8055 62.2825 31.8409 62.2674 31.8765C62.2523 31.9121 62.2398 31.9451 62.2299 31.9754C62.22 32.0057 62.2106 32.0392 62.2016 32.0758C62.1926 32.1123 62.185 32.1505 62.1788 32.1902C62.1725 32.23 62.1676 32.271 62.1639 32.3131C62.1601 32.3553 62.1575 32.3985 62.1559 32.443C62.1542 32.4875 62.1532 32.5316 62.1525 32.5753C62.1518 32.6189 62.1513 32.6609 62.151 32.7012C62.1508 32.7414 62.1547 32.7827 62.1628 32.8251C62.1709 32.8673 62.1812 32.9074 62.1938 32.9452C62.2063 32.9829 62.2198 33.0173 62.2344 33.0483C62.2488 33.0793 62.2669 33.1117 62.2887 33.1455C62.3105 33.1794 62.3303 33.2091 62.3483 33.2345C62.3664 33.26 62.3827 33.2822 62.3974 33.3012C62.4121 33.3203 62.4249 33.3358 62.436 33.3477C62.4471 33.3597 62.4579 33.3702 62.4684 33.3792C62.479 33.3881 62.4889 33.396 62.4981 33.4026C62.5074 33.4093 62.5185 33.4156 62.5317 33.4215C62.5447 33.4275 62.56 33.4334 62.5776 33.4392C62.5951 33.4449 62.6151 33.4507 62.6376 33.4564C62.6602 33.4621 62.6792 33.4662 62.6946 33.4686C62.7101 33.471 62.7275 33.4728 62.7466 33.4738C62.7658 33.4748 62.7867 33.4755 62.8095 33.476C62.8323 33.4764 62.8595 33.4755 62.8909 33.4734C62.9224 33.4713 62.9528 33.467 62.9822 33.4604C63.0115 33.4538 63.0429 33.4456 63.0764 33.4357C63.1098 33.4258 63.1427 33.4147 63.1749 33.4025C63.2071 33.3902 63.2411 33.3757 63.2767 33.3588C63.3123 33.3419 63.3522 33.3234 63.3965 33.3034C63.4406 33.2834 63.4828 33.264 63.5229 33.2454C63.563 33.2267 63.6055 33.2084 63.6505 33.1907C63.6955 33.1729 63.7392 33.1567 63.7817 33.1421C63.8242 33.1274 63.8656 33.1158 63.9061 33.1072C63.9466 33.0985 63.9872 33.0906 64.0277 33.0833C64.0682 33.0761 64.1103 33.0691 64.1538 33.0623C64.1973 33.0555 64.2355 33.0496 64.2685 33.0444C64.3015 33.0393 64.332 33.035 64.3601 33.0318C64.3882 33.0285 64.414 33.0256 64.4376 33.0231C64.4611 33.0207 64.4854 33.0189 64.5105 33.0178C64.5356 33.0168 64.5594 33.016 64.5819 33.0157C64.6045 33.0152 64.6252 33.0149 64.6444 33.0146C64.6635 33.0145 64.6795 33.0143 64.6923 33.0143C64.7052 33.0142 64.7154 33.0142 64.7227 33.0141C64.73 33.014 64.7357 33.014 64.7396 33.014C64.7436 33.014 64.7522 33.0167 64.7654 33.0219C64.7786 33.0271 64.7946 33.0342 64.8134 33.0431C64.8323 33.0521 64.8507 33.0615 64.8689 33.0714C64.887 33.0814 64.9018 33.0899 64.9133 33.097C64.9247 33.104 64.9343 33.1104 64.9419 33.1162C64.9495 33.122 64.9567 33.128 64.9637 33.1342C64.9707 33.1404 64.9785 33.1473 64.9873 33.1548C64.9961 33.1624 65.0037 33.1692 65.0102 33.1752C65.0167 33.1812 65.0228 33.189 65.0286 33.1987C65.0343 33.2084 65.041 33.2211 65.0487 33.2369C65.0563 33.2528 65.0649 33.27 65.0744 33.2884C65.0839 33.3069 65.0933 33.3266 65.1026 33.3475C65.1119 33.3684 65.1201 33.3916 65.1273 33.4171C65.1344 33.4426 65.1396 33.4668 65.1426 33.4896C65.1456 33.5125 65.1478 33.5364 65.1491 33.5612C65.1504 33.5861 65.1513 33.6115 65.1519 33.6376C65.1524 33.6638 65.1528 33.6909 65.153 33.7189C65.1532 33.747 65.1511 33.7754 65.1466 33.8043C65.1423 33.8332 65.1356 33.8644 65.1266 33.8979C65.1177 33.9314 65.1084 33.9634 65.0988 33.994C65.0892 34.0246 65.0775 34.0596 65.0639 34.0993C65.0502 34.1389 65.0358 34.1759 65.0206 34.2104C65.0056 34.2449 64.9888 34.2799 64.9703 34.3154C64.9517 34.3508 64.9279 34.3904 64.8989 34.4341C64.8699 34.4778 64.8422 34.516 64.816 34.5487C64.7898 34.5815 64.7635 34.6113 64.7373 34.6381C64.7111 34.665 64.6822 34.6926 64.6508 34.7209C64.6195 34.7491 64.5895 34.7734 64.5608 34.7938C64.5322 34.8141 64.4969 34.837 64.4552 34.8624C64.4134 34.8879 64.3757 34.9094 64.342 34.927C64.3082 34.9447 64.2709 34.9616 64.2299 34.9777C64.1889 34.9937 64.1481 35.0076 64.1072 35.0193C64.0665 35.0311 64.0258 35.0419 63.9851 35.0516C63.9445 35.0613 63.908 35.0694 63.8756 35.0758C63.8433 35.0823 63.8093 35.0873 63.7736 35.0912C63.7378 35.095 63.7007 35.0989 63.6622 35.1028C63.6237 35.1068 63.5871 35.1102 63.5525 35.1131C63.5179 35.1159 63.4868 35.1184 63.4592 35.1207C63.4317 35.1229 63.4058 35.1251 63.3815 35.1271C63.3571 35.1292 63.3325 35.1306 63.3076 35.1314C63.2827 35.1323 63.2554 35.1335 63.2258 35.135C63.1962 35.1365 63.1683 35.1381 63.1421 35.1399C63.1159 35.1417 63.087 35.143 63.0554 35.1437C63.0237 35.1445 62.9935 35.1451 62.9649 35.1454C62.9363 35.1457 62.9114 35.1454 62.8901 35.1445C62.869 35.1437 62.8514 35.143 62.8374 35.1426C62.8235 35.1422 62.8089 35.1414 62.7939 35.1402C62.7789 35.1391 62.7571 35.133 62.7283 35.122C62.6995 35.111 62.6745 35.1015 62.6532 35.0934">
    </path>
    <path
      d="M42.0119 38.1327C42.9213 37.1312 46.1833 41.1165 45.5165 42.3038C44.4558 44.1924 41.365 46.8433 41.365 47.6328C41.365 48.4222 42.9158 48.91 42.9158 50.3723C42.9159 51.1466 36.7481 50.4411 36.7598 49.9789C36.2775 49.6214 35.3454 45.0103 35.5262 42.6337C35.7071 40.257 38.0295 44.7878 38.4007 44.1924C40.6161 40.6391 41.1025 39.1341 42.0119 38.1327Z"
      stroke="rgba(184, 151, 61, 1)" stroke-width="1" fill="#FCD056">
    </path>
  </g>
  <path stroke="rgba(166, 166, 166, 0.49)" stroke-width="0.4" d="M93.0406 22.8001L93.0406 46.2003L93.0406 69.6004">
  </path>
  <g>
    <g filter="url(#filter_5_19)">
      <path fill="url(#linear_fill_5_19_0)"
        d="M110.36 42.2Q110.264 42.2 110.264 42.08L110.264 28.4L107.144 28.4Q107.024 28.4 107.024 28.28L107.048 25.592Q107.048 25.496 107.144 25.496L116.264 25.496Q116.384 25.496 116.384 25.592L116.384 28.28Q116.384 28.4 116.288 28.4L113.144 28.4L113.168 42.08Q113.168 42.2 113.072 42.2L110.36 42.2ZM121.64 42.44Q120.344 42.44 119.276 41.78Q118.208 41.12 117.572 40.028Q116.936 38.936 116.936 37.616L116.936 36.512Q116.936 36.392 117.056 36.392L119.744 36.392Q119.84 36.392 119.84 36.512L119.84 37.616Q119.84 38.408 120.368 38.972Q120.896 39.536 121.64 39.536Q122.384 39.536 122.912 38.96Q123.44 38.384 123.44 37.616Q123.44 36.728 122.288 36.08Q121.904 35.864 121.088 35.408Q120.272 34.952 119.552 34.544Q118.232 33.776 117.596 32.612Q116.96 31.448 116.96 29.984Q116.96 28.64 117.608 27.572Q118.256 26.504 119.324 25.88Q120.392 25.256 121.64 25.256Q122.912 25.256 123.98 25.892Q125.048 26.528 125.684 27.596Q126.32 28.664 126.32 29.984L126.32 31.952Q126.32 32.048 126.224 32.048L123.536 32.048Q123.44 32.048 123.44 31.952L123.416 29.984Q123.416 29.144 122.888 28.616Q122.36 28.088 121.64 28.088Q120.896 28.088 120.368 28.652Q119.84 29.216 119.84 29.984Q119.84 30.776 120.176 31.304Q120.512 31.832 121.4 32.312Q121.52 32.384 121.868 32.564Q122.216 32.744 122.624 32.972Q123.032 33.2 123.356 33.368Q123.68 33.536 123.752 33.584Q124.952 34.256 125.648 35.228Q126.344 36.2 126.344 37.616Q126.344 38.984 125.708 40.076Q125.072 41.168 124.004 41.804Q122.936 42.44 121.64 42.44ZM128.144 42.2Q128.024 42.2 128.024 42.08L128.072 25.592Q128.072 25.496 128.168 25.496L132.656 25.472Q133.976 25.448 135.068 26.096Q136.16 26.744 136.808 27.836Q137.456 28.928 137.456 30.248L137.456 37.136Q137.456 38.528 136.784 39.668Q136.112 40.808 134.984 41.48Q133.856 42.152 132.44 42.176L128.144 42.2ZM130.952 39.248L132.44 39.248Q133.328 39.248 133.94 38.624Q134.552 38 134.552 37.136L134.552 30.224Q134.552 29.456 133.988 28.892Q133.424 28.328 132.656 28.352L130.976 28.376L130.952 39.248ZM143.792 42.44Q142.496 42.44 141.428 41.78Q140.36 41.12 139.712 40.028Q139.064 38.936 139.064 37.616L139.088 30.008Q139.088 28.688 139.724 27.608Q140.36 26.528 141.44 25.88Q142.52 25.232 143.792 25.232Q145.088 25.232 146.144 25.88Q147.2 26.528 147.836 27.608Q148.472 28.688 148.472 30.008L148.496 37.616Q148.496 38.936 147.86 40.028Q147.224 41.12 146.156 41.78Q145.088 42.44 143.792 42.44ZM143.792 39.536Q144.512 39.536 145.052 38.948Q145.592 38.36 145.592 37.616L145.568 30.008Q145.568 29.216 145.064 28.664Q144.56 28.112 143.792 28.112Q143.048 28.112 142.52 28.652Q141.992 29.192 141.992 30.008L141.992 37.616Q141.992 38.408 142.52 38.972Q143.048 39.536 143.792 39.536ZM152.528 42.2Q152.432 42.2 152.408 42.08L149.576 25.592Q149.552 25.496 149.648 25.496L152.336 25.496Q152.432 25.496 152.456 25.592L153.992 36.44L155.576 25.592Q155.6 25.496 155.72 25.496L157.88 25.496Q157.976 25.496 158 25.592L159.56 36.44L161.12 25.592Q161.144 25.496 161.24 25.496L163.904 25.496Q164.024 25.496 164 25.592L161.144 42.08Q161.12 42.128 161.072 42.164Q161.024 42.2 161.024 42.2L158.12 42.2Q158.048 42.2 158 42.08L156.776 33.464L155.552 42.08Q155.528 42.2 155.432 42.2L152.528 42.2ZM165.632 42.2Q165.44 42.2 165.44 42.032L165.416 25.688Q165.416 25.496 165.608 25.496L167.768 25.496L171.824 34.952L171.704 25.688Q171.704 25.496 171.92 25.496L174.296 25.496Q174.44 25.496 174.44 25.688L174.464 42.056Q174.464 42.2 174.344 42.2L172.232 42.2L168.08 33.368L168.248 42.008Q168.248 42.2 168.032 42.2L165.632 42.2Z">
      </path>
      <path fill-rule="evenodd" fill="rgba(163, 89, 3, 1)"
        d="M138.852,40.5383c-0.30467,-0.51387 -0.521,-1.0577 -0.649,-1.6315c-0.13333,0.4418 -0.31933,0.8648 -0.558,1.269c-0.534,0.90693 -1.25033,1.62803 -2.149,2.1633c-0.90467,0.53887 -1.91767,0.8178 -3.039,0.8368l-4.307,0.0241h-0.006c-0.316,0 -0.58167,-0.10763 -0.797,-0.3229c-0.21533,-0.21527 -0.323,-0.48097 -0.323,-0.7971l0.007,-2.5055c-0.11867,0.34867 -0.27167,0.6836 -0.459,1.0048c-0.51067,0.87707 -1.196,1.5717 -2.056,2.0839c-0.87,0.51787 -1.82867,0.7768 -2.876,0.7768c-1.05333,0 -2.01667,-0.26977 -2.89,-0.8093c-0.85333,-0.5276 -1.534,-1.2274 -2.042,-2.0994c-0.51467,-0.88353 -0.772,-1.8553 -0.772,-2.9153v-1.104c0,-0.31613 0.10767,-0.58183 0.323,-0.7971c0.21533,-0.21527 0.481,-0.3229 0.797,-0.3229h1.965c-1.02867,-0.6066 -1.79633,-1.37343 -2.303,-2.3005c-0.50533,-0.9254 -0.758,-1.96123 -0.758,-3.1075c0,-0.1982 0.009,-0.39287 0.027,-0.584h-1.841l0.022,12.6783c0,0.275 -0.081,0.5138 -0.243,0.7164c-0.216,0.2702 -0.50033,0.4053 -0.853,0.4053h-2.712c-0.35267,0 -0.637,-0.1351 -0.853,-0.4053c-0.162,-0.2026 -0.243,-0.44083 -0.243,-0.7147v-12.68h-2.12c-0.316,0 -0.58167,-0.10763 -0.797,-0.3229c-0.21533,-0.21527 -0.323,-0.48097 -0.323,-0.7971l0.024,-2.6969c0,-0.3022 0.10567,-0.55893 0.317,-0.7702c0.21133,-0.21127 0.471,-0.3169 0.779,-0.3169h9.12c0.274,0 0.51233,0.08107 0.715,0.2432c0.27,0.21613 0.405,0.5004 0.405,0.8528v0.6009c0.41,-0.4644 0.88867,-0.8565 1.436,-1.1763c0.86733,-0.50707 1.80733,-0.7606 2.82,-0.7606c1.03133,0 1.982,0.25893 2.852,0.7768c0.85667,0.51047 1.54033,1.19433 2.051,2.0516c0.22067,0.37067 0.39433,0.75893 0.521,1.1648l0.008,-2.6601c0,-0.3062 0.10567,-0.56493 0.317,-0.7762c0.21133,-0.21127 0.471,-0.3169 0.779,-0.3169l4.483,-0.024c1.06067,-0.01933 2.03633,0.23533 2.927,0.764c0.87467,0.51887 1.57133,1.21543 2.09,2.0897c0.25,0.42167 0.44067,0.86343 0.572,1.3253c0.12733,-0.5452 0.33467,-1.062 0.622,-1.5504c0.51,-0.86613 1.198,-1.55883 2.064,-2.0781c0.878,-0.527 1.83333,-0.7905 2.866,-0.7905c1.052,0 2.01033,0.26523 2.875,0.7957c0.84533,0.51887 1.52233,1.20983 2.031,2.0729c0.06333,0.10807 0.123,0.21757 0.179,0.3285l-0.282,-1.6424c-0.068,-0.32067 -0.00567,-0.60957 0.187,-0.8667c0.212,-0.28267 0.50067,-0.424 0.866,-0.424h2.688c0.266,0 0.50033,0.08107 0.703,0.2432c0.19533,0.15653 0.32433,0.35997 0.387,0.6103c0.009,0.0337 0.015,0.0679 0.02,0.1023l0.561,3.9628l0.58,-3.9671c0.004,-0.0329 0.011,-0.0657 0.019,-0.098c0.07067,-0.28207 0.225,-0.50257 0.463,-0.6615c0.192,-0.128 0.409,-0.192 0.651,-0.192h2.16c0.266,0 0.50033,0.08107 0.703,0.2432c0.19533,0.15653 0.32433,0.35997 0.387,0.6103c0.008,0.033 0.015,0.0665 0.02,0.1002l0.57,3.9649l0.57,-3.9649c0.005,-0.0337 0.012,-0.0672 0.02,-0.1002c0.06267,-0.25033 0.19167,-0.45377 0.387,-0.6103c0.20267,-0.16213 0.437,-0.2432 0.703,-0.2432h2.664c0.316,0 0.57967,0.10563 0.791,0.3169c0.01467,0.01453 0.02867,0.02923 0.042,0.0441c0.00667,-0.00673 0.01333,-0.01343 0.02,-0.0201c0.22733,-0.22727 0.511,-0.3409 0.851,-0.3409h2.16c0.4,0 0.761,0.2383 0.919,0.6058l2.072,4.8303l-0.055,-4.2311c0,-0.372 0.13,-0.67347 0.39,-0.9044c0.22533,-0.2004 0.50067,-0.3006 0.826,-0.3006h2.376c0.38133,0 0.684,0.14933 0.908,0.448c0.15733,0.2098 0.236,0.4578 0.236,0.744l0.024,16.3666c0,0.29033 -0.08733,0.5402 -0.262,0.7496c-0.22,0.26387 -0.506,0.3958 -0.858,0.3958h-2.112c-0.387,0 -0.74,-0.2238 -0.905,-0.5745l-2.156,-4.5862l0.077,3.9493c0,0.37633 -0.13,0.67993 -0.39,0.9108c-0.22533,0.2004 -0.50067,0.3006 -0.826,0.3006h-2.4c-0.31467,0 -0.58233,-0.09647 -0.803,-0.2894c-0.25933,-0.2272 -0.389,-0.52007 -0.389,-0.8786l-0.019,-13.0108l-2.292,13.2295c-0.016,0.0961 -0.047,0.1893 -0.091,0.2765c-0.086,0.1728 -0.208,0.3184 -0.366,0.4368l-0.048,0.036c-0.173,0.1298 -0.384,0.2 -0.6,0.2h-2.904c-0.3,0 -0.55767,-0.10763 -0.773,-0.3229c-0.11667,-0.11673 -0.20833,-0.25863 -0.275,-0.4257c-0.03,-0.0742 -0.051,-0.1516 -0.062,-0.2307l-0.234,-1.6468l-0.234,1.6468c-0.003,0.0186 -0.006,0.0371 -0.009,0.0555c-0.048,0.23787 -0.15333,0.43817 -0.316,0.6009c-0.21533,0.21527 -0.477,0.3229 -0.785,0.3229h-2.904c-0.308,0 -0.56967,-0.10763 -0.785,-0.3229c-0.16267,-0.16273 -0.268,-0.36307 -0.316,-0.601c-0.001,-0.0089 -0.003,-0.0178 -0.005,-0.0268l-1.947,-11.3389l0.021,6.7025c0,1.06207 -0.25733,2.03487 -0.772,2.9184c-0.508,0.872 -1.18867,1.5718 -2.042,2.0994c-0.87333,0.53953 -1.83667,0.8093 -2.89,0.8093c-1.05333,0 -2.01667,-0.26977 -2.89,-0.8093c-0.85133,-0.52607 -1.53467,-1.22353 -2.05,-2.0924zM127.042,35.7577l0.009,-3.0777c-0.01533,0.01733 -0.03133,0.03437 -0.048,0.0511c-0.21133,0.21127 -0.471,0.3169 -0.779,0.3169h-1.435c0.67733,0.45427 1.23467,0.98687 1.672,1.5978c0.24467,0.3416 0.43833,0.71223 0.581,1.1119zM122.437,31.733l-0.021,-1.7368c0,-0.292 -0.07833,-0.51637 -0.235,-0.6731c-0.15667,-0.15673 -0.337,-0.2351 -0.541,-0.2351c-0.20667,0 -0.38733,0.08247 -0.542,0.2474c-0.172,0.1838 -0.258,0.4 -0.258,0.6486c0,0.33387 0.06,0.5949 0.18,0.7831c0.13067,0.20587 0.416,0.4276 0.856,0.6652c0.013,0.0071 0.026,0.0145 0.038,0.0222c0.062,0.0372 0.19967,0.11097 0.413,0.2213c0.03667,0.01873 0.07333,0.0378 0.11,0.0572zM123.752,33.584c-0.048,-0.032 -0.18,-0.104 -0.396,-0.216c-0.216,-0.112 -0.46,-0.244 -0.732,-0.396c-0.272,-0.152 -0.524,-0.288 -0.756,-0.408c-0.232,-0.12 -0.388,-0.204 -0.468,-0.252c-0.592,-0.32 -1,-0.656 -1.224,-1.008c-0.224,-0.352 -0.336,-0.792 -0.336,-1.32c0,-0.512 0.176,-0.956 0.528,-1.332c0.352,-0.376 0.776,-0.564 1.272,-0.564c0.48,0 0.896,0.176 1.248,0.528c0.352,0.352 0.528,0.808 0.528,1.368l0.024,1.968c0,0.064 0.032,0.096 0.096,0.096h2.688c0.064,0 0.096,-0.032 0.096,-0.096v-1.968c0,-0.88 -0.212,-1.676 -0.636,-2.388c-0.424,-0.712 -0.992,-1.28 -1.704,-1.704c-0.712,-0.424 -1.492,-0.636 -2.34,-0.636c-0.832,0 -1.604,0.208 -2.316,0.624c-0.712,0.416 -1.284,0.98 -1.716,1.692c-0.08267,0.13607 -0.15733,0.2755 -0.224,0.4183c-0.16533,0.3536 -0.28233,0.72783 -0.351,1.1227c-0.04867,0.28 -0.073,0.57033 -0.073,0.871c0,0.976 0.212,1.852 0.636,2.628c0.424,0.776 1.076,1.42 1.956,1.932c0.48,0.272 0.992,0.56 1.536,0.864c0.544,0.304 0.944,0.528 1.2,0.672c0.768,0.432 1.152,0.944 1.152,1.536c0,0.512 -0.176,0.96 -0.528,1.344c-0.352,0.384 -0.776,0.576 -1.272,0.576c-0.496,0 -0.92,-0.188 -1.272,-0.564c-0.352,-0.376 -0.528,-0.828 -0.528,-1.356v-1.104c0,-0.08 -0.032,-0.12 -0.096,-0.12h-2.688c-0.08,0 -0.12,0.04 -0.12,0.12v1.104c0,0.88 0.212,1.684 0.636,2.412c0.424,0.728 0.992,1.312 1.704,1.752c0.712,0.44 1.5,0.66 2.364,0.66c0.864,0 1.652,-0.212 2.364,-0.636c0.712,-0.424 1.28,-1 1.704,-1.728c0.424,-0.728 0.636,-1.548 0.636,-2.46c0,-0.944 -0.232,-1.74 -0.696,-2.388c-0.464,-0.648 -1.096,-1.196 -1.896,-1.644zM120.836,36.4132c0.00267,0.0324 0.004,0.06533 0.004,0.0988v1.104c0,0.26467 0.086,0.48887 0.258,0.6726c0.15467,0.16493 0.33533,0.2474 0.542,0.2474c0.20267,0 0.381,-0.0839 0.535,-0.2517c0.17667,-0.19287 0.265,-0.41563 0.265,-0.6683c0,-0.20207 -0.214,-0.42353 -0.642,-0.6644zM116.169,28.4h0.119c0.064,0 0.096,-0.04 0.096,-0.12v-2.688c0,-0.064 -0.04,-0.096 -0.12,-0.096h-9.12c-0.064,0 -0.096,0.032 -0.096,0.096l-0.024,2.688c0,0.08 0.04,0.12 0.12,0.12h3.12v13.68c0,0.08 0.032,0.12 0.096,0.12h2.712c0.064,0 0.096,-0.04 0.096,-0.12l-0.022,-12.68l-0.002,-0.9997v-0.0003zM149.576,25.592l0.155,0.9008v0.0032l2.677,15.584c0.016,0.08 0.056,0.12 0.12,0.12h2.904c0.064,0 0.104,-0.04 0.12,-0.12l0.719,-5.061l0.505,-3.555l0.505,3.555l0.719,5.061c0.032,0.08 0.072,0.12 0.12,0.12h2.904l0.048,-0.036c0.032,-0.024 0.056,-0.052 0.072,-0.084l2.699,-15.584l0.001,-0.002l0.156,-0.902c0.00667,-0.02707 0.005,-0.0484 -0.005,-0.064c-0.01467,-0.02133 -0.045,-0.032 -0.091,-0.032h-2.664c-0.064,0 -0.104,0.032 -0.12,0.096l-1.055,7.3353l-0.505,3.5127l-0.505,-3.5127l-1.055,-7.3353c-0.016,-0.064 -0.056,-0.096 -0.12,-0.096h-2.16c-0.08,0 -0.128,0.032 -0.144,0.096l-1.071,7.3364l-0.513,3.5116l-0.498,-3.5138l-1.038,-7.3342c-0.016,-0.064 -0.056,-0.096 -0.12,-0.096h-2.688c-0.03133,0 -0.053,0.00763 -0.065,0.0229c-0.01267,0.016 -0.015,0.04037 -0.007,0.0731zM163.009,25.4556l0.006,-0.0343c0.004,-0.0241 0.009,-0.048 0.015,-0.0718c-0.00933,0.0358 -0.01633,0.07117 -0.021,0.1061zM171.79,32.3362l0.034,2.6158l-1.031,-2.4041l-3.025,-7.0519h-2.16c-0.128,0 -0.192,0.064 -0.192,0.192l0.024,16.344c0,0.112 0.064,0.168 0.192,0.168h2.4c0.144,0 0.216,-0.064 0.216,-0.192l-0.12,-6.1881l-0.048,-2.4519l1.043,2.2194l3.109,6.6126h2.112c0.08,0 0.12,-0.048 0.12,-0.144l-0.024,-16.368c0,-0.128 -0.048,-0.192 -0.144,-0.192h-2.376c-0.144,0 -0.216,0.064 -0.216,0.192zM141.428,41.78c0.712,0.44 1.5,0.66 2.364,0.66c0.864,0 1.652,-0.22 2.364,-0.66c0.712,-0.44 1.28,-1.024 1.704,-1.752c0.424,-0.728 0.636,-1.532 0.636,-2.412l-0.024,-7.608c0,-0.88 -0.212,-1.68 -0.636,-2.4c-0.424,-0.72 -0.988,-1.296 -1.692,-1.728c-0.704,-0.432 -1.488,-0.648 -2.352,-0.648c-0.848,0 -1.632,0.216 -2.352,0.648c-0.72,0.432 -1.292,1.008 -1.716,1.728c-0.424,0.72 -0.636,1.52 -0.636,2.4l-0.024,7.608c0,0.88 0.216,1.684 0.648,2.412c0.432,0.728 1.004,1.312 1.716,1.752zM128.024,42.08c0,0.08 0.04,0.12 0.12,0.12l4.296,-0.024c0.944,-0.016 1.792,-0.248 2.544,-0.696c0.752,-0.448 1.352,-1.052 1.8,-1.812c0.448,-0.76 0.672,-1.604 0.672,-2.532v-6.888c0,-0.88 -0.216,-1.684 -0.648,-2.412c-0.432,-0.728 -1.012,-1.308 -1.74,-1.74c-0.728,-0.432 -1.532,-0.64 -2.412,-0.624l-4.488,0.024c-0.064,0 -0.096,0.032 -0.096,0.096zM145.052,38.948c-0.36,0.392 -0.78,0.588 -1.26,0.588c-0.496,0 -0.92,-0.188 -1.272,-0.564c-0.352,-0.376 -0.528,-0.828 -0.528,-1.356v-7.608c0,-0.544 0.176,-0.996 0.528,-1.356c0.352,-0.36 0.776,-0.54 1.272,-0.54c0.512,0 0.936,0.184 1.272,0.552c0.336,0.368 0.504,0.816 0.504,1.344l0.024,7.608c0,0.496 -0.18,0.94 -0.54,1.332zM131.952,39.248h-1l0.002,-1l0.022,-9.872l1.68,-0.024c0.512,-0.016 0.956,0.164 1.332,0.54c0.376,0.376 0.564,0.82 0.564,1.332v6.912c0,0.576 -0.204,1.072 -0.612,1.488c-0.408,0.416 -0.908,0.624 -1.5,0.624zM131.954,38.248h0.486c0.312,0 0.574,-0.10807 0.786,-0.3242c0.21733,-0.22153 0.326,-0.48413 0.326,-0.7878v-6.912c0,-0.23587 -0.09033,-0.44417 -0.271,-0.6249c-0.172,-0.17207 -0.37,-0.2546 -0.594,-0.2476l-0.713,0.0103zM144.592,37.616l-0.024,-7.6048c0,-0.27153 -0.08067,-0.49583 -0.242,-0.6729c-0.138,-0.15087 -0.316,-0.2263 -0.534,-0.2263c-0.21533,0 -0.401,0.0797 -0.557,0.2391c-0.162,0.16573 -0.243,0.3847 -0.243,0.6569v7.608c0,0.26467 0.086,0.48887 0.258,0.6726c0.15467,0.16493 0.33533,0.2474 0.542,0.2474c0.18733,0 0.36167,-0.08813 0.523,-0.2644c0.18467,-0.20073 0.277,-0.41927 0.277,-0.6556z">
      </path>
    </g>
  </g>
  <g>
    <g filter="url(#filter_5_21)">
      <path fill="#8C8C8C"
        d="M106.858 56.7601L107.85 51.2641Q107.858 51.2321 107.89 51.2321L109.05 51.2321Q109.082 51.2321 109.09 51.2641L110.042 56.7601Q110.05 56.8001 110.01 56.8001L109.122 56.8001Q109.09 56.8001 109.082 56.7601L108.994 56.1761L107.906 56.1761L107.818 56.7601Q107.81 56.8001 107.778 56.8001L106.89 56.8001Q106.858 56.8001 106.858 56.7601ZM108.066 55.3201L108.834 55.3201L108.506 53.0721L108.458 52.7761L108.426 53.0721L108.066 55.3201ZM110.618 56.8001Q110.554 56.8001 110.554 56.7441L110.546 51.2961Q110.546 51.2321 110.61 51.2321L111.33 51.2321L112.682 54.3841L112.642 51.2961Q112.642 51.2321 112.714 51.2321L113.506 51.2321Q113.554 51.2321 113.554 51.2961L113.562 56.7521Q113.562 56.8001 113.522 56.8001L112.818 56.8001L111.434 53.8561L111.49 56.7361Q111.49 56.8001 111.418 56.8001L110.618 56.8001ZM116.27 56.8001Q116.238 56.8001 116.238 56.7601L116.246 51.2641Q116.246 51.2321 116.278 51.2321L118.846 51.2321Q118.878 51.2321 118.878 51.2721L118.878 52.1681Q118.878 52.2001 118.846 52.2001L117.206 52.2001L117.206 53.4481L118.846 53.4481Q118.878 53.4481 118.878 53.4801L118.886 54.3841Q118.886 54.4161 118.854 54.4161L117.206 54.4161L117.206 55.8161L118.854 55.8161Q118.886 55.8161 118.886 55.8561L118.886 56.7681Q118.886 56.8001 118.854 56.8001L116.27 56.8001ZM120.494 56.8001Q120.462 56.8001 120.454 56.7601L119.35 51.2641Q119.342 51.2321 119.382 51.2321L120.286 51.2321Q120.318 51.2321 120.326 51.2641L120.982 54.9281L121.622 51.2641Q121.63 51.2321 121.662 51.2321L122.558 51.2321Q122.598 51.2321 122.59 51.2641L121.502 56.7601Q121.494 56.8001 121.462 56.8001L120.494 56.8001ZM123.094 56.8001Q123.062 56.8001 123.062 56.7601L123.07 51.2641Q123.07 51.2321 123.102 51.2321L125.67 51.2321Q125.702 51.2321 125.702 51.2721L125.702 52.1681Q125.702 52.2001 125.67 52.2001L124.03 52.2001L124.03 53.4481L125.67 53.4481Q125.702 53.4481 125.702 53.4801L125.71 54.3841Q125.71 54.4161 125.678 54.4161L124.03 54.4161L124.03 55.8161L125.678 55.8161Q125.71 55.8161 125.71 55.8561L125.71 56.7681Q125.71 56.8001 125.678 56.8001L123.094 56.8001ZM126.494 56.8001Q126.43 56.8001 126.43 56.7441L126.422 51.2961Q126.422 51.2321 126.486 51.2321L127.206 51.2321L128.558 54.3841L128.518 51.2961Q128.518 51.2321 128.59 51.2321L129.382 51.2321Q129.43 51.2321 129.43 51.2961L129.438 56.7521Q129.438 56.8001 129.398 56.8001L128.694 56.8001L127.31 53.8561L127.366 56.7361Q127.366 56.8001 127.294 56.8001L126.494 56.8001ZM132.154 56.8001Q132.114 56.8001 132.114 56.7601L132.13 51.2641Q132.13 51.2321 132.162 51.2321L134.722 51.2321Q134.762 51.2321 134.762 51.2641L134.762 52.1681Q134.762 52.2001 134.73 52.2001L133.09 52.2001L133.09 53.4401L134.73 53.4401Q134.762 53.4401 134.762 53.4801L134.77 54.3841Q134.77 54.4161 134.73 54.4161L133.09 54.4161L133.09 56.7601Q133.09 56.8001 133.05 56.8001L132.154 56.8001ZM135.21 56.7601L136.202 51.2641Q136.21 51.2321 136.242 51.2321L137.402 51.2321Q137.434 51.2321 137.442 51.2641L138.394 56.7601Q138.402 56.8001 138.362 56.8001L137.474 56.8001Q137.442 56.8001 137.434 56.7601L137.346 56.1761L136.258 56.1761L136.17 56.7601Q136.162 56.8001 136.13 56.8001L135.242 56.8001Q135.21 56.8001 135.21 56.7601ZM136.418 55.3201L137.186 55.3201L136.858 53.0721L136.81 52.7761L136.778 53.0721L136.418 55.3201ZM140.258 56.8801Q139.826 56.8801 139.47 56.6601Q139.114 56.4401 138.902 56.0761Q138.69 55.7121 138.69 55.2721L138.69 54.9041Q138.69 54.8641 138.73 54.8641L139.626 54.8641Q139.658 54.8641 139.658 54.9041L139.658 55.2721Q139.658 55.5361 139.834 55.7241Q140.01 55.9121 140.258 55.9121Q140.506 55.9121 140.682 55.7201Q140.858 55.5281 140.858 55.2721Q140.858 54.9761 140.474 54.7601Q140.346 54.6881 140.074 54.5361Q139.802 54.3841 139.562 54.2481Q139.122 53.9921 138.91 53.6041Q138.698 53.2161 138.698 52.7281Q138.698 52.2801 138.914 51.9241Q139.13 51.5681 139.486 51.3601Q139.842 51.1521 140.258 51.1521Q140.682 51.1521 141.038 51.3641Q141.394 51.5761 141.606 51.9321Q141.818 52.2881 141.818 52.7281L141.818 53.3841Q141.818 53.4161 141.786 53.4161L140.89 53.4161Q140.858 53.4161 140.858 53.3841L140.85 52.7281Q140.85 52.4481 140.674 52.2721Q140.498 52.0961 140.258 52.0961Q140.01 52.0961 139.834 52.2841Q139.658 52.4721 139.658 52.7281Q139.658 52.9921 139.77 53.1681Q139.882 53.3441 140.178 53.5041Q140.218 53.5281 140.334 53.5881Q140.45 53.6481 140.586 53.7241Q140.722 53.8001 140.83 53.8561Q140.938 53.9121 140.962 53.9281Q141.362 54.1521 141.594 54.4761Q141.826 54.8001 141.826 55.2721Q141.826 55.7281 141.614 56.0921Q141.402 56.4561 141.046 56.6681Q140.69 56.8801 140.258 56.8801ZM143.186 56.8001Q143.154 56.8001 143.154 56.7601L143.154 52.2001L142.114 52.2001Q142.074 52.2001 142.074 52.1601L142.082 51.2641Q142.082 51.2321 142.114 51.2321L145.154 51.2321Q145.194 51.2321 145.194 51.2641L145.194 52.1601Q145.194 52.2001 145.162 52.2001L144.114 52.2001L144.122 56.7601Q144.122 56.8001 144.09 56.8001L143.186 56.8001ZM145.618 56.8001Q145.586 56.8001 145.586 56.7601L145.594 51.2641Q145.594 51.2321 145.626 51.2321L148.194 51.2321Q148.226 51.2321 148.226 51.2721L148.226 52.1681Q148.226 52.2001 148.194 52.2001L146.554 52.2001L146.554 53.4481L148.194 53.4481Q148.226 53.4481 148.226 53.4801L148.234 54.3841Q148.234 54.4161 148.202 54.4161L146.554 54.4161L146.554 55.8161L148.202 55.8161Q148.234 55.8161 148.234 55.8561L148.234 56.7681Q148.234 56.8001 148.202 56.8001L145.618 56.8001ZM148.978 56.8001Q148.946 56.8001 148.946 56.7601L148.962 51.2641Q148.962 51.2321 148.994 51.2321L150.61 51.2321Q151.042 51.2321 151.406 51.4441Q151.77 51.6561 151.986 52.0121Q152.202 52.3681 152.202 52.8161Q152.202 53.1121 152.114 53.3481Q152.026 53.5841 151.906 53.7481Q151.786 53.9121 151.69 53.9921Q152.122 54.4721 152.122 55.1201L152.13 56.7601Q152.13 56.8001 152.09 56.8001L151.186 56.8001Q151.154 56.8001 151.154 56.7761L151.154 55.1201Q151.154 54.8321 150.95 54.6201Q150.746 54.4081 150.45 54.4081L149.922 54.4081L149.914 56.7601Q149.914 56.8001 149.882 56.8001L148.978 56.8001ZM149.922 53.4481L150.61 53.4481Q150.858 53.4481 151.05 53.2641Q151.242 53.0801 151.242 52.8161Q151.242 52.5601 151.054 52.3761Q150.866 52.1921 150.61 52.1921L149.922 52.1921L149.922 53.4481ZM154.815 56.8001Q154.783 56.8001 154.783 56.7601L154.799 51.2641Q154.799 51.2321 154.831 51.2321L156.367 51.2321Q156.823 51.2321 157.183 51.4521Q157.543 51.6721 157.751 52.0321Q157.959 52.3921 157.959 52.8161Q157.959 53.1601 157.803 53.4561Q157.647 53.7521 157.431 53.9361Q157.663 54.1681 157.791 54.4721Q157.919 54.7761 157.919 55.1121Q157.919 55.5761 157.695 55.9601Q157.471 56.3441 157.091 56.5721Q156.711 56.8001 156.247 56.8001L154.815 56.8001ZM155.759 53.4401L156.367 53.4401Q156.647 53.4401 156.819 53.2441Q156.991 53.0481 156.991 52.8161Q156.991 52.5601 156.807 52.3721Q156.623 52.1841 156.367 52.1841L155.759 52.1841L155.759 53.4401ZM155.751 55.8241L156.247 55.8241Q156.535 55.8241 156.743 55.6121Q156.951 55.4001 156.951 55.1121Q156.951 54.8241 156.743 54.6161Q156.535 54.4081 156.247 54.4081L155.759 54.4081L155.751 55.8241ZM159.967 56.8801Q159.543 56.8801 159.183 56.6601Q158.823 56.4401 158.611 56.0721Q158.399 55.7041 158.399 55.2641L158.415 51.2641Q158.415 51.2321 158.447 51.2321L159.343 51.2321Q159.375 51.2321 159.375 51.2641L159.375 55.2641Q159.375 55.5361 159.547 55.7241Q159.719 55.9121 159.967 55.9121Q160.223 55.9121 160.395 55.7241Q160.567 55.5361 160.567 55.2641L160.567 51.2641Q160.567 51.2321 160.599 51.2321L161.495 51.2321Q161.527 51.2321 161.527 51.2641L161.543 55.2641Q161.543 55.7121 161.331 56.0801Q161.119 56.4481 160.763 56.6641Q160.407 56.8801 159.967 56.8801ZM162.247 56.8001Q162.183 56.8001 162.183 56.7441L162.175 51.2961Q162.175 51.2321 162.239 51.2321L162.959 51.2321L164.311 54.3841L164.271 51.2961Q164.271 51.2321 164.343 51.2321L165.135 51.2321Q165.183 51.2321 165.183 51.2961L165.191 56.7521Q165.191 56.8001 165.151 56.8001L164.447 56.8001L163.063 53.8561L163.119 56.7361Q163.119 56.8001 163.047 56.8001L162.247 56.8001ZM165.927 56.8001Q165.887 56.8001 165.887 56.7601L165.903 51.2641Q165.903 51.2321 165.935 51.2321L167.431 51.2241Q167.871 51.2161 168.235 51.4321Q168.599 51.6481 168.815 52.0121Q169.031 52.3761 169.031 52.8161L169.031 55.1121Q169.031 55.5761 168.807 55.9561Q168.583 56.3361 168.207 56.5601Q167.831 56.7841 167.359 56.7921L165.927 56.8001ZM166.863 55.8161L167.359 55.8161Q167.655 55.8161 167.859 55.6081Q168.063 55.4001 168.063 55.1121L168.063 52.8081Q168.063 52.5521 167.875 52.3641Q167.687 52.1761 167.431 52.1841L166.871 52.1921L166.863 55.8161ZM169.695 56.8001Q169.663 56.8001 169.663 56.7601L169.671 51.2721Q169.671 51.2321 169.711 51.2321L170.599 51.2321Q170.639 51.2321 170.639 51.2721L170.631 55.8161L172.279 55.8161Q172.319 55.8161 172.319 55.8561L172.319 56.7601Q172.319 56.8001 172.279 56.8001L169.695 56.8001ZM172.871 56.8001Q172.839 56.8001 172.839 56.7601L172.847 51.2641Q172.847 51.2321 172.879 51.2321L175.447 51.2321Q175.479 51.2321 175.479 51.2721L175.479 52.1681Q175.479 52.2001 175.447 52.2001L173.807 52.2001L173.807 53.4481L175.447 53.4481Q175.479 53.4481 175.479 53.4801L175.487 54.3841Q175.487 54.4161 175.455 54.4161L173.807 54.4161L173.807 55.8161L175.455 55.8161Q175.487 55.8161 175.487 55.8561L175.487 56.7681Q175.487 56.8001 175.455 56.8001L172.871 56.8001ZM176.231 56.8001Q176.199 56.8001 176.199 56.7601L176.215 51.2641Q176.215 51.2321 176.247 51.2321L177.863 51.2321Q178.295 51.2321 178.659 51.4441Q179.023 51.6561 179.239 52.0121Q179.455 52.3681 179.455 52.8161Q179.455 53.1121 179.367 53.3481Q179.279 53.5841 179.159 53.7481Q179.039 53.9121 178.943 53.9921Q179.375 54.4721 179.375 55.1201L179.383 56.7601Q179.383 56.8001 179.343 56.8001L178.439 56.8001Q178.407 56.8001 178.407 56.7761L178.407 55.1201Q178.407 54.8321 178.203 54.6201Q177.999 54.4081 177.703 54.4081L177.175 54.4081L177.167 56.7601Q177.167 56.8001 177.135 56.8001L176.231 56.8001ZM177.175 53.4481L177.863 53.4481Q178.111 53.4481 178.303 53.2641Q178.495 53.0801 178.495 52.8161Q178.495 52.5601 178.307 52.3761Q178.119 52.1921 177.863 52.1921L177.175 52.1921L177.175 53.4481ZM107.17 66.8001Q107.13 66.8001 107.13 66.7601L107.146 61.2641Q107.146 61.2321 107.178 61.2321L108.714 61.2321Q109.45 61.2321 109.878 61.6801Q110.306 62.1281 110.306 62.8961Q110.306 63.4641 110.082 63.8801Q109.858 64.2961 109.498 64.5201Q109.138 64.7441 108.714 64.7441L108.106 64.7441L108.106 66.7601Q108.106 66.8001 108.066 66.8001L107.17 66.8001ZM108.106 63.7761L108.714 63.7761Q108.97 63.7761 109.158 63.5321Q109.346 63.2881 109.346 62.8961Q109.346 62.5841 109.178 62.3841Q109.01 62.1841 108.714 62.1841L108.106 62.1921L108.106 63.7761ZM112.33 66.8801Q111.898 66.8801 111.542 66.6601Q111.186 66.4401 110.97 66.0761Q110.754 65.7121 110.754 65.2721L110.762 62.7361Q110.762 62.2961 110.974 61.9361Q111.186 61.5761 111.546 61.3601Q111.906 61.1441 112.33 61.1441Q112.762 61.1441 113.114 61.3601Q113.466 61.5761 113.678 61.9361Q113.89 62.2961 113.89 62.7361L113.898 65.2721Q113.898 65.7121 113.686 66.0761Q113.474 66.4401 113.118 66.6601Q112.762 66.8801 112.33 66.8801ZM112.33 65.9121Q112.57 65.9121 112.75 65.7161Q112.93 65.5201 112.93 65.2721L112.922 62.7361Q112.922 62.4721 112.754 62.2881Q112.586 62.1041 112.33 62.1041Q112.082 62.1041 111.906 62.2841Q111.73 62.4641 111.73 62.7361L111.73 65.2721Q111.73 65.5361 111.906 65.7241Q112.082 65.9121 112.33 65.9121ZM115.242 66.8001Q115.21 66.8001 115.202 66.7601L114.258 61.2641Q114.25 61.2321 114.282 61.2321L115.178 61.2321Q115.21 61.2321 115.218 61.2641L115.73 64.8801L116.258 61.2641Q116.266 61.2321 116.306 61.2321L117.026 61.2321Q117.058 61.2321 117.066 61.2641L117.586 64.8801L118.106 61.2641Q118.114 61.2321 118.146 61.2321L119.034 61.2321Q119.074 61.2321 119.066 61.2641L118.114 66.7601Q118.106 66.7761 118.09 66.7881Q118.074 66.8001 118.074 66.8001L117.106 66.8001Q117.082 66.8001 117.066 66.7601L116.658 63.8881L116.25 66.7601Q116.242 66.8001 116.21 66.8001L115.242 66.8001ZM119.57 66.8001Q119.538 66.8001 119.538 66.7601L119.546 61.2641Q119.546 61.2321 119.578 61.2321L122.146 61.2321Q122.178 61.2321 122.178 61.2721L122.178 62.1681Q122.178 62.2001 122.146 62.2001L120.506 62.2001L120.506 63.4481L122.146 63.4481Q122.178 63.4481 122.178 63.4801L122.186 64.3841Q122.186 64.4161 122.154 64.4161L120.506 64.4161L120.506 65.8161L122.154 65.8161Q122.186 65.8161 122.186 65.8561L122.186 66.7681Q122.186 66.8001 122.154 66.8001L119.57 66.8001ZM122.93 66.8001Q122.898 66.8001 122.898 66.7601L122.914 61.2641Q122.914 61.2321 122.946 61.2321L124.562 61.2321Q124.994 61.2321 125.358 61.4441Q125.722 61.6561 125.938 62.0121Q126.154 62.3681 126.154 62.8161Q126.154 63.1121 126.066 63.3481Q125.978 63.5841 125.858 63.7481Q125.738 63.9121 125.642 63.9921Q126.074 64.4721 126.074 65.1201L126.082 66.7601Q126.082 66.8001 126.042 66.8001L125.138 66.8001Q125.106 66.8001 125.106 66.7761L125.106 65.1201Q125.106 64.8321 124.902 64.6201Q124.698 64.4081 124.402 64.4081L123.874 64.4081L123.866 66.7601Q123.866 66.8001 123.834 66.8001L122.93 66.8001ZM123.874 63.4481L124.562 63.4481Q124.81 63.4481 125.002 63.2641Q125.194 63.0801 125.194 62.8161Q125.194 62.5601 125.006 62.3761Q124.818 62.1921 124.562 62.1921L123.874 62.1921L123.874 63.4481ZM126.786 66.8001Q126.754 66.8001 126.754 66.7601L126.762 61.2641Q126.762 61.2321 126.794 61.2321L129.362 61.2321Q129.394 61.2321 129.394 61.2721L129.394 62.1681Q129.394 62.2001 129.362 62.2001L127.722 62.2001L127.722 63.4481L129.362 63.4481Q129.394 63.4481 129.394 63.4801L129.402 64.3841Q129.402 64.4161 129.37 64.4161L127.722 64.4161L127.722 65.8161L129.37 65.8161Q129.402 65.8161 129.402 65.8561L129.402 66.7681Q129.402 66.8001 129.37 66.8001L126.786 66.8001ZM130.154 66.8001Q130.114 66.8001 130.114 66.7601L130.13 61.2641Q130.13 61.2321 130.162 61.2321L131.658 61.2241Q132.098 61.2161 132.462 61.4321Q132.826 61.6481 133.042 62.0121Q133.258 62.3761 133.258 62.8161L133.258 65.1121Q133.258 65.5761 133.034 65.9561Q132.81 66.3361 132.434 66.5601Q132.058 66.7841 131.586 66.7921L130.154 66.8001ZM131.09 65.8161L131.586 65.8161Q131.882 65.8161 132.086 65.6081Q132.29 65.4001 132.29 65.1121L132.29 62.8081Q132.29 62.5521 132.102 62.3641Q131.914 62.1761 131.658 62.1841L131.098 62.1921L131.09 65.8161ZM135.902 66.8001Q135.87 66.8001 135.87 66.7601L135.886 61.2641Q135.886 61.2321 135.918 61.2321L137.454 61.2321Q137.91 61.2321 138.27 61.4521Q138.63 61.6721 138.838 62.0321Q139.046 62.3921 139.046 62.8161Q139.046 63.1601 138.89 63.4561Q138.734 63.7521 138.518 63.9361Q138.75 64.1681 138.878 64.4721Q139.006 64.7761 139.006 65.1121Q139.006 65.5761 138.782 65.9601Q138.558 66.3441 138.178 66.5721Q137.798 66.8001 137.334 66.8001L135.902 66.8001ZM136.846 63.4401L137.454 63.4401Q137.734 63.4401 137.906 63.2441Q138.078 63.0481 138.078 62.8161Q138.078 62.5601 137.894 62.3721Q137.71 62.1841 137.454 62.1841L136.846 62.1841L136.846 63.4401ZM136.838 65.8241L137.334 65.8241Q137.622 65.8241 137.83 65.6121Q138.038 65.4001 138.038 65.1121Q138.038 64.8241 137.83 64.6161Q137.622 64.4081 137.334 64.4081L136.846 64.4081L136.838 65.8241ZM140.326 66.8001Q140.302 66.8001 140.302 66.7681L140.31 64.4961L139.238 61.2641Q139.23 61.2321 139.262 61.2321L140.15 61.2321Q140.19 61.2321 140.198 61.2641L140.79 63.4161L141.39 61.2641Q141.398 61.2321 141.43 61.2321L142.326 61.2321Q142.358 61.2321 142.35 61.2641L141.27 64.4641L141.278 66.7681Q141.278 66.8001 141.246 66.8001L140.326 66.8001Z">
      </path>
    </g>
  </g>
  <g>
    <path fill="#F0A04A"
      d="M145.352 66.6Q145.32 66.6 145.32 66.56L145.336 61.064Q145.336 61.032 145.368 61.032L146.984 61.032Q147.416 61.032 147.78 61.244Q148.144 61.456 148.36 61.812Q148.576 62.168 148.576 62.616Q148.576 62.912 148.488 63.148Q148.4 63.384 148.28 63.548Q148.16 63.712 148.064 63.792Q148.496 64.272 148.496 64.92L148.504 66.56Q148.504 66.6 148.464 66.6L147.56 66.6Q147.528 66.6 147.528 66.576L147.528 64.92Q147.528 64.632 147.324 64.42Q147.12 64.208 146.824 64.208L146.296 64.208L146.288 66.56Q146.288 66.6 146.256 66.6L145.352 66.6ZM146.296 63.248L146.984 63.248Q147.232 63.248 147.424 63.064Q147.616 62.88 147.616 62.616Q147.616 62.36 147.428 62.176Q147.24 61.992 146.984 61.992L146.296 61.992L146.296 63.248ZM150.656 66.68Q150.224 66.68 149.868 66.46Q149.512 66.24 149.296 65.876Q149.08 65.512 149.08 65.072L149.088 62.536Q149.088 62.096 149.3 61.736Q149.512 61.376 149.872 61.16Q150.232 60.944 150.656 60.944Q151.088 60.944 151.44 61.16Q151.792 61.376 152.004 61.736Q152.216 62.096 152.216 62.536L152.224 65.072Q152.224 65.512 152.012 65.876Q151.8 66.24 151.444 66.46Q151.088 66.68 150.656 66.68ZM150.656 65.712Q150.896 65.712 151.076 65.516Q151.256 65.32 151.256 65.072L151.248 62.536Q151.248 62.272 151.08 62.088Q150.912 61.904 150.656 61.904Q150.408 61.904 150.232 62.084Q150.056 62.264 150.056 62.536L150.056 65.072Q150.056 65.336 150.232 65.524Q150.408 65.712 150.656 65.712ZM152.864 66.6Q152.832 66.6 152.832 66.56L152.84 61.072Q152.84 61.032 152.88 61.032L153.768 61.032Q153.808 61.032 153.808 61.072L153.8 65.616L155.448 65.616Q155.488 65.616 155.488 65.656L155.488 66.56Q155.488 66.6 155.448 66.6L152.864 66.6ZM156.04 66.6Q156.008 66.6 156.008 66.56L156.016 61.072Q156.016 61.032 156.056 61.032L156.944 61.032Q156.984 61.032 156.984 61.072L156.976 65.616L158.624 65.616Q158.664 65.616 158.664 65.656L158.664 66.56Q158.664 66.6 158.624 66.6L156.04 66.6ZM159.224 66.6Q159.184 66.6 159.184 66.56L159.2 61.064Q159.2 61.032 159.232 61.032L160.728 61.024Q161.168 61.016 161.532 61.232Q161.896 61.448 162.112 61.812Q162.328 62.176 162.328 62.616L162.328 64.912Q162.328 65.376 162.104 65.756Q161.88 66.136 161.504 66.36Q161.128 66.584 160.656 66.592L159.224 66.6ZM160.16 65.616L160.656 65.616Q160.952 65.616 161.156 65.408Q161.36 65.2 161.36 64.912L161.36 62.608Q161.36 62.352 161.172 62.164Q160.984 61.976 160.728 61.984L160.168 61.992L160.16 65.616ZM164.44 66.68Q164.008 66.68 163.652 66.46Q163.296 66.24 163.08 65.876Q162.864 65.512 162.864 65.072L162.872 62.536Q162.872 62.096 163.084 61.736Q163.296 61.376 163.656 61.16Q164.016 60.944 164.44 60.944Q164.872 60.944 165.224 61.16Q165.576 61.376 165.788 61.736Q166 62.096 166 62.536L166.008 65.072Q166.008 65.512 165.796 65.876Q165.584 66.24 165.228 66.46Q164.872 66.68 164.44 66.68ZM164.44 65.712Q164.68 65.712 164.86 65.516Q165.04 65.32 165.04 65.072L165.032 62.536Q165.032 62.272 164.864 62.088Q164.696 61.904 164.44 61.904Q164.192 61.904 164.016 62.084Q163.84 62.264 163.84 62.536L163.84 65.072Q163.84 65.336 164.016 65.524Q164.192 65.712 164.44 65.712ZM167.352 66.6Q167.32 66.6 167.312 66.56L166.368 61.064Q166.36 61.032 166.392 61.032L167.288 61.032Q167.32 61.032 167.328 61.064L167.84 64.68L168.368 61.064Q168.376 61.032 168.416 61.032L169.136 61.032Q169.168 61.032 169.176 61.064L169.696 64.68L170.216 61.064Q170.224 61.032 170.256 61.032L171.144 61.032Q171.184 61.032 171.176 61.064L170.224 66.56Q170.216 66.576 170.2 66.588Q170.184 66.6 170.184 66.6L169.216 66.6Q169.192 66.6 169.176 66.56L168.768 63.688L168.36 66.56Q168.352 66.6 168.32 66.6L167.352 66.6ZM171.72 66.6Q171.656 66.6 171.656 66.544L171.648 61.096Q171.648 61.032 171.712 61.032L172.432 61.032L173.784 64.184L173.744 61.096Q173.744 61.032 173.816 61.032L174.608 61.032Q174.656 61.032 174.656 61.096L174.664 66.552Q174.664 66.6 174.624 66.6L173.92 66.6L172.536 63.656L172.592 66.536Q172.592 66.6 172.52 66.6L171.72 66.6Z">
    </path>
    <path fill-rule="evenodd" fill="rgba(184, 78, 2, 1)"
      d="M149.125,66.6736c-0.02133,0.13913 -0.08333,0.25977 -0.186,0.3619c-0.12933,0.12967 -0.28767,0.1945 -0.475,0.1945h-0.904c-0.15067,0 -0.28467,-0.044 -0.402,-0.132c-0.142,-0.10627 -0.22567,-0.24197 -0.251,-0.4071c-0.02,0.10733 -0.065,0.2049 -0.135,0.2927c-0.13133,0.16427 -0.30333,0.2464 -0.516,0.2464h-0.904c-0.21267,0 -0.38467,-0.08213 -0.516,-0.2464c-0.09733,-0.12173 -0.146,-0.26293 -0.146,-0.4236l0.016,-5.4978c0,-0.18347 0.06433,-0.33937 0.193,-0.4677c0.128,-0.12833 0.28433,-0.1925 0.469,-0.1925h1.616c0.40133,0 0.77233,0.0992 1.113,0.2976c0.28467,0.1656 0.52033,0.37933 0.707,0.6412c0.19,-0.29707 0.438,-0.5374 0.744,-0.721c0.33933,-0.20387 0.70867,-0.3058 1.108,-0.3058c0.40667,0 0.778,0.103 1.114,0.309c0.16533,0.1016 0.31367,0.2204 0.445,0.3564c0.01867,-0.14733 0.082,-0.27497 0.19,-0.3829c0.12933,-0.12967 0.28767,-0.1945 0.475,-0.1945h0.888c0.18733,0 0.34567,0.06483 0.475,0.1945c0.13,0.12967 0.195,0.28817 0.195,0.4755l-0.007,3.914h0.949l0.006,-3.9149c0,-0.18673 0.065,-0.34493 0.195,-0.4746c0.12933,-0.12967 0.28767,-0.1945 0.475,-0.1945h0.888c0.18733,0 0.34567,0.06483 0.475,0.1945c0.13,0.12967 0.195,0.28817 0.195,0.4755l-0.007,3.914h0.952l0.011,-3.9238c0,-0.18347 0.06433,-0.33937 0.193,-0.4677c0.128,-0.12833 0.28433,-0.1925 0.469,-0.1925l1.493,-0.008c0.40733,-0.00747 0.78367,0.09127 1.129,0.2962c0.29133,0.17293 0.531,0.39743 0.719,0.6735c0.192,-0.3076 0.445,-0.55557 0.759,-0.7439c0.33933,-0.20387 0.70867,-0.3058 1.108,-0.3058c0.40667,0 0.77767,0.103 1.113,0.309c0.08333,0.051 0.16233,0.10627 0.237,0.1658c0.02,-0.04347 0.04533,-0.08573 0.076,-0.1268c0.13,-0.17333 0.30533,-0.26 0.526,-0.26h0.896c0.158,0 0.298,0.0487 0.42,0.1461c0.05533,0.04467 0.102,0.09553 0.14,0.1526c0.04733,-0.07213 0.10967,-0.13377 0.187,-0.1849c0.11333,-0.07587 0.24033,-0.1138 0.381,-0.1138h0.72c0.158,0 0.298,0.0487 0.42,0.1461c0.05533,0.04473 0.102,0.09563 0.14,0.1527c0.038,-0.05707 0.08467,-0.10797 0.14,-0.1527c0.122,-0.0974 0.262,-0.1461 0.42,-0.1461h0.888c0.10267,0 0.19633,0.01917 0.281,0.0575c0.08667,-0.03833 0.18233,-0.0575 0.287,-0.0575h1.135l0.27,0.6291c0.016,-0.1824 0.09133,-0.33373 0.226,-0.454c0.13133,-0.11673 0.289,-0.1751 0.473,-0.1751h0.792c0.226,0 0.406,0.08933 0.54,0.268c0.092,0.12267 0.138,0.26467 0.138,0.426l0.008,5.4551c0,0.16867 -0.052,0.3154 -0.156,0.4402c-0.13267,0.15913 -0.304,0.2387 -0.514,0.2387h-1.104l-0.301,-0.6394c-0.014,0.18773 -0.08933,0.3425 -0.226,0.4643c-0.13133,0.11673 -0.289,0.1751 -0.473,0.1751h-0.8c-0.17933,0 -0.33367,-0.05663 -0.463,-0.1699c-0.154,-0.1348 -0.231,-0.30683 -0.231,-0.5161l-0.001,-0.9151l-0.196,1.1299l-0.041,0.0829c-0.05,0.0994 -0.12,0.18283 -0.21,0.2503l-0.184,0.138h-1.178c-0.186,0 -0.337,-0.05593 -0.453,-0.1678c-0.124,0.11187 -0.27167,0.1678 -0.443,0.1678h-0.968c-0.18467,0 -0.34167,-0.06483 -0.471,-0.1945c-0.09667,-0.0966 -0.159,-0.2139 -0.187,-0.3519l-0.001,-0.0085l-0.158,-0.919c-0.048,0.15133 -0.113,0.297 -0.195,0.437c-0.194,0.33333 -0.45433,0.60093 -0.781,0.8028c-0.33867,0.2094 -0.71167,0.3141 -1.119,0.3141c-0.40733,0 -0.78033,-0.1047 -1.119,-0.3141c-0.31667,-0.1958 -0.57267,-0.4536 -0.768,-0.7734c-0.19133,0.27793 -0.43367,0.50417 -0.727,0.6787c-0.34667,0.2066 -0.733,0.3135 -1.159,0.3207l-1.439,0.0081h-0.004c-0.11,0 -0.21,-0.02233 -0.3,-0.067c-0.09,0.04467 -0.19,0.067 -0.3,0.067h-2.584c-0.10933,0 -0.208,-0.02173 -0.296,-0.0652c-0.08867,0.04347 -0.18733,0.0652 -0.296,0.0652h-2.584c-0.21267,0 -0.38467,-0.08213 -0.516,-0.2464c-0.078,-0.098 -0.12467,-0.20857 -0.14,-0.3317c-0.12867,0.13047 -0.273,0.24513 -0.433,0.344c-0.33867,0.2094 -0.71167,0.3141 -1.119,0.3141c-0.40733,0 -0.78033,-0.1047 -1.119,-0.3141c-0.15133,-0.09333 -0.28867,-0.20077 -0.412,-0.3223zM148.499,65.5481l-0.003,-0.6281c0,-0.13827 -0.01467,-0.2708 -0.044,-0.3976c-0.05267,-0.22507 -0.15167,-0.43203 -0.297,-0.6209c-0.02867,-0.0372 -0.059,-0.0737 -0.091,-0.1095c0.01333,-0.01093 0.02667,-0.02307 0.04,-0.0364c0.054,-0.05147 0.11267,-0.12067 0.176,-0.2076c0.066,-0.08993 0.12467,-0.19613 0.176,-0.3186c0.01067,-0.0264 0.02133,-0.05353 0.032,-0.0814c0.05867,-0.15733 0.088,-0.33467 0.088,-0.532c0,-0.18073 -0.02633,-0.35023 -0.079,-0.5085c-0.03467,-0.10327 -0.08033,-0.20177 -0.137,-0.2955c-0.144,-0.23733 -0.33733,-0.42667 -0.58,-0.568c-0.24267,-0.14133 -0.508,-0.212 -0.796,-0.212h-1.616c-0.02133,0 -0.032,0.01067 -0.032,0.032l-0.016,5.496c0,0.02667 0.01067,0.04 0.032,0.04h0.904c0.02133,0 0.032,-0.01333 0.032,-0.04l0.008,-2.352h0.528c0.01933,0 0.038,0.00067 0.056,0.002c0.016,0.00107 0.03133,0.00263 0.046,0.0047c0.15333,0.0206 0.286,0.08903 0.398,0.2053c0.136,0.14133 0.204,0.308 0.204,0.5v1.656c0,0.016 0.01067,0.024 0.032,0.024h0.904c0.02667,0 0.04,-0.01333 0.04,-0.04zM149.085,63.3486l-0.003,1.1038l-0.002,0.6196c0,0.13927 0.01633,0.27283 0.049,0.4007c0.036,0.1414 0.09167,0.27583 0.167,0.4033c0.144,0.24267 0.33467,0.43733 0.572,0.584c0.23733,0.14667 0.5,0.22 0.788,0.22c0.288,0 0.55067,-0.07333 0.788,-0.22c0.23733,-0.14667 0.42667,-0.34133 0.568,-0.584c0.098,-0.16773 0.162,-0.34757 0.192,-0.5395c0.01333,-0.08573 0.02,-0.1739 0.02,-0.2645l-0.008,-2.536c0,-0.0566 -0.00267,-0.1122 -0.008,-0.1668c-0.022,-0.22847 -0.09,-0.43953 -0.204,-0.6332c-0.14133,-0.24 -0.32933,-0.432 -0.564,-0.576c-0.23467,-0.144 -0.496,-0.216 -0.784,-0.216c-0.28267,0 -0.544,0.072 -0.784,0.216c-0.24,0.144 -0.43067,0.336 -0.572,0.576c-0.06667,0.11307 -0.11767,0.23203 -0.153,0.3569c-0.03933,0.14027 -0.059,0.28797 -0.059,0.4431zM152.838,62.3405l-0.004,3.0422l-0.002,1.1773c0,0.02667 0.01067,0.04 0.032,0.04h2.584c0.02667,0 0.04,-0.01333 0.04,-0.04v-0.904c0,-0.02667 -0.01333,-0.04 -0.04,-0.04h-1.648l0.001,-0.63l0.007,-3.914c0,-0.02667 -0.01333,-0.04 -0.04,-0.04h-0.888c-0.02667,0 -0.04,0.01333 -0.04,0.04zM156.01,65.2851l-0.002,1.2749c0,0.02667 0.01067,0.04 0.032,0.04h2.584c0.02667,0 0.04,-0.01333 0.04,-0.04v-0.904c0,-0.02667 -0.01333,-0.04 -0.04,-0.04h-1.648l0.001,-0.63l0.007,-3.914c0,-0.02667 -0.01333,-0.04 -0.04,-0.04h-0.888c-0.02667,0 -0.04,0.01333 -0.04,0.04zM159.188,65.2879l-0.004,1.2721c0,0.02667 0.01333,0.04 0.04,0.04l0.069,-0.0004l1.363,-0.0076c0.31467,-0.00533 0.59733,-0.08267 0.848,-0.232c0.25067,-0.14933 0.45067,-0.35067 0.6,-0.604c0.06533,-0.11133 0.11667,-0.22807 0.154,-0.3502c0.04667,-0.1558 0.07,-0.3204 0.07,-0.4938v-2.296c0,-0.15333 -0.01967,-0.29973 -0.059,-0.4392c-0.036,-0.12733 -0.08833,-0.24893 -0.157,-0.3648c-0.144,-0.24267 -0.33733,-0.436 -0.58,-0.58c-0.24267,-0.144 -0.51067,-0.21333 -0.804,-0.208l-1.496,0.008c-0.02133,0 -0.032,0.01067 -0.032,0.032zM162.914,62.1621c-0.028,0.1194 -0.042,0.24403 -0.042,0.3739l-0.008,2.536c0,0.1238 0.01267,0.2431 0.038,0.3579c0.03533,0.15713 0.09467,0.30583 0.178,0.4461c0.144,0.24267 0.33467,0.43733 0.572,0.584c0.23733,0.14667 0.5,0.22 0.788,0.22c0.288,0 0.55067,-0.07333 0.788,-0.22c0.23733,-0.14667 0.42667,-0.34133 0.568,-0.584c0.14133,-0.24267 0.212,-0.51067 0.212,-0.804l-0.008,-2.4269v-0.1091c0,-0.22727 -0.04233,-0.43853 -0.127,-0.6338c-0.02467,-0.05673 -0.053,-0.11213 -0.085,-0.1662c-0.14133,-0.24 -0.32933,-0.432 -0.564,-0.576c-0.23467,-0.144 -0.496,-0.216 -0.784,-0.216c-0.28267,0 -0.544,0.072 -0.784,0.216c-0.24,0.144 -0.43067,0.336 -0.572,0.576c-0.07867,0.13373 -0.13533,0.27577 -0.17,0.4261zM166.482,61.726l0.148,0.8644l0.682,3.9696c0.00533,0.02667 0.01867,0.04 0.04,0.04h0.968c0.02133,0 0.03467,-0.01333 0.04,-0.04l0.09,-0.6324l0.318,-2.2396l0.318,2.2396l0.09,0.6324c0.01067,0.02667 0.024,0.04 0.04,0.04h0.968l0.016,-0.012c0.01067,-0.008 0.01867,-0.01733 0.024,-0.028l0.795,-4.5912l0.053,-0.3068l0.001,-0.004l0.103,-0.594c0.002,-0.009 0.00133,-0.0161 -0.002,-0.0213c-0.00467,-0.00713 -0.01467,-0.0107 -0.03,-0.0107h-0.888c-0.02133,0 -0.03467,0.01067 -0.04,0.032l-0.202,1.403l-0.318,2.213l-0.318,-2.213l-0.202,-1.403c-0.00533,-0.02133 -0.01867,-0.032 -0.04,-0.032h-0.72c-0.02667,0 -0.04267,0.01067 -0.048,0.032l-0.205,1.4037l-0.323,2.2123l-0.313,-2.2137l-0.199,-1.4023c-0.00533,-0.02133 -0.01867,-0.032 -0.04,-0.032h-0.896c-0.01067,0 -0.018,0.00253 -0.022,0.0076c-0.004,0.00533 -0.00467,0.01347 -0.002,0.0244l0.102,0.5936l0.001,0.0044zM166.992,60.9759c-0.00133,-0.00987 -0.003,-0.01973 -0.005,-0.0296zM170.55,60.9853l0.008,-0.0423c-0.00333,0.01427 -0.006,0.02837 -0.008,0.0423zM171.648,61.1458v0.0363l0.001,0.8403l0.007,4.5216c0,0.03733 0.02133,0.056 0.064,0.056h0.8c0.048,0 0.072,-0.02133 0.072,-0.064l-0.026,-1.3353l-0.03,-1.5447l0.657,1.3982l0.727,1.5458h0.704c0.02667,0 0.04,-0.016 0.04,-0.048l-0.008,-5.456c0,-0.04267 -0.016,-0.064 -0.048,-0.064h-0.792c-0.048,0 -0.072,0.02133 -0.072,0.064l0.019,1.4401l0.021,1.6479l-0.65,-1.5146l-0.702,-1.6374h-0.72c-0.04267,0 -0.064,0.02133 -0.064,0.064zM151.076,65.516c-0.12,0.13067 -0.26,0.196 -0.42,0.196c-0.16533,0 -0.30667,-0.06267 -0.424,-0.188c-0.11733,-0.12533 -0.176,-0.276 -0.176,-0.452v-2.536c0,-0.18133 0.05867,-0.332 0.176,-0.452c0.11733,-0.12 0.25867,-0.18 0.424,-0.18c0.17067,0 0.312,0.06133 0.424,0.184c0.112,0.12267 0.168,0.272 0.168,0.448l0.008,2.536c0,0.16533 -0.06,0.31333 -0.18,0.444zM164.86,65.516c-0.12,0.13067 -0.26,0.196 -0.42,0.196c-0.16533,0 -0.30667,-0.06267 -0.424,-0.188c-0.11733,-0.12533 -0.176,-0.276 -0.176,-0.452v-2.536c0,-0.18133 0.05867,-0.332 0.176,-0.452c0.11733,-0.12 0.25867,-0.18 0.424,-0.18c0.17067,0 0.312,0.06133 0.424,0.184c0.112,0.12267 0.168,0.272 0.168,0.448l0.008,2.536c0,0.16533 -0.06,0.31333 -0.18,0.444zM160.656,65.616h-0.496v-0.0004l0.001,-0.6296l0.007,-2.994l0.56,-0.008c0.17067,-0.00533 0.31867,0.05467 0.444,0.18c0.12533,0.12533 0.188,0.27333 0.188,0.444v2.304c0,0.192 -0.068,0.35733 -0.204,0.496c-0.104,0.10607 -0.226,0.17157 -0.366,0.1965c-0.04267,0.00767 -0.08733,0.0115 -0.134,0.0115zM146.926,61.992h0.058c0.17067,0 0.31867,0.06133 0.444,0.184c0.12533,0.12267 0.188,0.26933 0.188,0.44c0,0.176 -0.064,0.32533 -0.192,0.448c-0.128,0.12267 -0.27467,0.184 -0.44,0.184h-0.688v-1.256zM146.986,62.6132l0.002,-0.0041c-0.00067,0.00093 -0.00133,0.0023 -0.002,0.0041z">
    </path>
  </g>
  <defs>
    <linearGradient id="linear_fill_5_1_0" x1="14.61712" y1="-87.74271" x2="217" y2="194.17842000000002"
      gradientUnits="userSpaceOnUse">
      <stop offset="0" stop-color="#FFFFFF" stop-opacity="0.67" />
      <stop offset="0.1856" stop-color="#5BB6BD" stop-opacity="0.7" />
      <stop offset="0.7369" stop-color="#F5AD73" stop-opacity="0.7" />
      <stop offset="1" stop-color="#FFFFFF" />
    </linearGradient>
    <filter id="filter_5_4" x="14.0970458984375" y="8.498046875" width="69.806396484375" height="72.4833984375"
      filterUnits="userSpaceOnUse" color-interpolation-filters="sRGB">
      <feFlood flood-opacity="0" result="feFloodId_5_4" />
      <feColorMatrix in="SourceAlpha" type="matrix" values="0 0 0 0 0 0 0 0 0 0 0 0 0 0 0 0 0 0 127 0"
        result="hardAlpha_5_4" />
      <feOffset dx="0" dy="2" />
      <feGaussianBlur stdDeviation="2" />
      <feComposite in2="hardAlpha_5_4" operator="out" />
      <feColorMatrix type="matrix" values="0 0 0 0 0 0 0 0 0 0 0 0 0 0 0 0 0 0 0.25 0" />
      <feBlend mode="normal" in2="feFloodId_5_4" result="dropShadow_1_5_4" />
      <feColorMatrix in="SourceAlpha" type="matrix" values="0 0 0 0 0 0 0 0 0 0 0 0 0 0 0 0 0 0 127 0"
        result="hardAlpha_5_4" />
      <feOffset dx="-4" dy="1" />
      <feGaussianBlur stdDeviation="5" />
      <feComposite in2="hardAlpha_5_4" operator="out" />
      <feColorMatrix type="matrix" values="0 0 0 0 0 0 0 0 0 0 0 0 0 0 0 0 0 0 0.05 0" />
      <feBlend mode="normal" in2="feFloodId_5_4" result="dropShadow_1_5_4" />
      <feBlend mode="normal" in="SourceGraphic" in2="dropShadow_1_5_4" result="shape_5_4" />
    </filter>
    <linearGradient id="linear_fill_5_19_0" x1="107" y1="23.88800048828125" x2="176" y2="45.4219970703125"
      gradientUnits="userSpaceOnUse">
      <stop offset="0" stop-color="#46AFFA" />
      <stop offset="0.6846" stop-color="#FFCB6B" />
      <stop offset="1" stop-color="#FFA600" />
    </linearGradient>
    <filter id="filter_5_19" x="102.02398681640625" y="22.23199462890625" width="77.44000244140625"
      height="27.2080078125" filterUnits="userSpaceOnUse" color-interpolation-filters="sRGB">
      <feFlood flood-opacity="0" result="feFloodId_5_19" />
      <feColorMatrix in="SourceAlpha" type="matrix" values="0 0 0 0 0 0 0 0 0 0 0 0 0 0 0 0 0 0 127 0"
        result="hardAlpha_5_19" />
      <feOffset dx="0" dy="2" />
      <feGaussianBlur stdDeviation="2" />
      <feComposite in2="hardAlpha_5_19" operator="out" />
      <feColorMatrix type="matrix" values="0 0 0 0 0 0 0 0 0 0 0 0 0 0 0 0 0 0 0.25 0" />
      <feBlend mode="normal" in2="feFloodId_5_19" result="dropShadow_1_5_19" />
      <feBlend mode="normal" in="SourceGraphic" in2="dropShadow_1_5_19" result="shape_5_19" />
    </filter>
    <filter id="filter_5_21" x="106.85748291015625" y="51.152099609375" width="72.597412109375"
      height="15.72796630859375" filterUnits="userSpaceOnUse" color-interpolation-filters="sRGB">
      <feFlood flood-opacity="0" result="feFloodId_5_21" />
      <feBlend mode="normal" in="SourceGraphic" in2="feFloodId_5_21" result="shape_5_21" />
      <feColorMatrix in="SourceAlpha" type="matrix" values="0 0 0 0 0 0 0 0 0 0 0 0 0 0 0 0 0 0 127 0"
        result="hardAlpha_5_21" />
      <feOffset dx="0" dy="2" />
      <feGaussianBlur stdDeviation="2" />
      <feComposite in2="hardAlpha_5_21" operator="arithmetic" k2="-1" k3="1" />
      <feColorMatrix type="matrix" values="0 0 0 0 0 0 0 0 0 0 0 0 0 0 0 0 0 0 0.1 0" />
      <feBlend mode="normal" in2="shape_5_21" result="innerShadow_0_5_21" />
    </filter>
  </defs>
</svg>
