<svg xmlns="http://www.w3.org/2000/svg" xmlns:xlink="http://www.w3.org/1999/xlink" width="217" height="93" viewBox="0 0 217 93" fill="none">
<path     fill="url(#linear_fill_5_1_0)"  d="M0 93L217 93L217 0L0 0L0 93Z">
</path>
<g filter="url(#filter_5_4)">
<path     fill="#BABABA"  d="M44.69 29.04C48.573 24.6256 60.2124 23.0282 63.2 24.58C66.1876 26.1318 75.3863 37.9486 73.66 40.85C70.7732 45.7018 65.8483 49.2551 64.94 49.96C63.8928 48.2753 57.3402 51.1374 58.84 54.18C58.9541 55.4579 52.4381 58.555 49.4732 58.8115C49.2224 58.874 48.9898 58.8768 48.78 58.81C44.9209 58.3329 38.0194 50.3536 37.19 47.12C35.7073 41.3396 43.2584 30.6675 44.69 29.04Z">
</path>
<path    stroke="rgba(107, 107, 107, 0.78)" stroke-width="1"    d="M44.6896 29.0435C48.5725 24.6291 60.2159 23.0259 63.2036 24.5777C66.1912 26.1295 75.3818 37.9492 73.6555 40.8506M44.6896 29.0435C43.2579 30.671 35.7101 41.3405 37.1927 47.1209C38.0221 50.3545 44.9226 58.3341 48.7817 58.8112M44.6896 29.0435C51.7999 42.2825 59.4773 46.7964 58.8352 47.6921M73.6555 40.8506C70.7687 45.7024 65.8528 49.2591 64.9445 49.964C63.8973 48.2793 57.3354 51.1405 58.8352 54.1831C58.9594 55.5734 51.2417 59.1153 48.7817 58.8112M73.6555 40.8506L58.8352 47.6921M48.7817 58.8112C51.5348 59.6873 58.1932 48.5879 58.8352 47.6921">
</path>
<path d="M58.8463 54.1673C57.5974 51.0059 63.7571 48.3242 64.9492 49.9482L78.7544 64.8905C77.8903 63.3189 69.7618 67.9728 71.3668 70.7324L58.8463 54.1673Z" stroke="rgba(122, 85, 15, 1)" stroke-width="1"      fill="#D1A656" >
</path>
<path d="M71.0473 70.0831C71.5442 73.073 80.5849 68.0633 78.7561 64.8903C78.5193 63.2444 70.7819 67.3756 71.0473 70.0831Z" stroke="rgba(122, 85, 15, 1)" stroke-width="1"      fill="#B87E44" >
</path>
<path d="M51.156 31.599C50.2961 29.0043 62.2236 27.1423 62.2388 28.1835C63.6851 28.4233 69.8716 37.6586 69.0186 37.5179C69.0589 39.2186 61.1114 42.7699 59.5314 42.0825C58.6263 42.0825 52.7425 36.3859 51.156 31.599Z" stroke="rgba(69, 106, 191, 1)" stroke-width="1"      fill="#89A5E8" >
</path>
<path    stroke="rgba(255, 255, 255, 1)" stroke-width="1"  stroke-linecap="round"  d="M62.6039 36.6789C62.6377 36.7975 62.6596 36.8728 62.6693 36.905C62.679 36.9371 62.6872 36.962 62.6937 36.9796C62.7002 36.9973 62.7053 37.0111 62.7088 37.0209C62.7123 37.0308 62.7165 37.0408 62.7212 37.0508C62.726 37.061 62.7311 37.0735 62.7367 37.0887C62.7422 37.1038 62.7487 37.1195 62.7563 37.1357C62.764 37.1518 62.7715 37.1672 62.7789 37.1818C62.7863 37.1964 62.7936 37.2101 62.801 37.223C62.8083 37.236 62.8161 37.2495 62.8242 37.2635C62.8324 37.2776 62.8408 37.2916 62.8495 37.3055C62.8581 37.3195 62.8679 37.3353 62.8787 37.3529C62.8895 37.3706 62.8993 37.3871 62.9083 37.4026C62.9172 37.418 62.9256 37.432 62.9336 37.4446C62.9417 37.4571 62.949 37.4681 62.9555 37.4774C62.962 37.4868 62.9679 37.495 62.973 37.5021C62.9781 37.5092 62.9844 37.5188 62.9921 37.5308C62.9997 37.5428 63.0069 37.5548 63.0135 37.5669C63.0203 37.5791 63.0276 37.5915 63.0355 37.6044C63.0435 37.6174 63.0518 37.6318 63.0604 37.6479C63.0689 37.6639 63.0773 37.6803 63.0854 37.6971C63.0935 37.7139 63.1026 37.7336 63.1126 37.756C63.1226 37.7784 63.133 37.8014 63.1438 37.825C63.1545 37.8486 63.1654 37.872 63.1764 37.895C63.1874 37.9181 63.1984 37.9404 63.2092 37.9619C63.2201 37.9835 63.2296 38.0038 63.2379 38.0231C63.2461 38.0423 63.2547 38.0625 63.2637 38.0837C63.2726 38.1049 63.2812 38.1248 63.2893 38.1435C63.2975 38.1621 63.3054 38.1788 63.313 38.1936C63.3207 38.2085 63.3287 38.2234 63.337 38.2384C63.3453 38.2533 63.3539 38.2694 63.3627 38.2866C63.3715 38.3038 63.38 38.3205 63.3881 38.3366C63.3963 38.3529 63.4049 38.3708 63.4138 38.3906C63.4228 38.4103 63.4313 38.4282 63.4393 38.4444C63.4474 38.4605 63.4553 38.4764 63.4631 38.492C63.4709 38.5077 63.4786 38.5233 63.4864 38.539C63.4942 38.5546 63.5019 38.5702 63.5095 38.5856C63.5172 38.601 63.5252 38.6159 63.5335 38.6301C63.5419 38.6445 63.5504 38.6599 63.5592 38.6766C63.568 38.6933 63.5764 38.7092 63.5844 38.7242C63.5925 38.7392 63.6015 38.7563 63.6112 38.7755C63.6209 38.7946 63.6299 38.8127 63.6383 38.8296C63.6468 38.8466 63.654 38.8606 63.6599 38.872C63.666 38.8834 63.6724 38.8958 63.6792 38.9093C63.6861 38.9228 63.6931 38.9363 63.7004 38.95C63.7077 38.9637 63.7145 38.9767 63.721 38.9892C63.7273 39.0016 63.734 39.0143 63.7409 39.0272C63.7477 39.0401 63.7539 39.0514 63.7592 39.061C63.7646 39.0706 63.7696 39.079 63.7741 39.0862C63.7787 39.0934 63.7828 39.1001 63.7863 39.1063C63.7898 39.1124 63.7926 39.1176 63.7949 39.1218C63.7971 39.1261 63.7992 39.1298 63.8009 39.1331C63.8027 39.1364 63.8046 39.1396 63.8068 39.1425C63.8091 39.1454 63.8111 39.149 63.8128 39.1534C63.8146 39.1577 63.8166 39.162 63.8189 39.1662C63.8211 39.1704 63.8235 39.1749 63.826 39.1798C63.8286 39.1847 63.8307 39.1894 63.8326 39.1938C63.8345 39.1982 63.8365 39.2038 63.8389 39.2106C63.8413 39.2175 63.8434 39.2234 63.8452 39.2287C63.8469 39.2339 63.8486 39.2388 63.8501 39.2434C63.8516 39.248 63.8539 39.2532 63.8568 39.2591C63.8598 39.2651 63.8656 39.2807 63.8743 39.306C63.883 39.3313 63.8905 39.3533 63.897 39.372">
</path>
<path    stroke="rgba(255, 255, 255, 1)" stroke-width="1"  stroke-linecap="round"  d="M61.0692 37.1655C61.175 37.1007 61.2435 37.0587 61.2747 37.0394C61.3058 37.0201 61.3335 37.0026 61.3577 36.9867C61.3819 36.9708 61.4072 36.9551 61.4337 36.9394C61.4602 36.9236 61.4839 36.9093 61.5048 36.8963C61.5258 36.8832 61.549 36.8696 61.5742 36.8555C61.5995 36.8414 61.6244 36.8278 61.6491 36.8147C61.6738 36.8016 61.6995 36.7879 61.7263 36.7738C61.753 36.7597 61.7783 36.7463 61.8023 36.7335C61.8262 36.7207 61.8509 36.7078 61.8765 36.6946C61.9022 36.6814 61.9273 36.6682 61.9517 36.655C61.9762 36.6418 62.001 36.6289 62.0259 36.6164C62.0507 36.6038 62.0743 36.5917 62.0964 36.5802C62.1185 36.5687 62.1408 36.5573 62.1634 36.5461C62.186 36.5348 62.21 36.5229 62.2354 36.5101C62.2609 36.4973 62.2841 36.4855 62.3051 36.4746C62.3261 36.4636 62.3493 36.4512 62.3747 36.4371C62.4001 36.423 62.4254 36.4091 62.4507 36.3954C62.4761 36.3817 62.4993 36.3694 62.5205 36.3587C62.5417 36.3479 62.5641 36.3363 62.5877 36.324C62.6112 36.3117 62.6344 36.2999 62.6571 36.2886C62.6798 36.2772 62.7021 36.2664 62.7239 36.2561C62.7458 36.2458 62.7679 36.236 62.7902 36.2267C62.8125 36.2174 62.8354 36.2076 62.8589 36.1972C62.8823 36.1869 62.906 36.1767 62.9299 36.1666C62.9538 36.1565 62.9776 36.1466 63.0014 36.1369C63.0251 36.1271 63.0494 36.1177 63.074 36.1087C63.0986 36.0997 63.1227 36.0908 63.1462 36.082C63.1697 36.0733 63.1906 36.0654 63.2091 36.0584C63.2275 36.0513 63.2458 36.044 63.264 36.0364C63.2822 36.0288 63.299 36.0217 63.3144 36.0153C63.3298 36.0089 63.3453 36.0026 63.3608 35.9967C63.3763 35.9907 63.3918 35.9848 63.4074 35.979C63.423 35.9732 63.4377 35.9676 63.4516 35.9621C63.4656 35.9565 63.478 35.9516 63.4887 35.9474C63.4994 35.9432 63.5085 35.9399 63.5159 35.9375C63.5232 35.9351 63.5308 35.9329 63.5386 35.9307C63.5465 35.9286 63.5558 35.9252 63.5666 35.9205C63.5773 35.9157 63.5885 35.9105 63.6 35.9046C63.6115 35.8989 63.6308 35.889 63.6577 35.875C63.6846 35.8611 63.7081 35.8491 63.728 35.8387">
</path>
<path    stroke="rgba(255, 255, 255, 1)" stroke-width="1"  stroke-linecap="round"  d="M66.0731 35.071C65.9915 35.0303 65.9386 35.0043 65.9146 34.9932C65.8905 34.982 65.8705 34.9728 65.8544 34.9655C65.8382 34.9582 65.8233 34.9517 65.8095 34.946C65.7958 34.9403 65.7795 34.9349 65.7608 34.9296C65.7421 34.9243 65.7253 34.9202 65.7105 34.9171C65.6956 34.914 65.6812 34.9118 65.6672 34.9105C65.6531 34.9092 65.6382 34.9083 65.6225 34.9077C65.6067 34.9071 65.5878 34.9068 65.5659 34.9065C65.544 34.9063 65.5222 34.9066 65.5008 34.9074C65.4793 34.9082 65.4527 34.9128 65.4211 34.921C65.3894 34.9293 65.3594 34.9397 65.331 34.9523C65.3026 34.9648 65.2745 34.9792 65.2468 34.9954C65.219 35.0116 65.1937 35.0278 65.1707 35.0441C65.1477 35.0603 65.1257 35.0785 65.1047 35.0986C65.0837 35.1187 65.065 35.1376 65.0487 35.1554C65.0323 35.1732 65.0147 35.1944 64.9957 35.2191C64.9768 35.2438 64.9571 35.2717 64.9368 35.3029C64.9164 35.3341 64.8974 35.3633 64.8799 35.3905C64.8624 35.4177 64.8455 35.446 64.8292 35.4752C64.813 35.5045 64.7985 35.534 64.7859 35.5636C64.7733 35.5933 64.7629 35.6208 64.7546 35.6461C64.7464 35.6713 64.7385 35.6992 64.731 35.7297C64.7235 35.7602 64.7171 35.792 64.7119 35.8251C64.7067 35.8583 64.7026 35.8924 64.6995 35.9275C64.6963 35.9626 64.6941 35.9987 64.6928 36.0357C64.6914 36.0728 64.6905 36.1095 64.6899 36.146C64.6894 36.1824 64.689 36.2174 64.6887 36.2509C64.6885 36.2844 64.6918 36.3188 64.6986 36.3541C64.7053 36.3894 64.7139 36.4227 64.7244 36.4542C64.7349 36.4857 64.7462 36.5143 64.7584 36.5401C64.7704 36.566 64.7855 36.593 64.8037 36.6212C64.8219 36.6494 64.8385 36.6741 64.8535 36.6953C64.8686 36.7166 64.8822 36.7351 64.8945 36.7509C64.9068 36.7668 64.9175 36.7797 64.9267 36.7897C64.936 36.7997 64.945 36.8084 64.9538 36.8159C64.9626 36.8233 64.9709 36.8299 64.9786 36.8354C64.9864 36.841 64.9957 36.8463 65.0067 36.8512C65.0176 36.8562 65.0304 36.8611 65.045 36.8659C65.0597 36.8707 65.0764 36.8755 65.0952 36.8802C65.114 36.8849 65.1299 36.8884 65.1428 36.8904C65.1557 36.8924 65.1702 36.8939 65.1862 36.8948C65.2022 36.8956 65.2197 36.8962 65.2388 36.8966C65.2578 36.8969 65.2804 36.8962 65.3067 36.8944C65.333 36.8927 65.3584 36.889 65.383 36.8836C65.4074 36.8781 65.4337 36.8713 65.4616 36.863C65.4895 36.8548 65.517 36.8455 65.5439 36.8353C65.5708 36.8251 65.5992 36.813 65.6289 36.7989C65.6587 36.7848 65.692 36.7694 65.729 36.7527C65.7658 36.736 65.801 36.7199 65.8346 36.7044C65.868 36.6888 65.9036 36.6736 65.9412 36.6588C65.9787 36.644 66.0152 36.6305 66.0508 36.6183C66.0862 36.6061 66.1208 36.5964 66.1546 36.5892C66.1885 36.582 66.2223 36.5754 66.2562 36.5694C66.29 36.5633 66.3252 36.5575 66.3615 36.5518C66.3978 36.5462 66.4298 36.5413 66.4573 36.5369C66.4849 36.5326 66.5104 36.5291 66.5338 36.5264C66.5573 36.5237 66.5789 36.5213 66.5985 36.5192C66.6182 36.5172 66.6385 36.5157 66.6594 36.5148C66.6804 36.5139 66.7003 36.5133 66.7191 36.513C66.7379 36.5126 66.7553 36.5123 66.7713 36.5121C66.7872 36.512 66.8006 36.5118 66.8113 36.5118C66.8221 36.5117 66.8306 36.5117 66.8367 36.5117C66.8428 36.5116 66.8475 36.5116 66.8508 36.5116C66.8541 36.5116 66.8613 36.5138 66.8724 36.5181C66.8834 36.5225 66.8967 36.5284 66.9125 36.5359C66.9282 36.5433 66.9436 36.5512 66.9588 36.5594C66.9739 36.5677 66.9863 36.5748 66.9958 36.5807C67.0054 36.5866 67.0134 36.5919 67.0197 36.5967C67.0261 36.6016 67.0321 36.6066 67.038 36.6117C67.0438 36.6169 67.0503 36.6227 67.0576 36.6289C67.065 36.6352 67.0714 36.6409 67.0768 36.6459C67.0823 36.6509 67.0873 36.6574 67.0921 36.6655C67.097 36.6735 67.1026 36.6842 67.109 36.6974C67.1153 36.7105 67.1225 36.7249 67.1304 36.7403C67.1384 36.7556 67.1462 36.7721 67.1539 36.7895C67.1617 36.8069 67.1686 36.8263 67.1746 36.8475C67.1805 36.8687 67.1848 36.8889 67.1873 36.9079C67.1899 36.927 67.1917 36.9469 67.1928 36.9676C67.1939 36.9883 67.1947 37.0095 67.1951 37.0313C67.1956 37.0531 67.1959 37.0757 67.1961 37.099C67.1963 37.1224 67.1945 37.1461 67.1908 37.1702C67.1871 37.1942 67.1815 37.2202 67.174 37.2481C67.1666 37.276 67.1588 37.3027 67.1508 37.3282C67.1428 37.3537 67.133 37.3829 67.1216 37.416C67.1102 37.449 67.0982 37.4798 67.0855 37.5086C67.0729 37.5374 67.0589 37.5665 67.0434 37.596C67.028 37.6256 67.0081 37.6585 66.9838 37.695C66.9596 37.7314 66.9365 37.7632 66.9146 37.7905C66.8927 37.8178 66.8708 37.8426 66.8489 37.865C66.827 37.8874 66.8029 37.9104 66.7767 37.934C66.7505 37.9575 66.7254 37.9778 66.7014 37.9947C66.6775 38.0117 66.6481 38.0307 66.6132 38.0519C66.5784 38.0731 66.5468 38.091 66.5187 38.1058C66.4905 38.1205 66.4593 38.1346 66.4251 38.148C66.3908 38.1613 66.3567 38.1729 66.3226 38.1827C66.2886 38.1925 66.2546 38.2015 66.2206 38.2096C66.1867 38.2176 66.1562 38.2244 66.1292 38.2298C66.1022 38.2351 66.0738 38.2394 66.0439 38.2425C66.0141 38.2457 65.9831 38.249 65.9509 38.2523C65.9187 38.2556 65.8882 38.2584 65.8593 38.2608C65.8304 38.2631 65.8045 38.2653 65.7814 38.2671C65.7584 38.269 65.7367 38.2708 65.7164 38.2725C65.6961 38.2742 65.6755 38.2754 65.6547 38.2761C65.634 38.2768 65.6112 38.2779 65.5864 38.2791C65.5617 38.2803 65.5384 38.2817 65.5165 38.2832C65.4946 38.2847 65.4705 38.2857 65.4441 38.2864C65.4176 38.287 65.3924 38.2875 65.3685 38.2877C65.3446 38.288 65.3238 38.2877 65.3061 38.287C65.2884 38.2863 65.2737 38.2857 65.262 38.2854C65.2504 38.2851 65.2382 38.2844 65.2257 38.2834C65.2132 38.2825 65.1949 38.2774 65.1709 38.2682C65.1468 38.2591 65.1259 38.2512 65.1082 38.2444">
</path>
<path d="M47.8679 40.7771C48.6275 39.9426 51.3519 43.2637 50.795 44.253C49.9091 45.8269 47.3276 48.036 47.3276 48.6939C47.3276 49.3517 48.6228 49.7582 48.6229 50.9768C48.6229 51.622 43.4715 51.0342 43.4812 50.649C43.0783 50.3511 42.2998 46.5085 42.4509 44.528C42.602 42.5474 44.5417 46.323 44.8517 45.8269C46.7021 42.8658 47.1083 41.6117 47.8679 40.7771Z" stroke="rgba(184, 151, 61, 1)" stroke-width="1"      fill="#FCD056" >
</path>
</g>
<path    stroke="rgba(0, 0, 0, 0.22)" stroke-width="0.4"    d="M95.5 28L95.5 47.5L95.5 67">
</path>
<g filter="url(#filter_5_23)">
<g >
<path     fill="#000000"  d="M110.36 43.8Q110.264 43.8 110.264 43.68L110.264 30L107.144 30Q107.024 30 107.024 29.88L107.048 27.192Q107.048 27.096 107.144 27.096L116.264 27.096Q116.384 27.096 116.384 27.192L116.384 29.88Q116.384 30 116.288 30L113.144 30L113.168 43.68Q113.168 43.8 113.072 43.8L110.36 43.8ZM121.64 44.04Q120.344 44.04 119.276 43.38Q118.208 42.72 117.572 41.628Q116.936 40.536 116.936 39.216L116.936 38.112Q116.936 37.992 117.056 37.992L119.744 37.992Q119.84 37.992 119.84 38.112L119.84 39.216Q119.84 40.008 120.368 40.572Q120.896 41.136 121.64 41.136Q122.384 41.136 122.912 40.56Q123.44 39.984 123.44 39.216Q123.44 38.328 122.288 37.68Q121.904 37.464 121.088 37.008Q120.272 36.552 119.552 36.144Q118.232 35.376 117.596 34.212Q116.96 33.048 116.96 31.584Q116.96 30.24 117.608 29.172Q118.256 28.104 119.324 27.48Q120.392 26.856 121.64 26.856Q122.912 26.856 123.98 27.492Q125.048 28.128 125.684 29.196Q126.32 30.264 126.32 31.584L126.32 33.552Q126.32 33.648 126.224 33.648L123.536 33.648Q123.44 33.648 123.44 33.552L123.416 31.584Q123.416 30.744 122.888 30.216Q122.36 29.688 121.64 29.688Q120.896 29.688 120.368 30.252Q119.84 30.816 119.84 31.584Q119.84 32.376 120.176 32.904Q120.512 33.432 121.4 33.912Q121.52 33.984 121.868 34.164Q122.216 34.344 122.624 34.572Q123.032 34.8 123.356 34.968Q123.68 35.136 123.752 35.184Q124.952 35.856 125.648 36.828Q126.344 37.8 126.344 39.216Q126.344 40.584 125.708 41.676Q125.072 42.768 124.004 43.404Q122.936 44.04 121.64 44.04ZM128.144 43.8Q128.024 43.8 128.024 43.68L128.072 27.192Q128.072 27.096 128.168 27.096L132.656 27.072Q133.976 27.048 135.068 27.696Q136.16 28.344 136.808 29.436Q137.456 30.528 137.456 31.848L137.456 38.736Q137.456 40.128 136.784 41.268Q136.112 42.408 134.984 43.08Q133.856 43.752 132.44 43.776L128.144 43.8ZM130.952 40.848L132.44 40.848Q133.328 40.848 133.94 40.224Q134.552 39.6 134.552 38.736L134.552 31.824Q134.552 31.056 133.988 30.492Q133.424 29.928 132.656 29.952L130.976 29.976L130.952 40.848ZM143.792 44.04Q142.496 44.04 141.428 43.38Q140.36 42.72 139.712 41.628Q139.064 40.536 139.064 39.216L139.088 31.608Q139.088 30.288 139.724 29.208Q140.36 28.128 141.44 27.48Q142.52 26.832 143.792 26.832Q145.088 26.832 146.144 27.48Q147.2 28.128 147.836 29.208Q148.472 30.288 148.472 31.608L148.496 39.216Q148.496 40.536 147.86 41.628Q147.224 42.72 146.156 43.38Q145.088 44.04 143.792 44.04ZM143.792 41.136Q144.512 41.136 145.052 40.548Q145.592 39.96 145.592 39.216L145.568 31.608Q145.568 30.816 145.064 30.264Q144.56 29.712 143.792 29.712Q143.048 29.712 142.52 30.252Q141.992 30.792 141.992 31.608L141.992 39.216Q141.992 40.008 142.52 40.572Q143.048 41.136 143.792 41.136ZM152.528 43.8Q152.432 43.8 152.408 43.68L149.576 27.192Q149.552 27.096 149.648 27.096L152.336 27.096Q152.432 27.096 152.456 27.192L153.992 38.04L155.576 27.192Q155.6 27.096 155.72 27.096L157.88 27.096Q157.976 27.096 158 27.192L159.56 38.04L161.12 27.192Q161.144 27.096 161.24 27.096L163.904 27.096Q164.024 27.096 164 27.192L161.144 43.68Q161.12 43.728 161.072 43.764Q161.024 43.8 161.024 43.8L158.12 43.8Q158.048 43.8 158 43.68L156.776 35.064L155.552 43.68Q155.528 43.8 155.432 43.8L152.528 43.8ZM165.632 43.8Q165.44 43.8 165.44 43.632L165.416 27.288Q165.416 27.096 165.608 27.096L167.768 27.096L171.824 36.552L171.704 27.288Q171.704 27.096 171.92 27.096L174.296 27.096Q174.44 27.096 174.44 27.288L174.464 43.656Q174.464 43.8 174.344 43.8L172.232 43.8L168.08 34.968L168.248 43.608Q168.248 43.8 168.032 43.8L165.632 43.8Z">
</path>
<path fill-rule="evenodd"  fill="url(#linear_border_5_19_0)"  d="M138.852,42.1383c-0.30467,-0.51387 -0.521,-1.0577 -0.649,-1.6315c-0.13333,0.4418 -0.31933,0.8648 -0.558,1.269c-0.534,0.90693 -1.25033,1.62803 -2.149,2.1633c-0.90467,0.5388 -1.91767,0.81773 -3.039,0.8368l-4.307,0.0241h-0.006c-0.316,0 -0.58167,-0.10763 -0.797,-0.3229c-0.21533,-0.21527 -0.323,-0.48097 -0.323,-0.7971l0.007,-2.5055c-0.11867,0.34867 -0.27167,0.6836 -0.459,1.0048c-0.51067,0.877 -1.196,1.57163 -2.056,2.0839c-0.87,0.51787 -1.82867,0.7768 -2.876,0.7768c-1.05333,0 -2.01667,-0.26977 -2.89,-0.8093c-0.85333,-0.5276 -1.534,-1.2274 -2.042,-2.0994c-0.51467,-0.88353 -0.772,-1.8553 -0.772,-2.9153v-1.104c0,-0.31613 0.10767,-0.58183 0.323,-0.7971c0.21533,-0.21527 0.481,-0.3229 0.797,-0.3229h1.965c-1.02867,-0.6066 -1.79633,-1.37343 -2.303,-2.3005c-0.50533,-0.9254 -0.758,-1.96123 -0.758,-3.1075c0,-0.1982 0.009,-0.39287 0.027,-0.584h-1.841l0.022,12.6782c0,0.27507 -0.081,0.5139 -0.243,0.7165c-0.216,0.2702 -0.50033,0.4053 -0.853,0.4053h-2.712c-0.35267,0 -0.637,-0.1351 -0.853,-0.4053c-0.162,-0.2026 -0.243,-0.44083 -0.243,-0.7147v-12.68h-2.12c-0.316,0 -0.58167,-0.10763 -0.797,-0.3229c-0.21533,-0.21527 -0.323,-0.48097 -0.323,-0.7971l0.024,-2.6969c0,-0.3022 0.10567,-0.55893 0.317,-0.7702c0.21133,-0.21127 0.471,-0.3169 0.779,-0.3169h9.12c0.274,0 0.51233,0.08103 0.715,0.2431c0.27,0.2162 0.405,0.5005 0.405,0.8529v0.6008c0.41,-0.46433 0.88867,-0.8564 1.436,-1.1762c0.86733,-0.50707 1.80733,-0.7606 2.82,-0.7606c1.03133,0 1.982,0.25893 2.852,0.7768c0.85667,0.51047 1.54033,1.1943 2.051,2.0515c0.22067,0.37067 0.39433,0.75893 0.521,1.1648l0.008,-2.66c0,-0.3062 0.10567,-0.56493 0.317,-0.7762c0.21133,-0.21127 0.471,-0.3169 0.779,-0.3169l4.483,-0.024c1.06067,-0.01933 2.03633,0.23533 2.927,0.764c0.87467,0.5188 1.57133,1.21537 2.09,2.0897c0.25,0.4216 0.44067,0.86337 0.572,1.3253c0.12733,-0.5452 0.33467,-1.062 0.622,-1.5504c0.51,-0.86613 1.198,-1.55883 2.064,-2.0781c0.878,-0.527 1.83333,-0.7905 2.866,-0.7905c1.052,0 2.01033,0.26523 2.875,0.7957c0.84533,0.5188 1.52233,1.20977 2.031,2.0729c0.06333,0.10807 0.123,0.21757 0.179,0.3285l-0.282,-1.6424c-0.068,-0.32067 -0.00567,-0.60957 0.187,-0.8667c0.212,-0.28267 0.50067,-0.424 0.866,-0.424h2.688c0.266,0 0.50033,0.08103 0.703,0.2431c0.19533,0.1566 0.32433,0.36007 0.387,0.6104l0.013,0.0506l0.568,4.0145l0.587,-4.0166l0.012,-0.0485c0.07067,-0.28207 0.225,-0.50257 0.463,-0.6615c0.192,-0.128 0.409,-0.192 0.651,-0.192h2.16c0.266,0 0.50033,0.08103 0.703,0.2431c0.19533,0.1566 0.32433,0.36007 0.387,0.6104l0.013,0.0496l0.577,4.0155l0.577,-4.0155l0.013,-0.0496c0.06267,-0.25033 0.19167,-0.4538 0.387,-0.6104c0.20267,-0.16207 0.437,-0.2431 0.703,-0.2431h2.664c0.316,0 0.57967,0.10563 0.791,0.3169c0.01467,0.01453 0.02867,0.02923 0.042,0.0441c0.00667,-0.00673 0.01333,-0.01343 0.02,-0.0201c0.22733,-0.22727 0.511,-0.3409 0.851,-0.3409h2.819l2.332,5.4361l-0.055,-4.2311c0,-0.37207 0.13,-0.67353 0.39,-0.9044c0.22533,-0.2004 0.50067,-0.3006 0.826,-0.3006h2.376c0.38133,0 0.684,0.14933 0.908,0.448c0.15733,0.2098 0.236,0.4578 0.236,0.744l0.024,16.3665c0,0.2904 -0.08733,0.5403 -0.262,0.7497c-0.22,0.26387 -0.506,0.3958 -0.858,0.3958h-2.747l-2.426,-5.1607l0.077,3.9493c0,0.37633 -0.13,0.67993 -0.39,0.9108c-0.22533,0.2004 -0.50067,0.3006 -0.826,0.3006h-2.4c-0.31467,0 -0.58233,-0.09647 -0.803,-0.2894c-0.25933,-0.2272 -0.389,-0.52007 -0.389,-0.8786l-0.019,-13.0108l-2.317,13.3744l-0.066,0.1316c-0.086,0.1728 -0.208,0.3184 -0.366,0.4368l-0.315,0.236h-3.237c-0.3,0 -0.55767,-0.10763 -0.773,-0.3229c-0.11667,-0.11673 -0.20833,-0.25863 -0.275,-0.4257l-0.045,-0.1117l-0.251,-1.7658l-0.238,1.6746l-0.005,0.0276c-0.048,0.23793 -0.15333,0.43827 -0.316,0.601c-0.21533,0.21527 -0.477,0.3229 -0.785,0.3229h-2.904c-0.308,0 -0.56967,-0.10763 -0.785,-0.3229c-0.16267,-0.16273 -0.268,-0.36307 -0.316,-0.601l-0.002,-0.0134l-1.95,-11.3523l0.021,6.7024c0,1.06213 -0.25733,2.03497 -0.772,2.9185c-0.508,0.872 -1.18867,1.5718 -2.042,2.0994c-0.87333,0.53953 -1.83667,0.8093 -2.89,0.8093c-1.05333,0 -2.01667,-0.26977 -2.89,-0.8093c-0.85133,-0.52607 -1.53467,-1.22353 -2.05,-2.0924zM127.042,37.3577l0.009,-3.0778c-0.01533,0.0174 -0.03133,0.03447 -0.048,0.0512c-0.21133,0.21127 -0.471,0.3169 -0.779,0.3169h-1.435c0.67733,0.4542 1.23467,0.9868 1.672,1.5978c0.24467,0.3416 0.43833,0.71223 0.581,1.1119zM122.437,33.333l-0.021,-1.7368c0,-0.292 -0.07833,-0.51637 -0.235,-0.6731c-0.15667,-0.15673 -0.337,-0.2351 -0.541,-0.2351c-0.20667,0 -0.38733,0.08247 -0.542,0.2474c-0.172,0.18373 -0.258,0.39993 -0.258,0.6486c0,0.33387 0.06,0.5949 0.18,0.7831c0.13067,0.20587 0.416,0.4276 0.856,0.6652l0.019,0.0107l0.019,0.0115c0.062,0.0372 0.19967,0.11097 0.413,0.2213c0.03667,0.01873 0.07333,0.0378 0.11,0.0572zM123.752,35.184c-0.048,-0.032 -0.18,-0.104 -0.396,-0.216c-0.216,-0.112 -0.46,-0.244 -0.732,-0.396c-0.272,-0.152 -0.524,-0.288 -0.756,-0.408c-0.232,-0.12 -0.388,-0.204 -0.468,-0.252c-0.592,-0.32 -1,-0.656 -1.224,-1.008c-0.224,-0.352 -0.336,-0.792 -0.336,-1.32c0,-0.512 0.176,-0.956 0.528,-1.332c0.352,-0.376 0.776,-0.564 1.272,-0.564c0.48,0 0.896,0.176 1.248,0.528c0.352,0.352 0.528,0.808 0.528,1.368l0.024,1.968c0,0.064 0.032,0.096 0.096,0.096h2.688c0.064,0 0.096,-0.032 0.096,-0.096v-1.968c0,-0.88 -0.212,-1.676 -0.636,-2.388c-0.424,-0.712 -0.992,-1.28 -1.704,-1.704c-0.712,-0.424 -1.492,-0.636 -2.34,-0.636c-0.832,0 -1.604,0.208 -2.316,0.624c-0.712,0.416 -1.284,0.98 -1.716,1.692c-0.08267,0.13607 -0.15733,0.2755 -0.224,0.4183c-0.16533,0.3536 -0.28233,0.72783 -0.351,1.1227c-0.04867,0.27993 -0.073,0.57027 -0.073,0.871c0,0.976 0.212,1.852 0.636,2.628c0.424,0.776 1.076,1.42 1.956,1.932c0.48,0.272 0.992,0.56 1.536,0.864c0.544,0.304 0.944,0.528 1.2,0.672c0.768,0.432 1.152,0.944 1.152,1.536c0,0.512 -0.176,0.96 -0.528,1.344c-0.352,0.384 -0.776,0.576 -1.272,0.576c-0.496,0 -0.92,-0.188 -1.272,-0.564c-0.352,-0.376 -0.528,-0.828 -0.528,-1.356v-1.104c0,-0.08 -0.032,-0.12 -0.096,-0.12h-2.688c-0.08,0 -0.12,0.04 -0.12,0.12v1.104c0,0.88 0.212,1.684 0.636,2.412c0.424,0.728 0.992,1.312 1.704,1.752c0.712,0.44 1.5,0.66 2.364,0.66c0.864,0 1.652,-0.212 2.364,-0.636c0.712,-0.424 1.28,-1 1.704,-1.728c0.424,-0.728 0.636,-1.548 0.636,-2.46c0,-0.944 -0.232,-1.74 -0.696,-2.388c-0.464,-0.648 -1.096,-1.196 -1.896,-1.644zM120.836,38.0132c0.00267,0.0324 0.004,0.06533 0.004,0.0988v1.104c0,0.26467 0.086,0.48887 0.258,0.6726c0.15467,0.16493 0.33533,0.2474 0.542,0.2474c0.20267,0 0.381,-0.0839 0.535,-0.2517c0.17667,-0.19287 0.265,-0.41563 0.265,-0.6683c0,-0.20213 -0.214,-0.4236 -0.642,-0.6644zM116.169,30h0.119c0.064,0 0.096,-0.04 0.096,-0.12v-2.688c0,-0.064 -0.04,-0.096 -0.12,-0.096h-9.12c-0.064,0 -0.096,0.032 -0.096,0.096l-0.024,2.688c0,0.08 0.04,0.12 0.12,0.12h3.12v13.68c0,0.08 0.032,0.12 0.096,0.12h2.712c0.064,0 0.096,-0.04 0.096,-0.12l-0.022,-12.68l-0.002,-0.9997v-0.0003zM149.576,27.192l0.155,0.9007v0.0033l2.677,15.584c0.016,0.08 0.056,0.12 0.12,0.12h2.904c0.064,0 0.104,-0.04 0.12,-0.12l0.719,-5.0611l0.505,-3.5549l0.505,3.555l0.719,5.061c0.032,0.08 0.072,0.12 0.12,0.12h2.904l0.048,-0.036c0.032,-0.024 0.056,-0.052 0.072,-0.084l2.699,-15.584l0.001,-0.002l0.156,-0.902c0.00667,-0.02707 0.005,-0.0484 -0.005,-0.064c-0.01467,-0.02133 -0.045,-0.032 -0.091,-0.032h-2.664c-0.064,0 -0.104,0.032 -0.12,0.096l-1.055,7.3353l-0.505,3.5127l-0.505,-3.5127l-1.055,-7.3353c-0.016,-0.064 -0.056,-0.096 -0.12,-0.096h-2.16c-0.08,0 -0.128,0.032 -0.144,0.096l-1.071,7.3364l-0.513,3.5116l-0.498,-3.5138l-1.038,-7.3342c-0.016,-0.064 -0.056,-0.096 -0.12,-0.096h-2.688c-0.03133,0 -0.053,0.0076 -0.065,0.0228c-0.01267,0.016 -0.015,0.0404 -0.007,0.0732zM163.009,27.0554l0.009,-0.0529c-0.00333,0.01773 -0.00633,0.03537 -0.009,0.0529zM171.79,33.9362l0.034,2.6158l-1.031,-2.4041l-3.025,-7.0519h-2.16c-0.128,0 -0.192,0.064 -0.192,0.192l0.024,16.344c0,0.112 0.064,0.168 0.192,0.168h2.4c0.144,0 0.216,-0.064 0.216,-0.192l-0.12,-6.1881l-0.048,-2.4519l1.043,2.2194l3.109,6.6126h2.112c0.08,0 0.12,-0.048 0.12,-0.144l-0.024,-16.368c0,-0.128 -0.048,-0.192 -0.144,-0.192h-2.376c-0.144,0 -0.216,0.064 -0.216,0.192zM141.428,43.38c0.712,0.44 1.5,0.66 2.364,0.66c0.864,0 1.652,-0.22 2.364,-0.66c0.712,-0.44 1.28,-1.024 1.704,-1.752c0.424,-0.728 0.636,-1.532 0.636,-2.412l-0.024,-7.608c0,-0.88 -0.212,-1.68 -0.636,-2.4c-0.424,-0.72 -0.988,-1.296 -1.692,-1.728c-0.704,-0.432 -1.488,-0.648 -2.352,-0.648c-0.848,0 -1.632,0.216 -2.352,0.648c-0.72,0.432 -1.292,1.008 -1.716,1.728c-0.424,0.72 -0.636,1.52 -0.636,2.4l-0.024,7.608c0,0.88 0.216,1.684 0.648,2.412c0.432,0.728 1.004,1.312 1.716,1.752zM128.024,43.68c0,0.08 0.04,0.12 0.12,0.12l4.296,-0.024c0.944,-0.016 1.792,-0.248 2.544,-0.696c0.752,-0.448 1.352,-1.052 1.8,-1.812c0.448,-0.76 0.672,-1.604 0.672,-2.532v-6.888c0,-0.88 -0.216,-1.684 -0.648,-2.412c-0.432,-0.728 -1.012,-1.308 -1.74,-1.74c-0.728,-0.432 -1.532,-0.64 -2.412,-0.624l-4.488,0.024c-0.064,0 -0.096,0.032 -0.096,0.096zM145.052,40.548c-0.36,0.392 -0.78,0.588 -1.26,0.588c-0.496,0 -0.92,-0.188 -1.272,-0.564c-0.352,-0.376 -0.528,-0.828 -0.528,-1.356v-7.608c0,-0.544 0.176,-0.996 0.528,-1.356c0.352,-0.36 0.776,-0.54 1.272,-0.54c0.512,0 0.936,0.184 1.272,0.552c0.336,0.368 0.504,0.816 0.504,1.344l0.024,7.608c0,0.496 -0.18,0.94 -0.54,1.332zM131.952,40.848h-1l0.002,-1l0.022,-9.872l1.68,-0.024c0.512,-0.016 0.956,0.164 1.332,0.54c0.376,0.376 0.564,0.82 0.564,1.332v6.912c0,0.576 -0.204,1.072 -0.612,1.488c-0.408,0.416 -0.908,0.624 -1.5,0.624zM131.954,39.848h0.486c0.312,0 0.574,-0.10807 0.786,-0.3242c0.21733,-0.22153 0.326,-0.48413 0.326,-0.7878v-6.912c0,-0.23587 -0.09033,-0.44417 -0.271,-0.6249c-0.172,-0.17207 -0.37,-0.2546 -0.594,-0.2476l-0.713,0.0103zM144.592,39.216l-0.024,-7.6048c0,-0.2716 -0.08067,-0.4959 -0.242,-0.6729c-0.138,-0.15087 -0.316,-0.2263 -0.534,-0.2263c-0.21533,0 -0.401,0.0797 -0.557,0.2391c-0.162,0.16567 -0.243,0.38463 -0.243,0.6569v7.608c0,0.26467 0.086,0.48887 0.258,0.6726c0.15467,0.16493 0.33533,0.2474 0.542,0.2474c0.18733,0 0.36167,-0.08813 0.523,-0.2644c0.18467,-0.20073 0.277,-0.41927 0.277,-0.6556z">
</path>
</g>
<g >
<path     fill="#5C5145"  d="M107.048 57.56L108.04 52.064Q108.048 52.032 108.08 52.032L109.24 52.032Q109.272 52.032 109.28 52.064L110.232 57.56Q110.24 57.6 110.2 57.6L109.312 57.6Q109.28 57.6 109.272 57.56L109.184 56.976L108.096 56.976L108.008 57.56Q108 57.6 107.968 57.6L107.08 57.6Q107.048 57.6 107.048 57.56ZM108.256 56.12L109.024 56.12L108.696 53.872L108.648 53.576L108.616 53.872L108.256 56.12ZM110.808 57.6Q110.744 57.6 110.744 57.544L110.736 52.096Q110.736 52.032 110.8 52.032L111.52 52.032L112.872 55.184L112.832 52.096Q112.832 52.032 112.904 52.032L113.696 52.032Q113.744 52.032 113.744 52.096L113.752 57.552Q113.752 57.6 113.712 57.6L113.008 57.6L111.624 54.656L111.68 57.536Q111.68 57.6 111.608 57.6L110.808 57.6ZM116.46 57.6Q116.428 57.6 116.428 57.56L116.436 52.064Q116.436 52.032 116.468 52.032L119.036 52.032Q119.068 52.032 119.068 52.072L119.068 52.968Q119.068 53 119.036 53L117.396 53L117.396 54.248L119.036 54.248Q119.068 54.248 119.068 54.28L119.076 55.184Q119.076 55.216 119.044 55.216L117.396 55.216L117.396 56.616L119.044 56.616Q119.076 56.616 119.076 56.656L119.076 57.568Q119.076 57.6 119.044 57.6L116.46 57.6ZM120.684 57.6Q120.652 57.6 120.644 57.56L119.54 52.064Q119.532 52.032 119.572 52.032L120.476 52.032Q120.508 52.032 120.516 52.064L121.172 55.728L121.812 52.064Q121.82 52.032 121.852 52.032L122.748 52.032Q122.788 52.032 122.78 52.064L121.692 57.56Q121.684 57.6 121.652 57.6L120.684 57.6ZM123.284 57.6Q123.252 57.6 123.252 57.56L123.26 52.064Q123.26 52.032 123.292 52.032L125.86 52.032Q125.892 52.032 125.892 52.072L125.892 52.968Q125.892 53 125.86 53L124.22 53L124.22 54.248L125.86 54.248Q125.892 54.248 125.892 54.28L125.9 55.184Q125.9 55.216 125.868 55.216L124.22 55.216L124.22 56.616L125.868 56.616Q125.9 56.616 125.9 56.656L125.9 57.568Q125.9 57.6 125.868 57.6L123.284 57.6ZM126.684 57.6Q126.62 57.6 126.62 57.544L126.612 52.096Q126.612 52.032 126.676 52.032L127.396 52.032L128.748 55.184L128.708 52.096Q128.708 52.032 128.78 52.032L129.572 52.032Q129.62 52.032 129.62 52.096L129.628 57.552Q129.628 57.6 129.588 57.6L128.884 57.6L127.5 54.656L127.556 57.536Q127.556 57.6 127.484 57.6L126.684 57.6ZM132.345 57.6Q132.305 57.6 132.305 57.56L132.321 52.064Q132.321 52.032 132.353 52.032L134.913 52.032Q134.953 52.032 134.953 52.064L134.953 52.968Q134.953 53 134.921 53L133.281 53L133.281 54.24L134.921 54.24Q134.953 54.24 134.953 54.28L134.961 55.184Q134.961 55.216 134.921 55.216L133.281 55.216L133.281 57.56Q133.281 57.6 133.241 57.6L132.345 57.6ZM135.401 57.56L136.393 52.064Q136.401 52.032 136.433 52.032L137.593 52.032Q137.625 52.032 137.633 52.064L138.585 57.56Q138.593 57.6 138.553 57.6L137.665 57.6Q137.633 57.6 137.625 57.56L137.537 56.976L136.449 56.976L136.361 57.56Q136.353 57.6 136.321 57.6L135.433 57.6Q135.401 57.6 135.401 57.56ZM136.609 56.12L137.377 56.12L137.049 53.872L137.001 53.576L136.969 53.872L136.609 56.12ZM140.449 57.68Q140.017 57.68 139.661 57.46Q139.305 57.24 139.093 56.876Q138.881 56.512 138.881 56.072L138.881 55.704Q138.881 55.664 138.921 55.664L139.817 55.664Q139.849 55.664 139.849 55.704L139.849 56.072Q139.849 56.336 140.025 56.524Q140.201 56.712 140.449 56.712Q140.697 56.712 140.873 56.52Q141.049 56.328 141.049 56.072Q141.049 55.776 140.665 55.56Q140.537 55.488 140.265 55.336Q139.993 55.184 139.753 55.048Q139.313 54.792 139.101 54.404Q138.889 54.016 138.889 53.528Q138.889 53.08 139.105 52.724Q139.321 52.368 139.677 52.16Q140.033 51.952 140.449 51.952Q140.873 51.952 141.229 52.164Q141.585 52.376 141.797 52.732Q142.009 53.088 142.009 53.528L142.009 54.184Q142.009 54.216 141.977 54.216L141.081 54.216Q141.049 54.216 141.049 54.184L141.041 53.528Q141.041 53.248 140.865 53.072Q140.689 52.896 140.449 52.896Q140.201 52.896 140.025 53.084Q139.849 53.272 139.849 53.528Q139.849 53.792 139.961 53.968Q140.073 54.144 140.369 54.304Q140.409 54.328 140.525 54.388Q140.641 54.448 140.777 54.524Q140.913 54.6 141.021 54.656Q141.129 54.712 141.153 54.728Q141.553 54.952 141.785 55.276Q142.017 55.6 142.017 56.072Q142.017 56.528 141.805 56.892Q141.593 57.256 141.237 57.468Q140.881 57.68 140.449 57.68ZM143.377 57.6Q143.345 57.6 143.345 57.56L143.345 53L142.305 53Q142.265 53 142.265 52.96L142.273 52.064Q142.273 52.032 142.305 52.032L145.345 52.032Q145.385 52.032 145.385 52.064L145.385 52.96Q145.385 53 145.353 53L144.305 53L144.313 57.56Q144.313 57.6 144.281 57.6L143.377 57.6ZM145.809 57.6Q145.777 57.6 145.777 57.56L145.785 52.064Q145.785 52.032 145.817 52.032L148.385 52.032Q148.417 52.032 148.417 52.072L148.417 52.968Q148.417 53 148.385 53L146.745 53L146.745 54.248L148.385 54.248Q148.417 54.248 148.417 54.28L148.425 55.184Q148.425 55.216 148.393 55.216L146.745 55.216L146.745 56.616L148.393 56.616Q148.425 56.616 148.425 56.656L148.425 57.568Q148.425 57.6 148.393 57.6L145.809 57.6ZM149.169 57.6Q149.137 57.6 149.137 57.56L149.153 52.064Q149.153 52.032 149.185 52.032L150.801 52.032Q151.233 52.032 151.597 52.244Q151.961 52.456 152.177 52.812Q152.393 53.168 152.393 53.616Q152.393 53.912 152.305 54.148Q152.217 54.384 152.097 54.548Q151.977 54.712 151.881 54.792Q152.313 55.272 152.313 55.92L152.321 57.56Q152.321 57.6 152.281 57.6L151.377 57.6Q151.345 57.6 151.345 57.576L151.345 55.92Q151.345 55.632 151.141 55.42Q150.937 55.208 150.641 55.208L150.113 55.208L150.105 57.56Q150.105 57.6 150.073 57.6L149.169 57.6ZM150.113 54.248L150.801 54.248Q151.049 54.248 151.241 54.064Q151.433 53.88 151.433 53.616Q151.433 53.36 151.245 53.176Q151.057 52.992 150.801 52.992L150.113 52.992L150.113 54.248ZM155.005 57.6Q154.973 57.6 154.973 57.56L154.989 52.064Q154.989 52.032 155.021 52.032L156.557 52.032Q157.013 52.032 157.373 52.252Q157.733 52.472 157.941 52.832Q158.149 53.192 158.149 53.616Q158.149 53.96 157.993 54.256Q157.837 54.552 157.621 54.736Q157.853 54.968 157.981 55.272Q158.109 55.576 158.109 55.912Q158.109 56.376 157.885 56.76Q157.661 57.144 157.281 57.372Q156.901 57.6 156.437 57.6L155.005 57.6ZM155.949 54.24L156.557 54.24Q156.837 54.24 157.009 54.044Q157.181 53.848 157.181 53.616Q157.181 53.36 156.997 53.172Q156.813 52.984 156.557 52.984L155.949 52.984L155.949 54.24ZM155.941 56.624L156.437 56.624Q156.725 56.624 156.933 56.412Q157.141 56.2 157.141 55.912Q157.141 55.624 156.933 55.416Q156.725 55.208 156.437 55.208L155.949 55.208L155.941 56.624ZM160.157 57.68Q159.733 57.68 159.373 57.46Q159.013 57.24 158.801 56.872Q158.589 56.504 158.589 56.064L158.605 52.064Q158.605 52.032 158.637 52.032L159.533 52.032Q159.565 52.032 159.565 52.064L159.565 56.064Q159.565 56.336 159.737 56.524Q159.909 56.712 160.157 56.712Q160.413 56.712 160.585 56.524Q160.757 56.336 160.757 56.064L160.757 52.064Q160.757 52.032 160.789 52.032L161.685 52.032Q161.717 52.032 161.717 52.064L161.733 56.064Q161.733 56.512 161.521 56.88Q161.309 57.248 160.953 57.464Q160.597 57.68 160.157 57.68ZM162.437 57.6Q162.373 57.6 162.373 57.544L162.365 52.096Q162.365 52.032 162.429 52.032L163.149 52.032L164.501 55.184L164.461 52.096Q164.461 52.032 164.533 52.032L165.325 52.032Q165.373 52.032 165.373 52.096L165.381 57.552Q165.381 57.6 165.341 57.6L164.637 57.6L163.253 54.656L163.309 57.536Q163.309 57.6 163.237 57.6L162.437 57.6ZM166.117 57.6Q166.077 57.6 166.077 57.56L166.093 52.064Q166.093 52.032 166.125 52.032L167.621 52.024Q168.061 52.016 168.425 52.232Q168.789 52.448 169.005 52.812Q169.221 53.176 169.221 53.616L169.221 55.912Q169.221 56.376 168.997 56.756Q168.773 57.136 168.397 57.36Q168.021 57.584 167.549 57.592L166.117 57.6ZM167.053 56.616L167.549 56.616Q167.845 56.616 168.049 56.408Q168.253 56.2 168.253 55.912L168.253 53.608Q168.253 53.352 168.065 53.164Q167.877 52.976 167.621 52.984L167.061 52.992L167.053 56.616ZM169.885 57.6Q169.853 57.6 169.853 57.56L169.861 52.072Q169.861 52.032 169.901 52.032L170.789 52.032Q170.829 52.032 170.829 52.072L170.821 56.616L172.469 56.616Q172.509 56.616 172.509 56.656L172.509 57.56Q172.509 57.6 172.469 57.6L169.885 57.6ZM173.061 57.6Q173.029 57.6 173.029 57.56L173.037 52.064Q173.037 52.032 173.069 52.032L175.637 52.032Q175.669 52.032 175.669 52.072L175.669 52.968Q175.669 53 175.637 53L173.997 53L173.997 54.248L175.637 54.248Q175.669 54.248 175.669 54.28L175.677 55.184Q175.677 55.216 175.645 55.216L173.997 55.216L173.997 56.616L175.645 56.616Q175.677 56.616 175.677 56.656L175.677 57.568Q175.677 57.6 175.645 57.6L173.061 57.6ZM176.421 57.6Q176.389 57.6 176.389 57.56L176.405 52.064Q176.405 52.032 176.437 52.032L178.053 52.032Q178.485 52.032 178.849 52.244Q179.213 52.456 179.429 52.812Q179.645 53.168 179.645 53.616Q179.645 53.912 179.557 54.148Q179.469 54.384 179.349 54.548Q179.229 54.712 179.133 54.792Q179.565 55.272 179.565 55.92L179.573 57.56Q179.573 57.6 179.533 57.6L178.629 57.6Q178.597 57.6 178.597 57.576L178.597 55.92Q178.597 55.632 178.393 55.42Q178.189 55.208 177.893 55.208L177.365 55.208L177.357 57.56Q177.357 57.6 177.325 57.6L176.421 57.6ZM177.365 54.248L178.053 54.248Q178.301 54.248 178.493 54.064Q178.685 53.88 178.685 53.616Q178.685 53.36 178.497 53.176Q178.309 52.992 178.053 52.992L177.365 52.992L177.365 54.248ZM107.36 67.6Q107.32 67.6 107.32 67.56L107.336 62.064Q107.336 62.032 107.368 62.032L108.904 62.032Q109.64 62.032 110.068 62.48Q110.496 62.928 110.496 63.696Q110.496 64.264 110.272 64.68Q110.048 65.096 109.688 65.32Q109.328 65.544 108.904 65.544L108.296 65.544L108.296 67.56Q108.296 67.6 108.256 67.6L107.36 67.6ZM108.296 64.576L108.904 64.576Q109.16 64.576 109.348 64.332Q109.536 64.088 109.536 63.696Q109.536 63.384 109.368 63.184Q109.2 62.984 108.904 62.984L108.296 62.992L108.296 64.576ZM112.52 67.68Q112.088 67.68 111.732 67.46Q111.376 67.24 111.16 66.876Q110.944 66.512 110.944 66.072L110.952 63.536Q110.952 63.096 111.164 62.736Q111.376 62.376 111.736 62.16Q112.096 61.944 112.52 61.944Q112.952 61.944 113.304 62.16Q113.656 62.376 113.868 62.736Q114.08 63.096 114.08 63.536L114.088 66.072Q114.088 66.512 113.876 66.876Q113.664 67.24 113.308 67.46Q112.952 67.68 112.52 67.68ZM112.52 66.712Q112.76 66.712 112.94 66.516Q113.12 66.32 113.12 66.072L113.112 63.536Q113.112 63.272 112.944 63.088Q112.776 62.904 112.52 62.904Q112.272 62.904 112.096 63.084Q111.92 63.264 111.92 63.536L111.92 66.072Q111.92 66.336 112.096 66.524Q112.272 66.712 112.52 66.712ZM115.432 67.6Q115.4 67.6 115.392 67.56L114.448 62.064Q114.44 62.032 114.472 62.032L115.368 62.032Q115.4 62.032 115.408 62.064L115.92 65.68L116.448 62.064Q116.456 62.032 116.496 62.032L117.216 62.032Q117.248 62.032 117.256 62.064L117.776 65.68L118.296 62.064Q118.304 62.032 118.336 62.032L119.224 62.032Q119.264 62.032 119.256 62.064L118.304 67.56Q118.296 67.576 118.28 67.588Q118.264 67.6 118.264 67.6L117.296 67.6Q117.272 67.6 117.256 67.56L116.848 64.688L116.44 67.56Q116.432 67.6 116.4 67.6L115.432 67.6ZM119.76 67.6Q119.728 67.6 119.728 67.56L119.736 62.064Q119.736 62.032 119.768 62.032L122.336 62.032Q122.368 62.032 122.368 62.072L122.368 62.968Q122.368 63 122.336 63L120.696 63L120.696 64.248L122.336 64.248Q122.368 64.248 122.368 64.28L122.376 65.184Q122.376 65.216 122.344 65.216L120.696 65.216L120.696 66.616L122.344 66.616Q122.376 66.616 122.376 66.656L122.376 67.568Q122.376 67.6 122.344 67.6L119.76 67.6ZM123.12 67.6Q123.088 67.6 123.088 67.56L123.104 62.064Q123.104 62.032 123.136 62.032L124.752 62.032Q125.184 62.032 125.548 62.244Q125.912 62.456 126.128 62.812Q126.344 63.168 126.344 63.616Q126.344 63.912 126.256 64.148Q126.168 64.384 126.048 64.548Q125.928 64.712 125.832 64.792Q126.264 65.272 126.264 65.92L126.272 67.56Q126.272 67.6 126.232 67.6L125.328 67.6Q125.296 67.6 125.296 67.576L125.296 65.92Q125.296 65.632 125.092 65.42Q124.888 65.208 124.592 65.208L124.064 65.208L124.056 67.56Q124.056 67.6 124.024 67.6L123.12 67.6ZM124.064 64.248L124.752 64.248Q125 64.248 125.192 64.064Q125.384 63.88 125.384 63.616Q125.384 63.36 125.196 63.176Q125.008 62.992 124.752 62.992L124.064 62.992L124.064 64.248ZM126.976 67.6Q126.944 67.6 126.944 67.56L126.952 62.064Q126.952 62.032 126.984 62.032L129.552 62.032Q129.584 62.032 129.584 62.072L129.584 62.968Q129.584 63 129.552 63L127.912 63L127.912 64.248L129.552 64.248Q129.584 64.248 129.584 64.28L129.592 65.184Q129.592 65.216 129.56 65.216L127.912 65.216L127.912 66.616L129.56 66.616Q129.592 66.616 129.592 66.656L129.592 67.568Q129.592 67.6 129.56 67.6L126.976 67.6ZM130.344 67.6Q130.304 67.6 130.304 67.56L130.32 62.064Q130.32 62.032 130.352 62.032L131.848 62.024Q132.288 62.016 132.652 62.232Q133.016 62.448 133.232 62.812Q133.448 63.176 133.448 63.616L133.448 65.912Q133.448 66.376 133.224 66.756Q133 67.136 132.624 67.36Q132.248 67.584 131.776 67.592L130.344 67.6ZM131.28 66.616L131.776 66.616Q132.072 66.616 132.276 66.408Q132.48 66.2 132.48 65.912L132.48 63.608Q132.48 63.352 132.292 63.164Q132.104 62.976 131.848 62.984L131.288 62.992L131.28 66.616ZM136.092 67.6Q136.06 67.6 136.06 67.56L136.076 62.064Q136.076 62.032 136.108 62.032L137.644 62.032Q138.1 62.032 138.46 62.252Q138.82 62.472 139.028 62.832Q139.236 63.192 139.236 63.616Q139.236 63.96 139.08 64.256Q138.924 64.552 138.708 64.736Q138.94 64.968 139.068 65.272Q139.196 65.576 139.196 65.912Q139.196 66.376 138.972 66.76Q138.748 67.144 138.368 67.372Q137.988 67.6 137.524 67.6L136.092 67.6ZM137.036 64.24L137.644 64.24Q137.924 64.24 138.096 64.044Q138.268 63.848 138.268 63.616Q138.268 63.36 138.084 63.172Q137.9 62.984 137.644 62.984L137.036 62.984L137.036 64.24ZM137.028 66.624L137.524 66.624Q137.812 66.624 138.02 66.412Q138.228 66.2 138.228 65.912Q138.228 65.624 138.02 65.416Q137.812 65.208 137.524 65.208L137.036 65.208L137.028 66.624ZM140.516 67.6Q140.492 67.6 140.492 67.568L140.5 65.296L139.428 62.064Q139.42 62.032 139.452 62.032L140.34 62.032Q140.38 62.032 140.388 62.064L140.98 64.216L141.58 62.064Q141.588 62.032 141.62 62.032L142.516 62.032Q142.548 62.032 142.54 62.064L141.46 65.264L141.468 67.568Q141.468 67.6 141.436 67.6L140.516 67.6Z">
</path>
<path     fill="#EB7D00"  d="M144.993 67.6Q144.961 67.6 144.961 67.56L144.977 62.064Q144.977 62.032 145.009 62.032L146.625 62.032Q147.057 62.032 147.421 62.244Q147.785 62.456 148.001 62.812Q148.217 63.168 148.217 63.616Q148.217 63.912 148.129 64.148Q148.041 64.384 147.921 64.548Q147.801 64.712 147.705 64.792Q148.137 65.272 148.137 65.92L148.145 67.56Q148.145 67.6 148.105 67.6L147.201 67.6Q147.169 67.6 147.169 67.576L147.169 65.92Q147.169 65.632 146.965 65.42Q146.761 65.208 146.465 65.208L145.937 65.208L145.929 67.56Q145.929 67.6 145.897 67.6L144.993 67.6ZM145.937 64.248L146.625 64.248Q146.873 64.248 147.065 64.064Q147.257 63.88 147.257 63.616Q147.257 63.36 147.069 63.176Q146.881 62.992 146.625 62.992L145.937 62.992L145.937 64.248ZM150.297 67.68Q149.865 67.68 149.509 67.46Q149.153 67.24 148.937 66.876Q148.721 66.512 148.721 66.072L148.729 63.536Q148.729 63.096 148.941 62.736Q149.153 62.376 149.513 62.16Q149.873 61.944 150.297 61.944Q150.729 61.944 151.081 62.16Q151.433 62.376 151.645 62.736Q151.857 63.096 151.857 63.536L151.865 66.072Q151.865 66.512 151.653 66.876Q151.441 67.24 151.085 67.46Q150.729 67.68 150.297 67.68ZM150.297 66.712Q150.537 66.712 150.717 66.516Q150.897 66.32 150.897 66.072L150.889 63.536Q150.889 63.272 150.721 63.088Q150.553 62.904 150.297 62.904Q150.049 62.904 149.873 63.084Q149.697 63.264 149.697 63.536L149.697 66.072Q149.697 66.336 149.873 66.524Q150.049 66.712 150.297 66.712ZM152.505 67.6Q152.473 67.6 152.473 67.56L152.481 62.072Q152.481 62.032 152.521 62.032L153.409 62.032Q153.449 62.032 153.449 62.072L153.441 66.616L155.089 66.616Q155.129 66.616 155.129 66.656L155.129 67.56Q155.129 67.6 155.089 67.6L152.505 67.6ZM155.681 67.6Q155.649 67.6 155.649 67.56L155.657 62.072Q155.657 62.032 155.697 62.032L156.585 62.032Q156.625 62.032 156.625 62.072L156.617 66.616L158.265 66.616Q158.305 66.616 158.305 66.656L158.305 67.56Q158.305 67.6 158.265 67.6L155.681 67.6ZM158.865 67.6Q158.825 67.6 158.825 67.56L158.841 62.064Q158.841 62.032 158.873 62.032L160.369 62.024Q160.809 62.016 161.173 62.232Q161.537 62.448 161.753 62.812Q161.969 63.176 161.969 63.616L161.969 65.912Q161.969 66.376 161.745 66.756Q161.521 67.136 161.145 67.36Q160.769 67.584 160.297 67.592L158.865 67.6ZM159.801 66.616L160.297 66.616Q160.593 66.616 160.797 66.408Q161.001 66.2 161.001 65.912L161.001 63.608Q161.001 63.352 160.813 63.164Q160.625 62.976 160.369 62.984L159.809 62.992L159.801 66.616ZM164.081 67.68Q163.649 67.68 163.293 67.46Q162.937 67.24 162.721 66.876Q162.505 66.512 162.505 66.072L162.513 63.536Q162.513 63.096 162.725 62.736Q162.937 62.376 163.297 62.16Q163.657 61.944 164.081 61.944Q164.513 61.944 164.865 62.16Q165.217 62.376 165.429 62.736Q165.641 63.096 165.641 63.536L165.649 66.072Q165.649 66.512 165.437 66.876Q165.225 67.24 164.869 67.46Q164.513 67.68 164.081 67.68ZM164.081 66.712Q164.321 66.712 164.501 66.516Q164.681 66.32 164.681 66.072L164.673 63.536Q164.673 63.272 164.505 63.088Q164.337 62.904 164.081 62.904Q163.833 62.904 163.657 63.084Q163.481 63.264 163.481 63.536L163.481 66.072Q163.481 66.336 163.657 66.524Q163.833 66.712 164.081 66.712ZM166.993 67.6Q166.961 67.6 166.953 67.56L166.009 62.064Q166.001 62.032 166.033 62.032L166.929 62.032Q166.961 62.032 166.969 62.064L167.481 65.68L168.009 62.064Q168.017 62.032 168.057 62.032L168.777 62.032Q168.809 62.032 168.817 62.064L169.337 65.68L169.857 62.064Q169.865 62.032 169.897 62.032L170.785 62.032Q170.825 62.032 170.817 62.064L169.865 67.56Q169.857 67.576 169.841 67.588Q169.825 67.6 169.825 67.6L168.857 67.6Q168.833 67.6 168.817 67.56L168.409 64.688L168.001 67.56Q167.993 67.6 167.961 67.6L166.993 67.6ZM171.361 67.6Q171.297 67.6 171.297 67.544L171.289 62.096Q171.289 62.032 171.353 62.032L172.073 62.032L173.425 65.184L173.385 62.096Q173.385 62.032 173.457 62.032L174.249 62.032Q174.297 62.032 174.297 62.096L174.305 67.552Q174.305 67.6 174.265 67.6L173.561 67.6L172.177 64.656L172.233 67.536Q172.233 67.6 172.161 67.6L171.361 67.6Z">
</path>
</g>
</g>
<defs>
<linearGradient id="linear_fill_5_1_0" x1="0" y1="46.5" x2="217" y2="46.5" gradientUnits="userSpaceOnUse">
<stop offset="0" stop-color="#FF9500" stop-opacity="0.4" />
<stop offset="0.5023" stop-color="#30737A" stop-opacity="0.2" />
<stop offset="0.9992" stop-color="#A67B1E" stop-opacity="0" />
</linearGradient>
<filter id="filter_5_4" x="22.160400390625" y="14.498291015625" width="61.440673828125" height="63.07159423828125" filterUnits="userSpaceOnUse" color-interpolation-filters="sRGB">
<feFlood flood-opacity="0" result="feFloodId_5_4"/>
<feColorMatrix in="SourceAlpha" type="matrix" values="0 0 0 0 0 0 0 0 0 0 0 0 0 0 0 0 0 0 127 0" result="hardAlpha_5_4"/>
<feOffset dx="0" dy="2"/>
<feGaussianBlur stdDeviation="2"/>
<feComposite in2="hardAlpha_5_4" operator="out"/>
<feColorMatrix type="matrix" values="0 0 0 0 0 0 0 0 0 0 0 0 0 0 0 0 0 0 0.25 0"/>
<feBlend mode="normal" in2="feFloodId_5_4" result="dropShadow_1_5_4"/>
<feColorMatrix in="SourceAlpha" type="matrix" values="0 0 0 0 0 0 0 0 0 0 0 0 0 0 0 0 0 0 127 0" result="hardAlpha_5_4"/>
<feOffset dx="-4" dy="1"/>
<feGaussianBlur stdDeviation="5"/>
<feComposite in2="hardAlpha_5_4" operator="out"/>
<feColorMatrix type="matrix" values="0 0 0 0 0 0 0 0 0 0 0 0 0 0 0 0 0 0 0.05 0"/>
<feBlend mode="normal" in2="feFloodId_5_4" result="dropShadow_1_5_4"/>
<feBlend mode="normal" in="SourceGraphic" in2="dropShadow_1_5_4" result="shape_5_4"/>
</filter>
<linearGradient id="linear_border_5_19_0" x1="107" y1="36" x2="176" y2="36" gradientUnits="userSpaceOnUse">
<stop offset="0" stop-color="#ED7300" stop-opacity="0.4" />
<stop offset="1" stop-color="#005EFF" stop-opacity="0.4" />
</linearGradient>
<filter id="filter_5_23" x="104.8239868164062" y="21" width="79.1760131835938" height="49.47999267578132" filterUnits="userSpaceOnUse" color-interpolation-filters="sRGB">
<feFlood flood-opacity="0" result="feFloodId_5_23"/>
<feColorMatrix in="SourceAlpha" type="matrix" values="0 0 0 0 0 0 0 0 0 0 0 0 0 0 0 0 0 0 127 0" result="hardAlpha_5_23"/>
<feOffset dx="0" dy="1.6"/>
<feGaussianBlur stdDeviation="0.6"/>
<feComposite in2="hardAlpha_5_23" operator="out"/>
<feColorMatrix type="matrix" values="0 0 0 0 0 0 0 0 0 0 0 0 0 0 0 0 0 0 0.15 0"/>
<feBlend mode="normal" in2="feFloodId_5_23" result="dropShadow_1_5_23"/>
<feBlend mode="normal" in="SourceGraphic" in2="dropShadow_1_5_23" result="shape_5_23"/>
</filter>
</defs>
</svg>
