<svg xmlns="http://www.w3.org/2000/svg" width="217" height="93" fill="none"><path fill="url(#a)" d="M0 93h217V0H0z"/><g filter="url(#b)"><path fill="#BABABA" d="M44.69 29.04c3.883-4.414 15.522-6.012 18.51-4.46s12.186 13.369 10.46 16.27c-2.887 4.852-7.812 8.405-8.72 9.11-1.047-1.685-7.6 1.177-6.1 4.22.114 1.278-6.402 4.375-9.367 4.632a1.26 1.26 0 0 1-.693-.002c-3.86-.477-10.76-8.456-11.59-11.69-1.483-5.78 6.068-16.452 7.5-18.08"/><path stroke="rgba(107, 107, 107, 0.78)" d="M44.69 29.044c3.883-4.415 15.526-6.018 18.514-4.466S75.382 37.949 73.656 40.85M44.69 29.044c-1.432 1.627-8.98 12.296-7.497 18.077.83 3.233 7.73 11.213 11.589 11.69M44.69 29.044c7.11 13.238 14.787 17.752 14.145 18.648m14.82-6.841c-2.886 4.851-7.802 8.408-8.71 9.113-1.048-1.685-7.61 1.177-6.11 4.22.124 1.39-7.593 4.931-10.053 4.627m24.874-17.96-14.82 6.841m-10.054 11.12c2.753.875 9.411-10.224 10.053-11.12"/><path fill="#D1A656" stroke="rgba(122, 85, 15, 1)" d="M58.846 54.167c-1.249-3.161 4.911-5.843 6.103-4.219l13.805 14.943c-.864-1.572-8.992 3.082-7.387 5.841z"/><path fill="#B87E44" stroke="rgba(122, 85, 15, 1)" d="M71.047 70.083c.497 2.99 9.538-2.02 7.71-5.193-.238-1.646-7.975 2.486-7.71 5.193Z"/><path fill="#89A5E8" stroke="rgba(69, 106, 191, 1)" d="M51.156 31.599c-.86-2.595 11.068-4.457 11.083-3.416 1.446.24 7.633 9.476 6.78 9.335.04 1.7-7.908 5.252-9.488 4.565-.905 0-6.788-5.697-8.375-10.484Z"/><path stroke="rgba(255, 255, 255, 1)" stroke-linecap="round" d="m62.604 36.679.09.3.015.042.012.03.016.038a1 1 0 0 0 .042.093 1 1 0 0 0 .045.081l.026.043.029.047.055.092.022.032.017.025a1 1 0 0 1 .04.065l.023.037a1 1 0 0 1 .05.093 2 2 0 0 1 .058.128 4 4 0 0 0 .094.198l.051.12a1 1 0 0 0 .048.095 2 2 0 0 1 .051.099l.026.054.025.053.024.048.023.047.047.091a1 1 0 0 1 .051.094l.054.106a3 3 0 0 0 .083.16 2 2 0 0 0 .065.116l.009.016.006.011.006.01.006.01.006.013.007.014.013.03.006.019.005.014.007.016.017.047.023.066M61.07 37.166l.504-.31.075-.041.077-.041.226-.119a3 3 0 0 1 .144-.075l.067-.034.072-.036a6 6 0 0 0 .285-.151l.137-.07a3 3 0 0 1 .273-.122 6 6 0 0 1 .334-.13l.05-.022.093-.036.109-.041.023-.007.028-.01.033-.016.058-.03.07-.036M66.073 35.071a8 8 0 0 0-.263-.125.4.4 0 0 0-.1-.029.4.4 0 0 0-.087-.01H65.5a.59.59 0 0 0-.254.088 1 1 0 0 0-.076.05 1 1 0 0 0-.066.054 1 1 0 0 0-.11.12l-.058.084-.057.088a2 2 0 0 0-.094.173 1 1 0 0 0-.074.261 2 2 0 0 0-.02.21 5 5 0 0 0-.003.216q0 .05.01.103a.8.8 0 0 0 .154.341 2 2 0 0 0 .074.095.3.3 0 0 0 .08.061l.038.015a1 1 0 0 0 .141.029h.12a1 1 0 0 0 .077-.011 1.2 1.2 0 0 0 .246-.085 6 6 0 0 1 .206-.095 2 2 0 0 1 .32-.115 3 3 0 0 1 .207-.037l.095-.015a2 2 0 0 1 .314-.025h.08l.021.006a.7.7 0 0 1 .205.128q.008.007.015.02l.017.031.045.092a.4.4 0 0 1 .033.119 1 1 0 0 1 .008.123l.001.068a.731.731 0 0 1-.022.15 2 2 0 0 1-.13.347 1.33 1.33 0 0 1-.195.269 2 2 0 0 1-.148.13 1.5 1.5 0 0 1-.276.153 1 1 0 0 1-.204.062l-.092.02-.085.013-.185.018-.078.006-.126.01a5 5 0 0 0-.21.01h-.139l-.044-.002-.036-.002a.2.2 0 0 1-.055-.015l-.063-.024"/><path fill="#FCD056" stroke="rgba(184, 151, 61, 1)" d="M47.868 40.777c.76-.834 3.484 2.487 2.927 3.476-.886 1.574-3.467 3.783-3.467 4.44 0 .659 1.295 1.065 1.295 2.284 0 .645-5.151.057-5.142-.328-.403-.298-1.181-4.14-1.03-6.121.151-1.98 2.09 1.795 2.4 1.299 1.851-2.961 2.257-4.215 3.017-5.05Z"/></g><path stroke="rgba(0, 0, 0, 0.22)" stroke-width=".4" d="M95.5 28v39"/><g filter="url(#c)"><path fill="#000" d="M110.36 43.8q-.096 0-.096-.12V30h-3.12q-.12 0-.12-.12l.024-2.688q0-.096.096-.096h9.12q.12 0 .12.096v2.688q0 .12-.096.12h-3.144l.024 13.68q0 .12-.096.12zm11.28.24q-1.296 0-2.364-.66t-1.704-1.752-.636-2.412v-1.104q0-.12.12-.12h2.688q.096 0 .096.12v1.104q0 .792.528 1.356t1.272.564 1.272-.576.528-1.344q0-.888-1.152-1.536l-1.2-.672q-.816-.456-1.536-.864-1.32-.768-1.956-1.932t-.636-2.628q0-1.344.648-2.412t1.716-1.692 2.316-.624q1.272 0 2.34.636t1.704 1.704.636 2.388v1.968q0 .096-.096.096h-2.688q-.096 0-.096-.096l-.024-1.968q0-.84-.528-1.368t-1.248-.528q-.744 0-1.272.564t-.528 1.332q0 .792.336 1.32t1.224 1.008q.12.072.468.252t.756.408.732.396.396.216q1.2.672 1.896 1.644t.696 2.388q0 1.368-.636 2.46t-1.704 1.728-2.364.636m6.504-.24q-.12 0-.12-.12l.048-16.488q0-.096.096-.096l4.488-.024q1.32-.024 2.412.624t1.74 1.74.648 2.412v6.888q0 1.392-.672 2.532t-1.8 1.812-2.544.696zm2.808-2.952h1.488q.888 0 1.5-.624t.612-1.488v-6.912q0-.768-.564-1.332t-1.332-.54l-1.68.024zm12.84 3.192q-1.296 0-2.364-.66t-1.716-1.752-.648-2.412l.024-7.608q0-1.32.636-2.4t1.716-1.728 2.352-.648q1.296 0 2.352.648t1.692 1.728.636 2.4l.024 7.608q0 1.32-.636 2.412t-1.704 1.752-2.364.66m0-2.904q.72 0 1.26-.588t.54-1.332l-.024-7.608q0-.792-.504-1.344t-1.272-.552q-.744 0-1.272.54t-.528 1.356v7.608q0 .792.528 1.356t1.272.564m8.736 2.664q-.096 0-.12-.12l-2.832-16.488q-.024-.096.072-.096h2.688q.096 0 .12.096l1.536 10.848 1.584-10.848q.024-.096.144-.096h2.16q.096 0 .12.096l1.56 10.848 1.56-10.848q.024-.096.12-.096h2.664q.12 0 .096.096l-2.856 16.488q-.024.048-.072.084l-.048.036h-2.904q-.072 0-.12-.12l-1.224-8.616-1.224 8.616q-.024.12-.12.12zm13.104 0q-.192 0-.192-.168l-.024-16.344q0-.192.192-.192h2.16l4.056 9.456-.12-9.264q0-.192.216-.192h2.376q.144 0 .144.192l.024 16.368q0 .144-.12.144h-2.112l-4.152-8.832.168 8.64q0 .192-.216.192z"/><path fill="url(#d)" fill-rule="evenodd" d="M138.852 42.138a5.6 5.6 0 0 1-.649-1.631q-.2.663-.558 1.269a6.05 6.05 0 0 1-2.149 2.163q-1.357.809-3.039.837l-4.307.024h-.006q-.474 0-.797-.323a1.08 1.08 0 0 1-.323-.797l.007-2.506a5.5 5.5 0 0 1-.459 1.005 5.75 5.75 0 0 1-2.056 2.084 5.5 5.5 0 0 1-2.876.777 5.4 5.4 0 0 1-2.89-.81 5.95 5.95 0 0 1-2.042-2.099 5.7 5.7 0 0 1-.772-2.915v-1.104q0-.474.323-.797t.797-.323h1.965q-1.543-.91-2.303-2.3-.758-1.389-.758-3.108 0-.297.027-.584h-1.841l.022 12.678q0 .413-.243.717-.324.405-.853.405h-2.712q-.53 0-.853-.405a1.1 1.1 0 0 1-.243-.715V31h-2.12q-.474 0-.797-.323a1.08 1.08 0 0 1-.323-.797l.024-2.697q0-.453.317-.77a1.06 1.06 0 0 1 .779-.317h9.12q.41 0 .715.243.405.324.405.853v.6q.615-.696 1.436-1.175a5.5 5.5 0 0 1 2.82-.761q1.547 0 2.852.777a5.8 5.8 0 0 1 2.051 2.051q.33.557.521 1.165l.008-2.66q0-.46.317-.776a1.06 1.06 0 0 1 .779-.317l4.483-.024a5.43 5.43 0 0 1 2.927.764 5.88 5.88 0 0 1 2.662 3.415 5.5 5.5 0 0 1 .622-1.55 5.85 5.85 0 0 1 2.064-2.079 5.47 5.47 0 0 1 2.866-.79 5.4 5.4 0 0 1 2.875.796 5.9 5.9 0 0 1 2.21 2.401l-.282-1.642q-.102-.482.187-.867.317-.424.866-.424h2.688q.399 0 .703.243.293.235.387.61l.013.051.568 4.015.587-4.017.012-.049q.106-.423.463-.661.288-.192.651-.192h2.16q.399 0 .703.243.292.235.387.61l.013.05.577 4.016.577-4.016.013-.05q.095-.375.387-.61.304-.243.703-.243h2.664a1.07 1.07 0 0 1 .833.361l.02-.02q.34-.34.851-.341h2.819l2.332 5.436-.055-4.231q0-.559.39-.904.337-.3.826-.301h2.376q.572 0 .908.448.236.315.236.744l.024 16.366q0 .435-.262.75-.33.396-.858.396h-2.747l-2.426-5.16.077 3.949q0 .565-.39.91-.337.3-.826.301h-2.4q-.472 0-.803-.29a1.11 1.11 0 0 1-.389-.878l-.019-13.01-2.317 13.374-.066.131a1.2 1.2 0 0 1-.366.437l-.315.236h-3.237q-.45 0-.773-.323a1.25 1.25 0 0 1-.275-.426l-.045-.111-.251-1.766-.238 1.675-.005.027a1.15 1.15 0 0 1-.316.601 1.07 1.07 0 0 1-.785.323h-2.904q-.462 0-.785-.323a1.15 1.15 0 0 1-.316-.6l-.002-.014-1.95-11.353.021 6.703a5.7 5.7 0 0 1-.772 2.918 5.95 5.95 0 0 1-2.042 2.1q-1.31.81-2.89.809a5.4 5.4 0 0 1-2.89-.81 6.05 6.05 0 0 1-2.05-2.092m-11.81-4.78.009-3.078-.048.051a1.06 1.06 0 0 1-.779.317h-1.435a6.4 6.4 0 0 1 1.672 1.598q.367.512.581 1.112m-4.605-4.025-.021-1.737q0-.438-.235-.673a.74.74 0 0 0-.541-.235.72.72 0 0 0-.542.247.92.92 0 0 0-.258.649q0 .501.18.783.195.31.856.665l.019.011.019.011a10 10 0 0 0 .523.279m1.315 1.851a6 6 0 0 0-.396-.216q-.324-.168-.732-.396a27 27 0 0 0-.756-.408q-.348-.18-.468-.252-.888-.48-1.224-1.008t-.336-1.32q0-.768.528-1.332a1.68 1.68 0 0 1 1.272-.564q.72 0 1.248.528t.528 1.368l.024 1.968q0 .096.096.096h2.688q.096 0 .096-.096v-1.968q0-1.32-.636-2.388a4.8 4.8 0 0 0-1.704-1.704 4.5 4.5 0 0 0-2.34-.636q-1.248 0-2.316.624a4.83 4.83 0 0 0-1.94 2.11 4.4 4.4 0 0 0-.351 1.123q-.073.42-.073.871 0 1.464.636 2.628t1.956 1.932q.72.408 1.536.864l1.2.672q1.152.648 1.152 1.536 0 .768-.528 1.344t-1.272.576a1.68 1.68 0 0 1-1.272-.564 1.91 1.91 0 0 1-.528-1.356v-1.104q0-.12-.096-.12h-2.688q-.12 0-.12.12v1.104q0 1.32.636 2.412a4.97 4.97 0 0 0 1.704 1.752q1.068.66 2.364.66t2.364-.636a4.77 4.77 0 0 0 1.704-1.728q.636-1.092.636-2.46 0-1.416-.696-2.388t-1.896-1.644m-2.916 2.83q.004.048.004.098v1.104q0 .397.258.673a.72.72 0 0 0 .542.247.7.7 0 0 0 .535-.252.96.96 0 0 0 .265-.668q0-.303-.642-.664zM116.169 30h.119q.096 0 .096-.12v-2.688q0-.096-.12-.096h-9.12q-.096 0-.096.096l-.024 2.688q0 .12.12.12h3.12v13.68q0 .12.096.12h2.712q.096 0 .096-.12L113.146 31l-.002-1zm33.407-2.808.155.9v.004l2.677 15.584q.024.12.12.12h2.904q.096 0 .12-.12l.719-5.061.505-3.555.505 3.555.719 5.061q.048.12.12.12h2.904l.048-.036a.24.24 0 0 0 .072-.084l2.699-15.584.001-.002.156-.902q.01-.04-.005-.064-.022-.032-.091-.032h-2.664q-.096 0-.12.096l-1.055 7.335-.505 3.513-.505-3.513L158 27.192q-.024-.096-.12-.096h-2.16q-.12 0-.144.096l-1.071 7.336-.513 3.512-.498-3.514-1.038-7.334q-.024-.096-.12-.096h-2.688q-.047 0-.065.023-.02.024-.007.073m13.433-.137.009-.053zm8.781 6.881.034 2.616-1.031-2.404-3.025-7.052h-2.16q-.192 0-.192.192l.024 16.344q0 .168.192.168h2.4q.216 0 .216-.192l-.12-6.188-.048-2.452 1.043 2.22 3.109 6.612h2.112q.12 0 .12-.144l-.024-16.368q0-.192-.144-.192h-2.376q-.216 0-.216.192zm-30.362 9.444q1.068.66 2.364.66t2.364-.66a4.97 4.97 0 0 0 1.704-1.752 4.7 4.7 0 0 0 .636-2.412l-.024-7.608q0-1.32-.636-2.4a4.9 4.9 0 0 0-1.692-1.728 4.4 4.4 0 0 0-2.352-.648q-1.272 0-2.352.648a4.86 4.86 0 0 0-1.716 1.728 4.64 4.64 0 0 0-.636 2.4l-.024 7.608q0 1.32.648 2.412a5.1 5.1 0 0 0 1.716 1.752m-13.404.3q0 .12.12.12l4.296-.024q1.416-.024 2.544-.696a5.1 5.1 0 0 0 1.8-1.812q.672-1.14.672-2.532v-6.888q0-1.32-.648-2.412a4.9 4.9 0 0 0-1.74-1.74 4.47 4.47 0 0 0-2.412-.624l-4.488.024q-.096 0-.096.096zm17.028-3.132q-.54.588-1.26.588a1.68 1.68 0 0 1-1.272-.564 1.91 1.91 0 0 1-.528-1.356v-7.608q0-.816.528-1.356t1.272-.54q.768 0 1.272.552t.504 1.344l.024 7.608q0 .744-.54 1.332m-13.1.3h-1l.002-1 .022-9.872 1.68-.024q.768-.024 1.332.54t.564 1.332v6.912q0 .864-.612 1.488a2.02 2.02 0 0 1-1.5.624zm.002-1h.486q.468 0 .786-.324.326-.333.326-.788v-6.912a.86.86 0 0 0-.271-.625.78.78 0 0 0-.594-.247l-.713.01zm12.638-.632-.024-7.605a.96.96 0 0 0-.242-.673.69.69 0 0 0-.534-.226.75.75 0 0 0-.557.24q-.243.248-.243.656v7.608q0 .397.258.673a.72.72 0 0 0 .542.247q.281 0 .523-.264.277-.302.277-.656"/><path fill="#5C5145" d="m107.048 57.56.992-5.496q.008-.032.04-.032h1.16q.032 0 .04.032l.952 5.496q.008.04-.032.04h-.888q-.032 0-.04-.04l-.088-.584h-1.088l-.088.584q-.008.04-.04.04h-.888q-.032 0-.032-.04m1.208-1.44h.768l-.328-2.248-.048-.296-.032.296zm2.552 1.48q-.064 0-.064-.056l-.008-5.448q0-.064.064-.064h.72l1.352 3.152-.04-3.088q0-.064.072-.064h.792q.048 0 .048.064l.008 5.456q0 .048-.04.048h-.704l-1.384-2.944.056 2.88q0 .064-.072.064zm5.652 0q-.032 0-.032-.04l.008-5.496q0-.032.032-.032h2.568q.032 0 .032.04v.896q0 .032-.032.032h-1.64v1.248h1.64q.032 0 .032.032l.008.904q0 .032-.032.032h-1.648v1.4h1.648q.032 0 .032.04v.912q0 .032-.032.032zm4.224 0q-.032 0-.04-.04l-1.104-5.496q-.008-.032.032-.032h.904q.032 0 .04.032l.656 3.664.64-3.664q.008-.032.04-.032h.896q.04 0 .032.032l-1.088 5.496q-.008.04-.04.04zm2.6 0q-.032 0-.032-.04l.008-5.496q0-.032.032-.032h2.568q.032 0 .032.04v.896q0 .032-.032.032h-1.64v1.248h1.64q.032 0 .032.032l.008.904q0 .032-.032.032h-1.648v1.4h1.648q.032 0 .032.04v.912q0 .032-.032.032zm3.4 0q-.064 0-.064-.056l-.008-5.448q0-.064.064-.064h.72l1.352 3.152-.04-3.088q0-.064.072-.064h.792q.048 0 .048.064l.008 5.456q0 .048-.04.048h-.704l-1.384-2.944.056 2.88q0 .064-.072.064zm5.661 0q-.04 0-.04-.04l.016-5.496q0-.032.032-.032h2.56q.04 0 .04.032v.904q0 .032-.032.032h-1.64v1.24h1.64q.032 0 .032.04l.008.904q0 .032-.04.032h-1.64v2.344q0 .04-.04.04zm3.056-.04.992-5.496q.008-.032.04-.032h1.16q.032 0 .04.032l.952 5.496q.008.04-.032.04h-.888q-.032 0-.04-.04l-.088-.584h-1.088l-.088.584q-.008.04-.04.04h-.888q-.032 0-.032-.04m1.208-1.44h.768l-.328-2.248-.048-.296-.032.296zm3.84 1.56q-.432 0-.788-.22t-.568-.584-.212-.804v-.368q0-.04.04-.04h.896q.032 0 .032.04v.368q0 .264.176.452t.424.188.424-.192.176-.448q0-.296-.384-.512l-.4-.224-.512-.288q-.44-.256-.652-.644t-.212-.876q0-.448.216-.804t.572-.564.772-.208q.424 0 .78.212t.568.568.212.796v.656q0 .032-.032.032h-.896q-.032 0-.032-.032l-.008-.656q0-.28-.176-.456t-.416-.176q-.248 0-.424.188t-.176.444q0 .264.112.44t.408.336q.04.024.156.084t.252.136.244.132.132.072q.4.224.632.548t.232.796q0 .456-.212.82t-.568.576-.788.212m2.928-.08q-.032 0-.032-.04V53h-1.04q-.04 0-.04-.04l.008-.896q0-.032.032-.032h3.04q.04 0 .04.032v.896q0 .04-.032.04h-1.048l.008 4.56q0 .04-.032.04zm2.432 0q-.032 0-.032-.04l.008-5.496q0-.032.032-.032h2.568q.032 0 .032.04v.896q0 .032-.032.032h-1.64v1.248h1.64q.032 0 .032.032l.008.904q0 .032-.032.032h-1.648v1.4h1.648q.032 0 .032.04v.912q0 .032-.032.032zm3.36 0q-.032 0-.032-.04l.016-5.496q0-.032.032-.032h1.616q.432 0 .796.212t.58.568.216.804q0 .296-.088.532t-.208.4-.216.244q.432.48.432 1.128l.008 1.64q0 .04-.04.04h-.904q-.032 0-.032-.024V55.92q0-.288-.204-.5t-.5-.212h-.528l-.008 2.352q0 .04-.032.04zm.944-3.352h.688q.248 0 .44-.184t.192-.448q0-.256-.188-.44t-.444-.184h-.688zm4.892 3.352q-.032 0-.032-.04l.016-5.496q0-.032.032-.032h1.536q.456 0 .816.22t.568.58.208.784q0 .344-.156.64t-.372.48q.232.232.36.536t.128.64q0 .464-.224.848t-.604.612-.844.228zm.944-3.36h.608q.28 0 .452-.196t.172-.428q0-.256-.184-.444t-.44-.188h-.608zm-.008 2.384h.496q.288 0 .496-.212t.208-.5-.208-.496-.496-.208h-.488zm4.216 1.056q-.424 0-.784-.22t-.572-.588-.212-.808l.016-4q0-.032.032-.032h.896q.032 0 .032.032v4q0 .272.172.46t.42.188q.256 0 .428-.188t.172-.46v-4q0-.032.032-.032h.896q.032 0 .032.032l.016 4q0 .448-.212.816t-.568.584-.796.216m2.28-.08q-.064 0-.064-.056l-.008-5.448q0-.064.064-.064h.72l1.352 3.152-.04-3.088q0-.064.072-.064h.792q.048 0 .048.064l.008 5.456q0 .048-.04.048h-.704l-1.384-2.944.056 2.88q0 .064-.072.064zm3.68 0q-.04 0-.04-.04l.016-5.496q0-.032.032-.032l1.496-.008q.44-.008.804.208t.58.58.216.804v2.296q0 .464-.224.844t-.6.604-.848.232zm.936-.984h.496q.296 0 .5-.208t.204-.496v-2.304q0-.256-.188-.444t-.444-.18l-.56.008zm2.832.984q-.032 0-.032-.04l.008-5.488q0-.04.04-.04h.888q.04 0 .04.04l-.008 4.544h1.648q.04 0 .04.04v.904q0 .04-.04.04zm3.176 0q-.032 0-.032-.04l.008-5.496q0-.032.032-.032h2.568q.032 0 .032.04v.896q0 .032-.032.032h-1.64v1.248h1.64q.032 0 .032.032l.008.904q0 .032-.032.032h-1.648v1.4h1.648q.032 0 .032.04v.912q0 .032-.032.032zm3.36 0q-.032 0-.032-.04l.016-5.496q0-.032.032-.032h1.616q.432 0 .796.212t.58.568.216.804q0 .296-.088.532t-.208.4-.216.244q.432.48.432 1.128l.008 1.64q0 .04-.04.04h-.904q-.032 0-.032-.024V55.92q0-.288-.204-.5t-.5-.212h-.528l-.008 2.352q0 .04-.032.04zm.944-3.352h.688q.248 0 .44-.184t.192-.448q0-.256-.188-.44t-.444-.184h-.688zM107.36 67.6q-.04 0-.04-.04l.016-5.496q0-.032.032-.032h1.536q.736 0 1.164.448t.428 1.216q0 .568-.224.984t-.584.64-.784.224h-.608v2.016q0 .04-.04.04zm.936-3.024h.608q.256 0 .444-.244t.188-.636q0-.312-.168-.512t-.464-.2l-.608.008zm4.224 3.104q-.432 0-.788-.22t-.572-.584-.216-.804l.008-2.536q0-.44.212-.8t.572-.576.784-.216q.432 0 .784.216t.564.576.212.8l.008 2.536q0 .44-.212.804t-.568.584-.788.22m0-.968q.24 0 .42-.196t.18-.444l-.008-2.536q0-.264-.168-.448t-.424-.184q-.248 0-.424.18t-.176.452v2.536q0 .264.176.452t.424.188m2.912.888q-.032 0-.04-.04l-.944-5.496q-.008-.032.024-.032h.896q.032 0 .04.032l.512 3.616.528-3.616q.008-.032.048-.032h.72q.032 0 .04.032l.52 3.616.52-3.616q.008-.032.04-.032h.888q.04 0 .032.032l-.952 5.496q-.008.016-.024.028l-.016.012h-.968q-.024 0-.04-.04l-.408-2.872-.408 2.872q-.008.04-.04.04zm4.328 0q-.032 0-.032-.04l.008-5.496q0-.032.032-.032h2.568q.032 0 .032.04v.896q0 .032-.032.032h-1.64v1.248h1.64q.032 0 .032.032l.008.904q0 .032-.032.032h-1.648v1.4h1.648q.032 0 .032.04v.912q0 .032-.032.032zm3.36 0q-.032 0-.032-.04l.016-5.496q0-.032.032-.032h1.616q.432 0 .796.212t.58.568.216.804q0 .296-.088.532t-.208.4-.216.244q.432.48.432 1.128l.008 1.64q0 .04-.04.04h-.904q-.032 0-.032-.024V65.92q0-.288-.204-.5t-.5-.212h-.528l-.008 2.352q0 .04-.032.04zm.944-3.352h.688q.248 0 .44-.184t.192-.448q0-.256-.188-.44t-.444-.184h-.688zm2.912 3.352q-.032 0-.032-.04l.008-5.496q0-.032.032-.032h2.568q.032 0 .032.04v.896q0 .032-.032.032h-1.64v1.248h1.64q.032 0 .032.032l.008.904q0 .032-.032.032h-1.648v1.4h1.648q.032 0 .032.04v.912q0 .032-.032.032zm3.368 0q-.04 0-.04-.04l.016-5.496q0-.032.032-.032l1.496-.008q.44-.008.804.208t.58.58.216.804v2.296q0 .464-.224.844t-.6.604-.848.232zm.936-.984h.496q.296 0 .5-.208t.204-.496v-2.304q0-.256-.188-.444t-.444-.18l-.56.008zm4.812.984q-.032 0-.032-.04l.016-5.496q0-.032.032-.032h1.536q.456 0 .816.22t.568.58.208.784q0 .344-.156.64t-.372.48q.232.232.36.536t.128.64q0 .464-.224.848t-.604.612-.844.228zm.944-3.36h.608q.28 0 .452-.196t.172-.428q0-.256-.184-.444t-.44-.188h-.608zm-.008 2.384h.496q.288 0 .496-.212t.208-.5-.208-.496-.496-.208h-.488zm3.488.976q-.024 0-.024-.032l.008-2.272-1.072-3.232q-.008-.032.024-.032h.888q.04 0 .048.032l.592 2.152.6-2.152q.008-.032.04-.032h.896q.032 0 .024.032l-1.08 3.2.008 2.304q0 .032-.032.032z"/><path fill="#EB7D00" d="M144.993 67.6q-.032 0-.032-.04l.016-5.496q0-.032.032-.032h1.616q.432 0 .796.212t.58.568.216.804q0 .296-.088.532t-.208.4-.216.244q.432.48.432 1.128l.008 1.64q0 .04-.04.04h-.904q-.032 0-.032-.024V65.92q0-.288-.204-.5t-.5-.212h-.528l-.008 2.352q0 .04-.032.04zm.944-3.352h.688q.248 0 .44-.184t.192-.448q0-.256-.188-.44t-.444-.184h-.688zm4.36 3.432q-.432 0-.788-.22t-.572-.584-.216-.804l.008-2.536q0-.44.212-.8t.572-.576.784-.216q.432 0 .784.216t.564.576.212.8l.008 2.536q0 .44-.212.804t-.568.584-.788.22m0-.968q.24 0 .42-.196t.18-.444l-.008-2.536q0-.264-.168-.448t-.424-.184q-.248 0-.424.18t-.176.452v2.536q0 .264.176.452t.424.188m2.208.888q-.032 0-.032-.04l.008-5.488q0-.04.04-.04h.888q.04 0 .04.04l-.008 4.544h1.648q.04 0 .04.04v.904q0 .04-.04.04zm3.176 0q-.032 0-.032-.04l.008-5.488q0-.04.04-.04h.888q.04 0 .04.04l-.008 4.544h1.648q.04 0 .04.04v.904q0 .04-.04.04zm3.184 0q-.04 0-.04-.04l.016-5.496q0-.032.032-.032l1.496-.008q.44-.008.804.208t.58.58.216.804v2.296q0 .464-.224.844t-.6.604-.848.232zm.936-.984h.496q.296 0 .5-.208t.204-.496v-2.304q0-.256-.188-.444t-.444-.18l-.56.008zm4.28 1.064q-.432 0-.788-.22t-.572-.584-.216-.804l.008-2.536q0-.44.212-.8t.572-.576.784-.216q.432 0 .784.216t.564.576.212.8l.008 2.536q0 .44-.212.804t-.568.584-.788.22m0-.968q.24 0 .42-.196t.18-.444l-.008-2.536q0-.264-.168-.448t-.424-.184q-.248 0-.424.18t-.176.452v2.536q0 .264.176.452t.424.188m2.912.888q-.032 0-.04-.04l-.944-5.496q-.008-.032.024-.032h.896q.032 0 .04.032l.512 3.616.528-3.616q.008-.032.048-.032h.72q.032 0 .04.032l.52 3.616.52-3.616q.008-.032.04-.032h.888q.04 0 .032.032l-.952 5.496q-.008.016-.024.028l-.016.012h-.968q-.024 0-.04-.04l-.408-2.872-.408 2.872q-.008.04-.04.04zm4.368 0q-.064 0-.064-.056l-.008-5.448q0-.064.064-.064h.72l1.352 3.152-.04-3.088q0-.064.072-.064h.792q.048 0 .048.064l.008 5.456q0 .048-.04.048h-.704l-1.384-2.944.056 2.88q0 .064-.072.064z"/></g><defs><linearGradient id="a" x1="0" x2="217" y1="46.5" y2="46.5" gradientUnits="userSpaceOnUse"><stop offset="0" stop-color="#FF9500" stop-opacity=".4"/><stop offset=".502" stop-color="#30737A" stop-opacity=".2"/><stop offset=".999" stop-color="#A67B1E" stop-opacity="0"/></linearGradient><linearGradient id="d" x1="107" x2="176" y1="36" y2="36" gradientUnits="userSpaceOnUse"><stop offset="0" stop-color="#ED7300" stop-opacity=".4"/><stop offset="1" stop-color="#005EFF" stop-opacity=".4"/></linearGradient><filter id="b" width="61.441" height="63.072" x="22.16" y="14.498" color-interpolation-filters="sRGB" filterUnits="userSpaceOnUse"><feFlood flood-opacity="0" result="feFloodId_5_4"/><feColorMatrix in="SourceAlpha" result="hardAlpha_5_4" values="0 0 0 0 0 0 0 0 0 0 0 0 0 0 0 0 0 0 127 0"/><feOffset dy="2"/><feGaussianBlur stdDeviation="2"/><feComposite in2="hardAlpha_5_4" operator="out"/><feColorMatrix values="0 0 0 0 0 0 0 0 0 0 0 0 0 0 0 0 0 0 0.25 0"/><feBlend in2="feFloodId_5_4" result="dropShadow_1_5_4"/><feColorMatrix in="SourceAlpha" result="hardAlpha_5_4" values="0 0 0 0 0 0 0 0 0 0 0 0 0 0 0 0 0 0 127 0"/><feOffset dx="-4" dy="1"/><feGaussianBlur stdDeviation="5"/><feComposite in2="hardAlpha_5_4" operator="out"/><feColorMatrix values="0 0 0 0 0 0 0 0 0 0 0 0 0 0 0 0 0 0 0.05 0"/><feBlend in2="feFloodId_5_4" result="dropShadow_1_5_4"/><feBlend in="SourceGraphic" in2="dropShadow_1_5_4" result="shape_5_4"/></filter><filter id="c" width="79.176" height="49.48" x="104.824" y="21" color-interpolation-filters="sRGB" filterUnits="userSpaceOnUse"><feFlood flood-opacity="0" result="feFloodId_5_23"/><feColorMatrix in="SourceAlpha" result="hardAlpha_5_23" values="0 0 0 0 0 0 0 0 0 0 0 0 0 0 0 0 0 0 127 0"/><feOffset dy="1.6"/><feGaussianBlur stdDeviation=".6"/><feComposite in2="hardAlpha_5_23" operator="out"/><feColorMatrix values="0 0 0 0 0 0 0 0 0 0 0 0 0 0 0 0 0 0 0.15 0"/><feBlend in2="feFloodId_5_23" result="dropShadow_1_5_23"/><feBlend in="SourceGraphic" in2="dropShadow_1_5_23" result="shape_5_23"/></filter></defs></svg>